<mxfile host="Electron" modified="2024-05-08T14:36:02.938Z" agent="Mozilla/5.0 (Macintosh; Intel Mac OS X 10_15_7) AppleWebKit/537.36 (KHTML, like Gecko) draw.io/21.4.0 Chrome/112.0.5615.204 Electron/24.5.1 Safari/537.36" etag="LQ-IcsToCqjsVNJrWASW" version="21.4.0" type="device">
  <diagram name="Page-1" id="64c3da0e-402f-94eb-ee01-a36477274f13">
    <mxGraphModel dx="2812" dy="2348" grid="1" gridSize="10" guides="1" tooltips="1" connect="1" arrows="1" fold="1" page="1" pageScale="1" pageWidth="1169" pageHeight="826" background="none" math="0" shadow="0">
      <root>
        <mxCell id="0" />
        <mxCell id="1" parent="0" />
        <mxCell id="AW0I68Ch1FG8W-QAW0kh-370" value="" style="shape=ext;double=1;rounded=0;whiteSpace=wrap;html=1;textOpacity=30;opacity=70;fillColor=#ffe6cc;strokeColor=none;verticalAlign=top;movable=0;resizable=0;rotatable=0;deletable=0;editable=0;locked=1;connectable=0;" parent="1" vertex="1">
          <mxGeometry y="700" width="6820" height="330" as="geometry" />
        </mxCell>
        <mxCell id="AW0I68Ch1FG8W-QAW0kh-368" value="" style="shape=ext;double=1;rounded=0;whiteSpace=wrap;html=1;textOpacity=30;opacity=70;fillColor=#fff2cc;strokeColor=none;verticalAlign=top;movable=0;resizable=0;rotatable=0;deletable=0;editable=0;locked=1;connectable=0;" parent="1" vertex="1">
          <mxGeometry y="420" width="6820" height="280" as="geometry" />
        </mxCell>
        <mxCell id="AW0I68Ch1FG8W-QAW0kh-364" value="" style="shape=ext;double=1;rounded=0;whiteSpace=wrap;html=1;textOpacity=30;opacity=70;fillColor=#dae8fc;strokeColor=none;verticalAlign=top;" parent="1" vertex="1">
          <mxGeometry y="-100" width="6820" height="250" as="geometry" />
        </mxCell>
        <mxCell id="AW0I68Ch1FG8W-QAW0kh-362" value="" style="shape=ext;double=1;rounded=0;whiteSpace=wrap;html=1;textOpacity=30;opacity=70;fillColor=#d5e8d4;strokeColor=none;verticalAlign=top;movable=0;resizable=0;rotatable=0;deletable=0;editable=0;locked=1;connectable=0;" parent="1" vertex="1">
          <mxGeometry y="150" width="6820" height="270" as="geometry" />
        </mxCell>
        <mxCell id="AW0I68Ch1FG8W-QAW0kh-363" value="&lt;font style=&quot;font-size: 16px;&quot;&gt;LEVEL 1&lt;/font&gt;" style="text;html=1;align=center;verticalAlign=top;whiteSpace=wrap;rounded=0;fillColor=none;strokeColor=none;fontStyle=1;fontSize=16;fontColor=#9dc48a;labelBorderColor=none;movable=1;resizable=1;rotatable=1;deletable=1;editable=1;locked=0;connectable=1;" parent="1" vertex="1">
          <mxGeometry y="150" width="80" height="30" as="geometry" />
        </mxCell>
        <mxCell id="AW0I68Ch1FG8W-QAW0kh-365" value="&lt;font style=&quot;font-size: 16px;&quot;&gt;LEVEL 0&lt;/font&gt;" style="text;html=1;align=center;verticalAlign=top;whiteSpace=wrap;rounded=0;fillColor=none;strokeColor=none;fontStyle=1;fontSize=16;fontColor=#8ca3c6;labelBorderColor=none;movable=1;resizable=1;rotatable=1;deletable=1;editable=1;locked=0;connectable=1;" parent="1" vertex="1">
          <mxGeometry y="-100" width="80" height="30" as="geometry" />
        </mxCell>
        <mxCell id="AW0I68Ch1FG8W-QAW0kh-369" value="&lt;font style=&quot;font-size: 16px;&quot;&gt;LEVEL 2&lt;/font&gt;" style="text;html=1;align=center;verticalAlign=top;whiteSpace=wrap;rounded=0;fillColor=none;strokeColor=none;fontStyle=1;fontSize=16;fontColor=#e3c77f;labelBorderColor=none;movable=1;resizable=1;rotatable=1;deletable=1;editable=1;locked=0;connectable=1;" parent="1" vertex="1">
          <mxGeometry y="420" width="80" height="30" as="geometry" />
        </mxCell>
        <mxCell id="AW0I68Ch1FG8W-QAW0kh-371" value="&lt;font color=&quot;#e4b964&quot; style=&quot;font-size: 16px;&quot;&gt;LEVEL 3&lt;/font&gt;" style="text;html=1;align=center;verticalAlign=top;whiteSpace=wrap;rounded=0;fontStyle=1;fontSize=16;labelBorderColor=none;movable=1;resizable=1;rotatable=1;deletable=1;editable=1;locked=0;connectable=1;" parent="1" vertex="1">
          <mxGeometry y="700" width="80" height="30" as="geometry" />
        </mxCell>
        <mxCell id="Yl3m7NVMGg6Dee1x0JeU-246" value="" style="group;movable=1;resizable=1;rotatable=1;deletable=1;editable=1;locked=0;connectable=1;" parent="1" vertex="1" connectable="0">
          <mxGeometry x="20" y="209.9999999999999" width="1300" height="757.0000000000002" as="geometry" />
        </mxCell>
        <mxCell id="BGO1QoiUC6lwQhX8ezDE-372" value="" style="group;movable=1;resizable=1;rotatable=1;deletable=1;editable=1;locked=0;connectable=1;" parent="Yl3m7NVMGg6Dee1x0JeU-246" vertex="1" connectable="0">
          <mxGeometry y="276" width="620" height="437.0000000000001" as="geometry" />
        </mxCell>
        <mxCell id="BGO1QoiUC6lwQhX8ezDE-356" value="" style="group;movable=1;resizable=1;rotatable=1;deletable=1;editable=1;locked=0;connectable=1;" parent="BGO1QoiUC6lwQhX8ezDE-372" vertex="1" connectable="0">
          <mxGeometry x="220" width="180" height="180.0000000000001" as="geometry" />
        </mxCell>
        <mxCell id="BGO1QoiUC6lwQhX8ezDE-357" value="Scope &#xa;Documentation" style="whiteSpace=wrap;rounded=1;fillColor=#fff2cc;strokeColor=#d6b656;shadow=1;fontStyle=1;gradientColor=#ffd966;verticalAlign=top;strokeWidth=4;fontSize=16;movable=1;resizable=1;rotatable=1;deletable=1;editable=1;locked=0;connectable=1;" parent="BGO1QoiUC6lwQhX8ezDE-356" vertex="1">
          <mxGeometry y="30.000000000000114" width="180" height="150" as="geometry" />
        </mxCell>
        <mxCell id="BGO1QoiUC6lwQhX8ezDE-358" value="&lt;font style=&quot;font-size: 18px;&quot;&gt;1.1&lt;/font&gt;" style="text;html=1;strokeColor=none;fillColor=none;align=center;verticalAlign=top;whiteSpace=wrap;rounded=0;movable=1;resizable=1;rotatable=1;deletable=1;editable=1;locked=0;connectable=1;" parent="BGO1QoiUC6lwQhX8ezDE-356" vertex="1">
          <mxGeometry x="135" width="45" height="30" as="geometry" />
        </mxCell>
        <mxCell id="BGO1QoiUC6lwQhX8ezDE-359" value="" style="endArrow=none;html=1;rounded=0;verticalAlign=top;fontSize=30;strokeWidth=3;exitX=0;exitY=0.5;exitDx=0;exitDy=0;movable=1;resizable=1;rotatable=1;deletable=1;editable=1;locked=0;connectable=1;" parent="BGO1QoiUC6lwQhX8ezDE-356" edge="1">
          <mxGeometry relative="1" as="geometry">
            <mxPoint y="130.0000000000001" as="sourcePoint" />
            <mxPoint x="180" y="130.0000000000001" as="targetPoint" />
          </mxGeometry>
        </mxCell>
        <mxCell id="BGO1QoiUC6lwQhX8ezDE-360" value="Adrian&lt;span style=&quot;font-size: medium; text-align: start;&quot;&gt;&lt;/span&gt;" style="text;strokeColor=none;fillColor=none;spacingLeft=4;spacingRight=4;overflow=hidden;rotatable=1;points=[[0,0.5],[1,0.5]];portConstraint=eastwest;fontSize=16;whiteSpace=wrap;html=1;align=center;verticalAlign=middle;movable=1;resizable=1;deletable=1;editable=1;locked=0;connectable=1;" parent="BGO1QoiUC6lwQhX8ezDE-356" vertex="1">
          <mxGeometry x="30" y="130.0000000000001" width="120" height="50" as="geometry" />
        </mxCell>
        <mxCell id="BGO1QoiUC6lwQhX8ezDE-361" value="R175 000&lt;span style=&quot;font-size: medium; text-align: start;&quot;&gt;&lt;/span&gt;" style="text;strokeColor=none;fillColor=none;spacingLeft=4;spacingRight=4;overflow=hidden;rotatable=1;points=[[0,0.5],[1,0.5]];portConstraint=eastwest;fontSize=16;whiteSpace=wrap;html=1;align=center;verticalAlign=middle;movable=1;resizable=1;deletable=1;editable=1;locked=0;connectable=1;" parent="BGO1QoiUC6lwQhX8ezDE-356" vertex="1">
          <mxGeometry x="30" y="80.00000000000011" width="120" height="50" as="geometry" />
        </mxCell>
        <mxCell id="BGO1QoiUC6lwQhX8ezDE-362" value="" style="endArrow=none;html=1;rounded=0;verticalAlign=top;fontSize=30;strokeWidth=3;movable=1;resizable=1;rotatable=1;deletable=1;editable=1;locked=0;connectable=1;" parent="BGO1QoiUC6lwQhX8ezDE-356" edge="1">
          <mxGeometry relative="1" as="geometry">
            <mxPoint y="80.00000000000011" as="sourcePoint" />
            <mxPoint x="180" y="80.00000000000011" as="targetPoint" />
          </mxGeometry>
        </mxCell>
        <mxCell id="Yl3m7NVMGg6Dee1x0JeU-233" value="" style="group;movable=1;resizable=1;rotatable=1;deletable=1;editable=1;locked=0;connectable=1;" parent="Yl3m7NVMGg6Dee1x0JeU-246" vertex="1" connectable="0">
          <mxGeometry x="570" y="-10" width="180" height="180.0000000000001" as="geometry" />
        </mxCell>
        <mxCell id="Yl3m7NVMGg6Dee1x0JeU-234" value="Project Scope Statement" style="whiteSpace=wrap;rounded=1;fillColor=#d5e8d4;strokeColor=#82b366;shadow=1;fontStyle=1;gradientColor=#97d077;verticalAlign=top;strokeWidth=4;fontSize=16;movable=1;resizable=1;rotatable=1;deletable=1;editable=1;locked=0;connectable=1;" parent="Yl3m7NVMGg6Dee1x0JeU-233" vertex="1">
          <mxGeometry y="30.000000000000114" width="180" height="150" as="geometry" />
        </mxCell>
        <mxCell id="Yl3m7NVMGg6Dee1x0JeU-235" value="&lt;font style=&quot;font-size: 18px;&quot;&gt;1&lt;/font&gt;" style="text;html=1;strokeColor=none;fillColor=none;align=center;verticalAlign=top;whiteSpace=wrap;rounded=0;movable=1;resizable=1;rotatable=1;deletable=1;editable=1;locked=0;connectable=1;" parent="Yl3m7NVMGg6Dee1x0JeU-233" vertex="1">
          <mxGeometry x="135" width="45" height="30" as="geometry" />
        </mxCell>
        <mxCell id="Yl3m7NVMGg6Dee1x0JeU-236" value="" style="endArrow=none;html=1;rounded=0;verticalAlign=top;fontSize=30;strokeWidth=3;exitX=0;exitY=0.5;exitDx=0;exitDy=0;movable=1;resizable=1;rotatable=1;deletable=1;editable=1;locked=0;connectable=1;" parent="Yl3m7NVMGg6Dee1x0JeU-233" edge="1">
          <mxGeometry relative="1" as="geometry">
            <mxPoint y="130.0000000000001" as="sourcePoint" />
            <mxPoint x="180" y="130.0000000000001" as="targetPoint" />
          </mxGeometry>
        </mxCell>
        <mxCell id="Yl3m7NVMGg6Dee1x0JeU-237" value="Akhona&lt;span style=&quot;font-size: medium; text-align: start;&quot;&gt;&lt;/span&gt;" style="text;strokeColor=none;fillColor=none;spacingLeft=4;spacingRight=4;overflow=hidden;rotatable=1;points=[[0,0.5],[1,0.5]];portConstraint=eastwest;fontSize=16;whiteSpace=wrap;html=1;align=center;verticalAlign=middle;movable=1;resizable=1;deletable=1;editable=1;locked=0;connectable=1;" parent="Yl3m7NVMGg6Dee1x0JeU-233" vertex="1">
          <mxGeometry x="30" y="130.0000000000001" width="120" height="50" as="geometry" />
        </mxCell>
        <mxCell id="Yl3m7NVMGg6Dee1x0JeU-238" value="R350 000" style="text;strokeColor=none;fillColor=none;spacingLeft=4;spacingRight=4;overflow=hidden;rotatable=1;points=[[0,0.5],[1,0.5]];portConstraint=eastwest;fontSize=16;whiteSpace=wrap;html=1;align=center;verticalAlign=middle;movable=1;resizable=1;deletable=1;editable=1;locked=0;connectable=1;" parent="Yl3m7NVMGg6Dee1x0JeU-233" vertex="1">
          <mxGeometry x="30" y="80.00000000000011" width="120" height="50" as="geometry" />
        </mxCell>
        <mxCell id="Yl3m7NVMGg6Dee1x0JeU-239" value="" style="endArrow=none;html=1;rounded=0;verticalAlign=top;fontSize=30;strokeWidth=3;movable=1;resizable=1;rotatable=1;deletable=1;editable=1;locked=0;connectable=1;" parent="Yl3m7NVMGg6Dee1x0JeU-233" edge="1">
          <mxGeometry relative="1" as="geometry">
            <mxPoint y="80.00000000000011" as="sourcePoint" />
            <mxPoint x="180" y="80.00000000000011" as="targetPoint" />
          </mxGeometry>
        </mxCell>
        <mxCell id="Yl3m7NVMGg6Dee1x0JeU-240" style="edgeStyle=orthogonalEdgeStyle;rounded=0;orthogonalLoop=1;jettySize=auto;html=1;exitX=0.5;exitY=0;exitDx=0;exitDy=0;entryX=0.495;entryY=1.018;entryDx=0;entryDy=0;entryPerimeter=0;strokeWidth=6;endArrow=none;endFill=0;movable=1;resizable=1;rotatable=1;deletable=1;editable=1;locked=0;connectable=1;" parent="Yl3m7NVMGg6Dee1x0JeU-246" source="BGO1QoiUC6lwQhX8ezDE-357" target="Yl3m7NVMGg6Dee1x0JeU-237" edge="1">
          <mxGeometry relative="1" as="geometry">
            <mxPoint x="650" y="190.0000000000001" as="targetPoint" />
            <Array as="points">
              <mxPoint x="310" y="250" />
              <mxPoint x="659" y="250" />
            </Array>
          </mxGeometry>
        </mxCell>
        <mxCell id="Yl3m7NVMGg6Dee1x0JeU-241" style="edgeStyle=orthogonalEdgeStyle;rounded=0;orthogonalLoop=1;jettySize=auto;html=1;exitX=0.5;exitY=0;exitDx=0;exitDy=0;entryX=0.485;entryY=1.016;entryDx=0;entryDy=0;entryPerimeter=0;strokeWidth=6;endArrow=none;endFill=0;movable=1;resizable=1;rotatable=1;deletable=1;editable=1;locked=0;connectable=1;" parent="Yl3m7NVMGg6Dee1x0JeU-246" source="BGO1QoiUC6lwQhX8ezDE-375" target="Yl3m7NVMGg6Dee1x0JeU-237" edge="1">
          <mxGeometry relative="1" as="geometry">
            <mxPoint x="650" y="180.0000000000001" as="targetPoint" />
            <Array as="points">
              <mxPoint x="970" y="250" />
              <mxPoint x="658" y="250" />
            </Array>
          </mxGeometry>
        </mxCell>
        <mxCell id="BGO1QoiUC6lwQhX8ezDE-373" value="" style="group;movable=1;resizable=1;rotatable=1;deletable=1;editable=1;locked=0;connectable=1;" parent="Yl3m7NVMGg6Dee1x0JeU-246" vertex="1" connectable="0">
          <mxGeometry x="660" y="276" width="620" height="437.0000000000001" as="geometry" />
        </mxCell>
        <mxCell id="BGO1QoiUC6lwQhX8ezDE-374" value="" style="group;movable=1;resizable=1;rotatable=1;deletable=1;editable=1;locked=0;connectable=1;" parent="BGO1QoiUC6lwQhX8ezDE-373" vertex="1" connectable="0">
          <mxGeometry x="220" width="180" height="180.0000000000001" as="geometry" />
        </mxCell>
        <mxCell id="BGO1QoiUC6lwQhX8ezDE-375" value="Scope &#xa;Communication" style="whiteSpace=wrap;rounded=1;fillColor=#fff2cc;strokeColor=#d6b656;shadow=1;fontStyle=1;gradientColor=#ffd966;verticalAlign=top;strokeWidth=4;fontSize=16;movable=1;resizable=1;rotatable=1;deletable=1;editable=1;locked=0;connectable=1;" parent="BGO1QoiUC6lwQhX8ezDE-374" vertex="1">
          <mxGeometry y="30.000000000000114" width="180" height="150" as="geometry" />
        </mxCell>
        <mxCell id="BGO1QoiUC6lwQhX8ezDE-376" value="&lt;font style=&quot;font-size: 18px;&quot;&gt;1.2&lt;/font&gt;" style="text;html=1;strokeColor=none;fillColor=none;align=center;verticalAlign=top;whiteSpace=wrap;rounded=0;movable=1;resizable=1;rotatable=1;deletable=1;editable=1;locked=0;connectable=1;" parent="BGO1QoiUC6lwQhX8ezDE-374" vertex="1">
          <mxGeometry x="135" width="45" height="30" as="geometry" />
        </mxCell>
        <mxCell id="BGO1QoiUC6lwQhX8ezDE-377" value="" style="endArrow=none;html=1;rounded=0;verticalAlign=top;fontSize=30;strokeWidth=3;exitX=0;exitY=0.5;exitDx=0;exitDy=0;movable=1;resizable=1;rotatable=1;deletable=1;editable=1;locked=0;connectable=1;" parent="BGO1QoiUC6lwQhX8ezDE-374" edge="1">
          <mxGeometry relative="1" as="geometry">
            <mxPoint y="130.0000000000001" as="sourcePoint" />
            <mxPoint x="180" y="130.0000000000001" as="targetPoint" />
          </mxGeometry>
        </mxCell>
        <mxCell id="BGO1QoiUC6lwQhX8ezDE-378" value="Alexander&lt;span style=&quot;font-size: medium; text-align: start;&quot;&gt;&lt;/span&gt;" style="text;strokeColor=none;fillColor=none;spacingLeft=4;spacingRight=4;overflow=hidden;rotatable=1;points=[[0,0.5],[1,0.5]];portConstraint=eastwest;fontSize=16;whiteSpace=wrap;html=1;align=center;verticalAlign=middle;movable=1;resizable=1;deletable=1;editable=1;locked=0;connectable=1;" parent="BGO1QoiUC6lwQhX8ezDE-374" vertex="1">
          <mxGeometry x="30" y="130.0000000000001" width="120" height="50" as="geometry" />
        </mxCell>
        <mxCell id="BGO1QoiUC6lwQhX8ezDE-379" value="R175 000&lt;span style=&quot;font-size: medium; text-align: start;&quot;&gt;&lt;/span&gt;" style="text;strokeColor=none;fillColor=none;spacingLeft=4;spacingRight=4;overflow=hidden;rotatable=1;points=[[0,0.5],[1,0.5]];portConstraint=eastwest;fontSize=16;whiteSpace=wrap;html=1;align=center;verticalAlign=middle;movable=1;resizable=1;deletable=1;editable=1;locked=0;connectable=1;" parent="BGO1QoiUC6lwQhX8ezDE-374" vertex="1">
          <mxGeometry x="30" y="80.00000000000011" width="120" height="50" as="geometry" />
        </mxCell>
        <mxCell id="BGO1QoiUC6lwQhX8ezDE-380" value="" style="endArrow=none;html=1;rounded=0;verticalAlign=top;fontSize=30;strokeWidth=3;movable=1;resizable=1;rotatable=1;deletable=1;editable=1;locked=0;connectable=1;" parent="BGO1QoiUC6lwQhX8ezDE-374" edge="1">
          <mxGeometry relative="1" as="geometry">
            <mxPoint y="80.00000000000011" as="sourcePoint" />
            <mxPoint x="180" y="80.00000000000011" as="targetPoint" />
          </mxGeometry>
        </mxCell>
        <mxCell id="BGO1QoiUC6lwQhX8ezDE-382" value="" style="group;movable=1;resizable=1;rotatable=1;deletable=1;editable=1;locked=0;connectable=1;" parent="Yl3m7NVMGg6Dee1x0JeU-246" vertex="1" connectable="0">
          <mxGeometry x="660" y="575.62" width="180" height="180.0000000000001" as="geometry" />
        </mxCell>
        <mxCell id="BGO1QoiUC6lwQhX8ezDE-383" style="rounded=0;orthogonalLoop=1;jettySize=auto;html=1;exitX=0.5;exitY=0;exitDx=0;exitDy=0;endArrow=none;endFill=0;strokeWidth=6;edgeStyle=orthogonalEdgeStyle;movable=1;resizable=1;rotatable=1;deletable=1;editable=1;locked=0;connectable=1;" parent="BGO1QoiUC6lwQhX8ezDE-382" source="BGO1QoiUC6lwQhX8ezDE-384" edge="1">
          <mxGeometry relative="1" as="geometry">
            <mxPoint x="310" y="-75.61999999999989" as="targetPoint" />
            <Array as="points">
              <mxPoint x="90" y="-36" />
              <mxPoint x="310" y="-36" />
            </Array>
          </mxGeometry>
        </mxCell>
        <mxCell id="BGO1QoiUC6lwQhX8ezDE-384" value="Develop Scope&#xa; presentation" style="whiteSpace=wrap;rounded=1;fillColor=#ffcd28;strokeColor=#d79b00;shadow=1;fontStyle=0;gradientColor=#ffa500;verticalAlign=top;strokeWidth=4;movable=1;resizable=1;rotatable=1;deletable=1;editable=1;locked=0;connectable=1;" parent="BGO1QoiUC6lwQhX8ezDE-382" vertex="1">
          <mxGeometry y="30.000000000000114" width="180" height="150" as="geometry" />
        </mxCell>
        <mxCell id="BGO1QoiUC6lwQhX8ezDE-385" value="&lt;font style=&quot;font-size: 18px;&quot;&gt;1.2.1&lt;/font&gt;" style="text;html=1;strokeColor=none;fillColor=none;align=center;verticalAlign=top;whiteSpace=wrap;rounded=0;movable=1;resizable=1;rotatable=1;deletable=1;editable=1;locked=0;connectable=1;" parent="BGO1QoiUC6lwQhX8ezDE-382" vertex="1">
          <mxGeometry x="135" width="45" height="30" as="geometry" />
        </mxCell>
        <mxCell id="BGO1QoiUC6lwQhX8ezDE-386" value="" style="endArrow=none;html=1;rounded=0;verticalAlign=top;fontSize=30;strokeWidth=3;exitX=0;exitY=0.5;exitDx=0;exitDy=0;movable=1;resizable=1;rotatable=1;deletable=1;editable=1;locked=0;connectable=1;" parent="BGO1QoiUC6lwQhX8ezDE-382" edge="1">
          <mxGeometry relative="1" as="geometry">
            <mxPoint y="130.0000000000001" as="sourcePoint" />
            <mxPoint x="180" y="130.0000000000001" as="targetPoint" />
          </mxGeometry>
        </mxCell>
        <mxCell id="BGO1QoiUC6lwQhX8ezDE-387" value="Aaron&lt;span style=&quot;font-size: medium; text-align: start;&quot;&gt;&lt;/span&gt;" style="text;strokeColor=none;fillColor=none;spacingLeft=4;spacingRight=4;overflow=hidden;rotatable=1;points=[[0,0.5],[1,0.5]];portConstraint=eastwest;fontSize=16;whiteSpace=wrap;html=1;align=center;verticalAlign=middle;movable=1;resizable=1;deletable=1;editable=1;locked=0;connectable=1;" parent="BGO1QoiUC6lwQhX8ezDE-382" vertex="1">
          <mxGeometry x="30" y="130.0000000000001" width="120" height="50" as="geometry" />
        </mxCell>
        <mxCell id="BGO1QoiUC6lwQhX8ezDE-388" value="R59 000" style="text;strokeColor=none;fillColor=none;spacingLeft=4;spacingRight=4;overflow=hidden;rotatable=1;points=[[0,0.5],[1,0.5]];portConstraint=eastwest;fontSize=16;whiteSpace=wrap;html=1;align=center;verticalAlign=middle;movable=1;resizable=1;deletable=1;editable=1;locked=0;connectable=1;" parent="BGO1QoiUC6lwQhX8ezDE-382" vertex="1">
          <mxGeometry x="30" y="80.00000000000011" width="120" height="50" as="geometry" />
        </mxCell>
        <mxCell id="BGO1QoiUC6lwQhX8ezDE-389" value="" style="endArrow=none;html=1;rounded=0;verticalAlign=top;fontSize=30;strokeWidth=3;movable=1;resizable=1;rotatable=1;deletable=1;editable=1;locked=0;connectable=1;" parent="BGO1QoiUC6lwQhX8ezDE-382" edge="1">
          <mxGeometry relative="1" as="geometry">
            <mxPoint y="80.00000000000011" as="sourcePoint" />
            <mxPoint x="180" y="80.00000000000011" as="targetPoint" />
          </mxGeometry>
        </mxCell>
        <mxCell id="BGO1QoiUC6lwQhX8ezDE-390" value="" style="group;movable=1;resizable=1;rotatable=1;deletable=1;editable=1;locked=0;connectable=1;" parent="Yl3m7NVMGg6Dee1x0JeU-246" vertex="1" connectable="0">
          <mxGeometry x="880" y="577.0000000000001" width="180" height="180.0000000000001" as="geometry" />
        </mxCell>
        <mxCell id="BGO1QoiUC6lwQhX8ezDE-391" value="Present to local municipality &#xa;and Key Stakeholders" style="whiteSpace=wrap;rounded=1;fillColor=#ffcd28;strokeColor=#d79b00;shadow=1;fontStyle=0;gradientColor=#ffa500;verticalAlign=top;strokeWidth=4;movable=1;resizable=1;rotatable=1;deletable=1;editable=1;locked=0;connectable=1;" parent="BGO1QoiUC6lwQhX8ezDE-390" vertex="1">
          <mxGeometry y="30.000000000000114" width="180" height="150" as="geometry" />
        </mxCell>
        <mxCell id="BGO1QoiUC6lwQhX8ezDE-392" value="&lt;font style=&quot;font-size: 18px;&quot;&gt;1.2.2&lt;/font&gt;" style="text;html=1;strokeColor=none;fillColor=none;align=center;verticalAlign=top;whiteSpace=wrap;rounded=0;movable=1;resizable=1;rotatable=1;deletable=1;editable=1;locked=0;connectable=1;" parent="BGO1QoiUC6lwQhX8ezDE-390" vertex="1">
          <mxGeometry x="135" width="45" height="30" as="geometry" />
        </mxCell>
        <mxCell id="BGO1QoiUC6lwQhX8ezDE-393" value="" style="endArrow=none;html=1;rounded=0;verticalAlign=top;fontSize=30;strokeWidth=3;exitX=0;exitY=0.5;exitDx=0;exitDy=0;movable=1;resizable=1;rotatable=1;deletable=1;editable=1;locked=0;connectable=1;" parent="BGO1QoiUC6lwQhX8ezDE-390" edge="1">
          <mxGeometry relative="1" as="geometry">
            <mxPoint y="130.0000000000001" as="sourcePoint" />
            <mxPoint x="180" y="130.0000000000001" as="targetPoint" />
          </mxGeometry>
        </mxCell>
        <mxCell id="BGO1QoiUC6lwQhX8ezDE-394" value="Andrew&lt;span style=&quot;font-size: medium; text-align: start;&quot;&gt;&lt;/span&gt;" style="text;strokeColor=none;fillColor=none;spacingLeft=4;spacingRight=4;overflow=hidden;rotatable=1;points=[[0,0.5],[1,0.5]];portConstraint=eastwest;fontSize=16;whiteSpace=wrap;html=1;align=center;verticalAlign=middle;movable=1;resizable=1;deletable=1;editable=1;locked=0;connectable=1;" parent="BGO1QoiUC6lwQhX8ezDE-390" vertex="1">
          <mxGeometry x="30" y="130.0000000000001" width="120" height="50" as="geometry" />
        </mxCell>
        <mxCell id="BGO1QoiUC6lwQhX8ezDE-395" value="R58 000&lt;span style=&quot;font-size: medium; text-align: start;&quot;&gt;&lt;/span&gt;" style="text;strokeColor=none;fillColor=none;spacingLeft=4;spacingRight=4;overflow=hidden;rotatable=1;points=[[0,0.5],[1,0.5]];portConstraint=eastwest;fontSize=16;whiteSpace=wrap;html=1;align=center;verticalAlign=middle;movable=1;resizable=1;deletable=1;editable=1;locked=0;connectable=1;" parent="BGO1QoiUC6lwQhX8ezDE-390" vertex="1">
          <mxGeometry x="30" y="80.00000000000011" width="120" height="50" as="geometry" />
        </mxCell>
        <mxCell id="BGO1QoiUC6lwQhX8ezDE-396" value="" style="endArrow=none;html=1;rounded=0;verticalAlign=top;fontSize=30;strokeWidth=3;movable=1;resizable=1;rotatable=1;deletable=1;editable=1;locked=0;connectable=1;" parent="BGO1QoiUC6lwQhX8ezDE-390" edge="1">
          <mxGeometry relative="1" as="geometry">
            <mxPoint y="80.00000000000011" as="sourcePoint" />
            <mxPoint x="180" y="80.00000000000011" as="targetPoint" />
          </mxGeometry>
        </mxCell>
        <mxCell id="BGO1QoiUC6lwQhX8ezDE-381" style="edgeStyle=orthogonalEdgeStyle;rounded=0;orthogonalLoop=1;jettySize=auto;html=1;exitX=0.5;exitY=0;exitDx=0;exitDy=0;entryX=0.5;entryY=1;entryDx=0;entryDy=0;strokeWidth=6;endArrow=none;endFill=0;movable=1;resizable=1;rotatable=1;deletable=1;editable=1;locked=0;connectable=1;" parent="Yl3m7NVMGg6Dee1x0JeU-246" source="BGO1QoiUC6lwQhX8ezDE-391" edge="1">
          <mxGeometry relative="1" as="geometry">
            <Array as="points">
              <mxPoint x="970" y="510.0000000000001" />
              <mxPoint x="970" y="510.0000000000001" />
            </Array>
            <mxPoint x="970" y="500.0000000000001" as="targetPoint" />
          </mxGeometry>
        </mxCell>
        <mxCell id="BGO1QoiUC6lwQhX8ezDE-397" value="" style="group;movable=1;resizable=1;rotatable=1;deletable=1;editable=1;locked=0;connectable=1;" parent="Yl3m7NVMGg6Dee1x0JeU-246" vertex="1" connectable="0">
          <mxGeometry x="1100" y="577.0000000000001" width="180" height="180.0000000000001" as="geometry" />
        </mxCell>
        <mxCell id="BGO1QoiUC6lwQhX8ezDE-399" value="Finalise and Distribute Approved Scope Document" style="whiteSpace=wrap;rounded=1;fillColor=#ffcd28;strokeColor=#d79b00;shadow=1;fontStyle=0;gradientColor=#ffa500;verticalAlign=top;strokeWidth=4;movable=1;resizable=1;rotatable=1;deletable=1;editable=1;locked=0;connectable=1;fontSize=11;" parent="BGO1QoiUC6lwQhX8ezDE-397" vertex="1">
          <mxGeometry y="30.000000000000114" width="180" height="150" as="geometry" />
        </mxCell>
        <mxCell id="BGO1QoiUC6lwQhX8ezDE-400" value="&lt;font style=&quot;font-size: 18px;&quot;&gt;1.2.3&lt;/font&gt;" style="text;html=1;strokeColor=none;fillColor=none;align=center;verticalAlign=top;whiteSpace=wrap;rounded=0;movable=1;resizable=1;rotatable=1;deletable=1;editable=1;locked=0;connectable=1;" parent="BGO1QoiUC6lwQhX8ezDE-397" vertex="1">
          <mxGeometry x="135" width="45" height="30" as="geometry" />
        </mxCell>
        <mxCell id="BGO1QoiUC6lwQhX8ezDE-401" value="" style="endArrow=none;html=1;rounded=0;verticalAlign=top;fontSize=30;strokeWidth=3;exitX=0;exitY=0.5;exitDx=0;exitDy=0;movable=1;resizable=1;rotatable=1;deletable=1;editable=1;locked=0;connectable=1;" parent="BGO1QoiUC6lwQhX8ezDE-397" edge="1">
          <mxGeometry relative="1" as="geometry">
            <mxPoint y="130.0000000000001" as="sourcePoint" />
            <mxPoint x="180" y="130.0000000000001" as="targetPoint" />
          </mxGeometry>
        </mxCell>
        <mxCell id="BGO1QoiUC6lwQhX8ezDE-402" value="Aubrey&lt;span style=&quot;font-size: medium; text-align: start;&quot;&gt;&lt;/span&gt;" style="text;strokeColor=none;fillColor=none;spacingLeft=4;spacingRight=4;overflow=hidden;rotatable=1;points=[[0,0.5],[1,0.5]];portConstraint=eastwest;fontSize=16;whiteSpace=wrap;html=1;align=center;verticalAlign=middle;movable=1;resizable=1;deletable=1;editable=1;locked=0;connectable=1;" parent="BGO1QoiUC6lwQhX8ezDE-397" vertex="1">
          <mxGeometry x="30" y="130.0000000000001" width="120" height="50" as="geometry" />
        </mxCell>
        <mxCell id="BGO1QoiUC6lwQhX8ezDE-403" value="R58 000&lt;span style=&quot;font-size: medium; text-align: start;&quot;&gt;&lt;/span&gt;" style="text;strokeColor=none;fillColor=none;spacingLeft=4;spacingRight=4;overflow=hidden;rotatable=1;points=[[0,0.5],[1,0.5]];portConstraint=eastwest;fontSize=16;whiteSpace=wrap;html=1;align=center;verticalAlign=middle;movable=1;resizable=1;deletable=1;editable=1;locked=0;connectable=1;" parent="BGO1QoiUC6lwQhX8ezDE-397" vertex="1">
          <mxGeometry x="30" y="80.00000000000011" width="120" height="50" as="geometry" />
        </mxCell>
        <mxCell id="BGO1QoiUC6lwQhX8ezDE-404" value="" style="endArrow=none;html=1;rounded=0;verticalAlign=top;fontSize=30;strokeWidth=3;movable=1;resizable=1;rotatable=1;deletable=1;editable=1;locked=0;connectable=1;" parent="BGO1QoiUC6lwQhX8ezDE-397" edge="1">
          <mxGeometry relative="1" as="geometry">
            <mxPoint y="80.00000000000011" as="sourcePoint" />
            <mxPoint x="180" y="80.00000000000011" as="targetPoint" />
          </mxGeometry>
        </mxCell>
        <mxCell id="BGO1QoiUC6lwQhX8ezDE-398" style="edgeStyle=orthogonalEdgeStyle;rounded=0;orthogonalLoop=1;jettySize=auto;html=1;exitX=0.5;exitY=0;exitDx=0;exitDy=0;strokeWidth=6;endArrow=none;endFill=0;entryX=0.501;entryY=0.979;entryDx=0;entryDy=0;entryPerimeter=0;movable=1;resizable=1;rotatable=1;deletable=1;editable=1;locked=0;connectable=1;" parent="Yl3m7NVMGg6Dee1x0JeU-246" source="BGO1QoiUC6lwQhX8ezDE-399" target="BGO1QoiUC6lwQhX8ezDE-378" edge="1">
          <mxGeometry relative="1" as="geometry">
            <mxPoint x="970" y="500.0000000000001" as="targetPoint" />
            <Array as="points">
              <mxPoint x="1190" y="540.0000000000001" />
              <mxPoint x="970" y="540.0000000000001" />
            </Array>
          </mxGeometry>
        </mxCell>
        <mxCell id="BGO1QoiUC6lwQhX8ezDE-342" value="" style="group;movable=1;resizable=1;rotatable=1;deletable=1;editable=1;locked=0;connectable=1;" parent="1" vertex="1" connectable="0">
          <mxGeometry x="240" y="787" width="180" height="180.0000000000001" as="geometry" />
        </mxCell>
        <mxCell id="BGO1QoiUC6lwQhX8ezDE-343" value="Define Functional and &#xa;Non-functional Requirements" style="whiteSpace=wrap;rounded=1;fillColor=#ffcd28;strokeColor=#d79b00;shadow=1;fontStyle=0;gradientColor=#ffa500;verticalAlign=top;strokeWidth=4;movable=1;resizable=1;rotatable=1;deletable=1;editable=1;locked=0;connectable=1;" parent="BGO1QoiUC6lwQhX8ezDE-342" vertex="1">
          <mxGeometry y="30.000000000000114" width="180" height="150" as="geometry" />
        </mxCell>
        <mxCell id="BGO1QoiUC6lwQhX8ezDE-344" value="&lt;font style=&quot;font-size: 18px;&quot;&gt;1.1.2&lt;/font&gt;" style="text;html=1;strokeColor=none;fillColor=none;align=center;verticalAlign=top;whiteSpace=wrap;rounded=0;movable=1;resizable=1;rotatable=1;deletable=1;editable=1;locked=0;connectable=1;" parent="BGO1QoiUC6lwQhX8ezDE-342" vertex="1">
          <mxGeometry x="135" width="45" height="30" as="geometry" />
        </mxCell>
        <mxCell id="BGO1QoiUC6lwQhX8ezDE-345" value="" style="endArrow=none;html=1;rounded=0;verticalAlign=top;fontSize=30;strokeWidth=3;exitX=0;exitY=0.5;exitDx=0;exitDy=0;movable=1;resizable=1;rotatable=1;deletable=1;editable=1;locked=0;connectable=1;" parent="BGO1QoiUC6lwQhX8ezDE-342" edge="1">
          <mxGeometry relative="1" as="geometry">
            <mxPoint y="130.0000000000001" as="sourcePoint" />
            <mxPoint x="180" y="130.0000000000001" as="targetPoint" />
          </mxGeometry>
        </mxCell>
        <mxCell id="BGO1QoiUC6lwQhX8ezDE-346" value="Aurora&lt;span style=&quot;font-size: medium; text-align: start;&quot;&gt;&lt;/span&gt;" style="text;strokeColor=none;fillColor=none;spacingLeft=4;spacingRight=4;overflow=hidden;rotatable=1;points=[[0,0.5],[1,0.5]];portConstraint=eastwest;fontSize=16;whiteSpace=wrap;html=1;align=center;verticalAlign=middle;movable=1;resizable=1;deletable=1;editable=1;locked=0;connectable=1;" parent="BGO1QoiUC6lwQhX8ezDE-342" vertex="1">
          <mxGeometry x="30" y="130.0000000000001" width="120" height="50" as="geometry" />
        </mxCell>
        <mxCell id="BGO1QoiUC6lwQhX8ezDE-347" value="R58 000&lt;span style=&quot;font-size: medium; text-align: start;&quot;&gt;&lt;/span&gt;" style="text;strokeColor=none;fillColor=none;spacingLeft=4;spacingRight=4;overflow=hidden;rotatable=1;points=[[0,0.5],[1,0.5]];portConstraint=eastwest;fontSize=16;whiteSpace=wrap;html=1;align=center;verticalAlign=middle;movable=1;resizable=1;deletable=1;editable=1;locked=0;connectable=1;" parent="BGO1QoiUC6lwQhX8ezDE-342" vertex="1">
          <mxGeometry x="30" y="80.00000000000011" width="120" height="50" as="geometry" />
        </mxCell>
        <mxCell id="BGO1QoiUC6lwQhX8ezDE-348" value="" style="endArrow=none;html=1;rounded=0;verticalAlign=top;fontSize=30;strokeWidth=3;movable=1;resizable=1;rotatable=1;deletable=1;editable=1;locked=0;connectable=1;" parent="BGO1QoiUC6lwQhX8ezDE-342" edge="1">
          <mxGeometry relative="1" as="geometry">
            <mxPoint y="80.00000000000011" as="sourcePoint" />
            <mxPoint x="180" y="80.00000000000011" as="targetPoint" />
          </mxGeometry>
        </mxCell>
        <mxCell id="BGO1QoiUC6lwQhX8ezDE-349" value="" style="group;movable=1;resizable=1;rotatable=1;deletable=1;editable=1;locked=0;connectable=1;" parent="1" vertex="1" connectable="0">
          <mxGeometry x="460" y="787" width="180" height="180.0000000000001" as="geometry" />
        </mxCell>
        <mxCell id="BGO1QoiUC6lwQhX8ezDE-367" style="edgeStyle=orthogonalEdgeStyle;rounded=0;orthogonalLoop=1;jettySize=auto;html=1;exitX=0.5;exitY=0;exitDx=0;exitDy=0;strokeWidth=6;endArrow=none;endFill=0;movable=1;resizable=1;rotatable=1;deletable=1;editable=1;locked=0;connectable=1;" parent="BGO1QoiUC6lwQhX8ezDE-349" source="BGO1QoiUC6lwQhX8ezDE-350" edge="1">
          <mxGeometry relative="1" as="geometry">
            <mxPoint x="-130" y="-77" as="targetPoint" />
            <Array as="points">
              <mxPoint x="90" y="-37" />
              <mxPoint x="-130" y="-37" />
            </Array>
          </mxGeometry>
        </mxCell>
        <mxCell id="BGO1QoiUC6lwQhX8ezDE-350" value="Scope Approval from Key Stakeholders" style="whiteSpace=wrap;rounded=1;fillColor=#ffcd28;strokeColor=#d79b00;shadow=1;fontStyle=0;gradientColor=#ffa500;verticalAlign=top;strokeWidth=4;movable=1;resizable=1;rotatable=1;deletable=1;editable=1;locked=0;connectable=1;" parent="BGO1QoiUC6lwQhX8ezDE-349" vertex="1">
          <mxGeometry y="30.000000000000114" width="180" height="150" as="geometry" />
        </mxCell>
        <mxCell id="BGO1QoiUC6lwQhX8ezDE-351" value="&lt;font style=&quot;font-size: 18px;&quot;&gt;1.1.3&lt;/font&gt;" style="text;html=1;strokeColor=none;fillColor=none;align=center;verticalAlign=top;whiteSpace=wrap;rounded=0;movable=1;resizable=1;rotatable=1;deletable=1;editable=1;locked=0;connectable=1;" parent="BGO1QoiUC6lwQhX8ezDE-349" vertex="1">
          <mxGeometry x="135" width="45" height="30" as="geometry" />
        </mxCell>
        <mxCell id="BGO1QoiUC6lwQhX8ezDE-352" value="" style="endArrow=none;html=1;rounded=0;verticalAlign=top;fontSize=30;strokeWidth=3;exitX=0;exitY=0.5;exitDx=0;exitDy=0;movable=1;resizable=1;rotatable=1;deletable=1;editable=1;locked=0;connectable=1;" parent="BGO1QoiUC6lwQhX8ezDE-349" edge="1">
          <mxGeometry relative="1" as="geometry">
            <mxPoint y="130.0000000000001" as="sourcePoint" />
            <mxPoint x="180" y="130.0000000000001" as="targetPoint" />
          </mxGeometry>
        </mxCell>
        <mxCell id="BGO1QoiUC6lwQhX8ezDE-353" value="Amari&lt;span style=&quot;font-size: medium; text-align: start;&quot;&gt;&lt;/span&gt;" style="text;strokeColor=none;fillColor=none;spacingLeft=4;spacingRight=4;overflow=hidden;rotatable=1;points=[[0,0.5],[1,0.5]];portConstraint=eastwest;fontSize=16;whiteSpace=wrap;html=1;align=center;verticalAlign=middle;movable=1;resizable=1;deletable=1;editable=1;locked=0;connectable=1;" parent="BGO1QoiUC6lwQhX8ezDE-349" vertex="1">
          <mxGeometry x="30" y="130.0000000000001" width="120" height="50" as="geometry" />
        </mxCell>
        <mxCell id="BGO1QoiUC6lwQhX8ezDE-354" value="R58 000&lt;span style=&quot;font-size: medium; text-align: start;&quot;&gt;&lt;/span&gt;" style="text;strokeColor=none;fillColor=none;spacingLeft=4;spacingRight=4;overflow=hidden;rotatable=1;points=[[0,0.5],[1,0.5]];portConstraint=eastwest;fontSize=16;whiteSpace=wrap;html=1;align=center;verticalAlign=middle;movable=1;resizable=1;deletable=1;editable=1;locked=0;connectable=1;" parent="BGO1QoiUC6lwQhX8ezDE-349" vertex="1">
          <mxGeometry x="30" y="80.00000000000011" width="120" height="50" as="geometry" />
        </mxCell>
        <mxCell id="BGO1QoiUC6lwQhX8ezDE-355" value="" style="endArrow=none;html=1;rounded=0;verticalAlign=top;fontSize=30;strokeWidth=3;movable=1;resizable=1;rotatable=1;deletable=1;editable=1;locked=0;connectable=1;" parent="BGO1QoiUC6lwQhX8ezDE-349" edge="1">
          <mxGeometry relative="1" as="geometry">
            <mxPoint y="80.00000000000011" as="sourcePoint" />
            <mxPoint x="180" y="80.00000000000011" as="targetPoint" />
          </mxGeometry>
        </mxCell>
        <mxCell id="BGO1QoiUC6lwQhX8ezDE-366" style="edgeStyle=orthogonalEdgeStyle;rounded=0;orthogonalLoop=1;jettySize=auto;html=1;exitX=0.5;exitY=0;exitDx=0;exitDy=0;entryX=0.5;entryY=1;entryDx=0;entryDy=0;strokeWidth=6;endArrow=none;endFill=0;movable=1;resizable=1;rotatable=1;deletable=1;editable=1;locked=0;connectable=1;" parent="1" source="BGO1QoiUC6lwQhX8ezDE-343" target="BGO1QoiUC6lwQhX8ezDE-357" edge="1">
          <mxGeometry relative="1" as="geometry">
            <Array as="points">
              <mxPoint x="330" y="676" />
              <mxPoint x="330" y="676" />
            </Array>
          </mxGeometry>
        </mxCell>
        <mxCell id="Yl3m7NVMGg6Dee1x0JeU-328" value="" style="group" parent="1" vertex="1" connectable="0">
          <mxGeometry x="1450" y="209.9999999999999" width="2580" height="757.0000000000002" as="geometry" />
        </mxCell>
        <mxCell id="Yl3m7NVMGg6Dee1x0JeU-329" value="" style="group" parent="Yl3m7NVMGg6Dee1x0JeU-328" vertex="1" connectable="0">
          <mxGeometry x="-80" y="276" width="620" height="437.0000000000001" as="geometry" />
        </mxCell>
        <mxCell id="Yl3m7NVMGg6Dee1x0JeU-330" value="" style="group" parent="Yl3m7NVMGg6Dee1x0JeU-329" vertex="1" connectable="0">
          <mxGeometry x="220" width="180" height="180.0000000000001" as="geometry" />
        </mxCell>
        <mxCell id="Yl3m7NVMGg6Dee1x0JeU-331" value="Plan &#xa;Development " style="whiteSpace=wrap;rounded=1;fillColor=#fff2cc;strokeColor=#d6b656;shadow=1;fontStyle=1;gradientColor=#ffd966;verticalAlign=top;strokeWidth=4;fontSize=16;" parent="Yl3m7NVMGg6Dee1x0JeU-330" vertex="1">
          <mxGeometry y="30.000000000000114" width="180" height="150" as="geometry" />
        </mxCell>
        <mxCell id="Yl3m7NVMGg6Dee1x0JeU-332" value="&lt;font style=&quot;font-size: 18px;&quot;&gt;2.1&lt;/font&gt;" style="text;html=1;strokeColor=none;fillColor=none;align=center;verticalAlign=top;whiteSpace=wrap;rounded=0;" parent="Yl3m7NVMGg6Dee1x0JeU-330" vertex="1">
          <mxGeometry x="135" width="45" height="30" as="geometry" />
        </mxCell>
        <mxCell id="Yl3m7NVMGg6Dee1x0JeU-333" value="" style="endArrow=none;html=1;rounded=0;verticalAlign=top;fontSize=30;strokeWidth=3;exitX=0;exitY=0.5;exitDx=0;exitDy=0;" parent="Yl3m7NVMGg6Dee1x0JeU-330" edge="1">
          <mxGeometry relative="1" as="geometry">
            <mxPoint y="130.0000000000001" as="sourcePoint" />
            <mxPoint x="180" y="130.0000000000001" as="targetPoint" />
          </mxGeometry>
        </mxCell>
        <mxCell id="Yl3m7NVMGg6Dee1x0JeU-334" value="Leah&lt;span style=&quot;font-size: medium; text-align: start;&quot;&gt;&lt;/span&gt;" style="text;strokeColor=none;fillColor=none;spacingLeft=4;spacingRight=4;overflow=hidden;rotatable=0;points=[[0,0.5],[1,0.5]];portConstraint=eastwest;fontSize=16;whiteSpace=wrap;html=1;align=center;verticalAlign=middle;" parent="Yl3m7NVMGg6Dee1x0JeU-330" vertex="1">
          <mxGeometry x="30" y="130.0000000000001" width="120" height="50" as="geometry" />
        </mxCell>
        <mxCell id="Yl3m7NVMGg6Dee1x0JeU-335" value="R175 000&lt;span style=&quot;font-size: medium; text-align: start;&quot;&gt;&lt;/span&gt;" style="text;strokeColor=none;fillColor=none;spacingLeft=4;spacingRight=4;overflow=hidden;rotatable=0;points=[[0,0.5],[1,0.5]];portConstraint=eastwest;fontSize=16;whiteSpace=wrap;html=1;align=center;verticalAlign=middle;" parent="Yl3m7NVMGg6Dee1x0JeU-330" vertex="1">
          <mxGeometry x="30" y="80.00000000000011" width="120" height="50" as="geometry" />
        </mxCell>
        <mxCell id="Yl3m7NVMGg6Dee1x0JeU-336" value="" style="endArrow=none;html=1;rounded=0;verticalAlign=top;fontSize=30;strokeWidth=3;" parent="Yl3m7NVMGg6Dee1x0JeU-330" edge="1">
          <mxGeometry relative="1" as="geometry">
            <mxPoint y="80.00000000000011" as="sourcePoint" />
            <mxPoint x="180" y="80.00000000000011" as="targetPoint" />
          </mxGeometry>
        </mxCell>
        <mxCell id="Yl3m7NVMGg6Dee1x0JeU-345" value="" style="group" parent="Yl3m7NVMGg6Dee1x0JeU-328" vertex="1" connectable="0">
          <mxGeometry x="490" y="-10" width="180" height="180.0000000000001" as="geometry" />
        </mxCell>
        <mxCell id="Yl3m7NVMGg6Dee1x0JeU-642" style="edgeStyle=orthogonalEdgeStyle;rounded=0;orthogonalLoop=1;jettySize=auto;html=1;exitX=0.5;exitY=0;exitDx=0;exitDy=0;endArrow=none;endFill=0;strokeWidth=6;" parent="Yl3m7NVMGg6Dee1x0JeU-345" source="Yl3m7NVMGg6Dee1x0JeU-346" edge="1">
          <mxGeometry relative="1" as="geometry">
            <mxPoint x="90" y="-79.99999999999989" as="targetPoint" />
          </mxGeometry>
        </mxCell>
        <mxCell id="Yl3m7NVMGg6Dee1x0JeU-346" value="Communication &#xa;Plan" style="whiteSpace=wrap;rounded=1;fillColor=#d5e8d4;strokeColor=#82b366;shadow=1;fontStyle=1;gradientColor=#97d077;verticalAlign=top;strokeWidth=4;fontSize=16;" parent="Yl3m7NVMGg6Dee1x0JeU-345" vertex="1">
          <mxGeometry y="30.000000000000114" width="180" height="150" as="geometry" />
        </mxCell>
        <mxCell id="Yl3m7NVMGg6Dee1x0JeU-347" value="&lt;font style=&quot;font-size: 18px;&quot;&gt;2&lt;/font&gt;" style="text;html=1;strokeColor=none;fillColor=none;align=center;verticalAlign=top;whiteSpace=wrap;rounded=0;" parent="Yl3m7NVMGg6Dee1x0JeU-345" vertex="1">
          <mxGeometry x="135" width="45" height="30" as="geometry" />
        </mxCell>
        <mxCell id="Yl3m7NVMGg6Dee1x0JeU-348" value="" style="endArrow=none;html=1;rounded=0;verticalAlign=top;fontSize=30;strokeWidth=3;exitX=0;exitY=0.5;exitDx=0;exitDy=0;" parent="Yl3m7NVMGg6Dee1x0JeU-345" edge="1">
          <mxGeometry relative="1" as="geometry">
            <mxPoint y="130.0000000000001" as="sourcePoint" />
            <mxPoint x="180" y="130.0000000000001" as="targetPoint" />
          </mxGeometry>
        </mxCell>
        <mxCell id="Yl3m7NVMGg6Dee1x0JeU-349" value="Lwazi&lt;span style=&quot;font-size: medium; text-align: start;&quot;&gt;&lt;/span&gt;" style="text;strokeColor=none;fillColor=none;spacingLeft=4;spacingRight=4;overflow=hidden;rotatable=0;points=[[0,0.5],[1,0.5]];portConstraint=eastwest;fontSize=16;whiteSpace=wrap;html=1;align=center;verticalAlign=middle;" parent="Yl3m7NVMGg6Dee1x0JeU-345" vertex="1">
          <mxGeometry x="30" y="130.0000000000001" width="120" height="50" as="geometry" />
        </mxCell>
        <mxCell id="Yl3m7NVMGg6Dee1x0JeU-350" value="350 000" style="text;strokeColor=none;fillColor=none;spacingLeft=4;spacingRight=4;overflow=hidden;rotatable=0;points=[[0,0.5],[1,0.5]];portConstraint=eastwest;fontSize=16;whiteSpace=wrap;html=1;align=center;verticalAlign=middle;" parent="Yl3m7NVMGg6Dee1x0JeU-345" vertex="1">
          <mxGeometry x="30" y="80.00000000000011" width="120" height="50" as="geometry" />
        </mxCell>
        <mxCell id="Yl3m7NVMGg6Dee1x0JeU-351" value="" style="endArrow=none;html=1;rounded=0;verticalAlign=top;fontSize=30;strokeWidth=3;" parent="Yl3m7NVMGg6Dee1x0JeU-345" edge="1">
          <mxGeometry relative="1" as="geometry">
            <mxPoint y="80.00000000000011" as="sourcePoint" />
            <mxPoint x="180" y="80.00000000000011" as="targetPoint" />
          </mxGeometry>
        </mxCell>
        <mxCell id="Yl3m7NVMGg6Dee1x0JeU-352" style="edgeStyle=orthogonalEdgeStyle;rounded=0;orthogonalLoop=1;jettySize=auto;html=1;exitX=0.5;exitY=0;exitDx=0;exitDy=0;entryX=0.495;entryY=1.018;entryDx=0;entryDy=0;entryPerimeter=0;strokeWidth=6;endArrow=none;endFill=0;" parent="Yl3m7NVMGg6Dee1x0JeU-328" source="Yl3m7NVMGg6Dee1x0JeU-331" target="Yl3m7NVMGg6Dee1x0JeU-349" edge="1">
          <mxGeometry relative="1" as="geometry">
            <mxPoint x="570" y="190.0000000000001" as="targetPoint" />
            <Array as="points">
              <mxPoint x="230" y="250" />
              <mxPoint x="579" y="250" />
            </Array>
          </mxGeometry>
        </mxCell>
        <mxCell id="Yl3m7NVMGg6Dee1x0JeU-353" style="edgeStyle=orthogonalEdgeStyle;rounded=0;orthogonalLoop=1;jettySize=auto;html=1;exitX=0.5;exitY=0;exitDx=0;exitDy=0;entryX=0.485;entryY=1.016;entryDx=0;entryDy=0;entryPerimeter=0;strokeWidth=6;endArrow=none;endFill=0;" parent="Yl3m7NVMGg6Dee1x0JeU-328" source="Yl3m7NVMGg6Dee1x0JeU-339" target="Yl3m7NVMGg6Dee1x0JeU-349" edge="1">
          <mxGeometry relative="1" as="geometry">
            <mxPoint x="570" y="180.0000000000001" as="targetPoint" />
            <Array as="points">
              <mxPoint x="890" y="250" />
              <mxPoint x="578" y="250" />
            </Array>
          </mxGeometry>
        </mxCell>
        <mxCell id="Yl3m7NVMGg6Dee1x0JeU-337" value="" style="group" parent="Yl3m7NVMGg6Dee1x0JeU-328" vertex="1" connectable="0">
          <mxGeometry x="580" y="276" width="620" height="437.0000000000001" as="geometry" />
        </mxCell>
        <mxCell id="Yl3m7NVMGg6Dee1x0JeU-338" value="" style="group" parent="Yl3m7NVMGg6Dee1x0JeU-337" vertex="1" connectable="0">
          <mxGeometry x="220" width="180" height="180.0000000000001" as="geometry" />
        </mxCell>
        <mxCell id="Yl3m7NVMGg6Dee1x0JeU-339" value="Plan &#xa;Implementation" style="whiteSpace=wrap;rounded=1;fillColor=#fff2cc;strokeColor=#d6b656;shadow=1;fontStyle=1;gradientColor=#ffd966;verticalAlign=top;strokeWidth=4;fontSize=16;" parent="Yl3m7NVMGg6Dee1x0JeU-338" vertex="1">
          <mxGeometry y="30.000000000000114" width="180" height="150" as="geometry" />
        </mxCell>
        <mxCell id="Yl3m7NVMGg6Dee1x0JeU-340" value="&lt;font style=&quot;font-size: 18px;&quot;&gt;2.2&lt;/font&gt;" style="text;html=1;strokeColor=none;fillColor=none;align=center;verticalAlign=top;whiteSpace=wrap;rounded=0;" parent="Yl3m7NVMGg6Dee1x0JeU-338" vertex="1">
          <mxGeometry x="135" width="45" height="30" as="geometry" />
        </mxCell>
        <mxCell id="Yl3m7NVMGg6Dee1x0JeU-341" value="" style="endArrow=none;html=1;rounded=0;verticalAlign=top;fontSize=30;strokeWidth=3;exitX=0;exitY=0.5;exitDx=0;exitDy=0;" parent="Yl3m7NVMGg6Dee1x0JeU-338" edge="1">
          <mxGeometry relative="1" as="geometry">
            <mxPoint y="130.0000000000001" as="sourcePoint" />
            <mxPoint x="180" y="130.0000000000001" as="targetPoint" />
          </mxGeometry>
        </mxCell>
        <mxCell id="Yl3m7NVMGg6Dee1x0JeU-342" value="Levi&lt;span style=&quot;font-size: medium; text-align: start;&quot;&gt;&lt;/span&gt;" style="text;strokeColor=none;fillColor=none;spacingLeft=4;spacingRight=4;overflow=hidden;rotatable=0;points=[[0,0.5],[1,0.5]];portConstraint=eastwest;fontSize=16;whiteSpace=wrap;html=1;align=center;verticalAlign=middle;" parent="Yl3m7NVMGg6Dee1x0JeU-338" vertex="1">
          <mxGeometry x="30" y="130.0000000000001" width="120" height="50" as="geometry" />
        </mxCell>
        <mxCell id="Yl3m7NVMGg6Dee1x0JeU-343" value="R175 000&lt;span style=&quot;font-size: medium; text-align: start;&quot;&gt;&lt;/span&gt;" style="text;strokeColor=none;fillColor=none;spacingLeft=4;spacingRight=4;overflow=hidden;rotatable=0;points=[[0,0.5],[1,0.5]];portConstraint=eastwest;fontSize=16;whiteSpace=wrap;html=1;align=center;verticalAlign=middle;" parent="Yl3m7NVMGg6Dee1x0JeU-338" vertex="1">
          <mxGeometry x="30" y="80.00000000000011" width="120" height="50" as="geometry" />
        </mxCell>
        <mxCell id="Yl3m7NVMGg6Dee1x0JeU-344" value="" style="endArrow=none;html=1;rounded=0;verticalAlign=top;fontSize=30;strokeWidth=3;" parent="Yl3m7NVMGg6Dee1x0JeU-338" edge="1">
          <mxGeometry relative="1" as="geometry">
            <mxPoint y="80.00000000000011" as="sourcePoint" />
            <mxPoint x="180" y="80.00000000000011" as="targetPoint" />
          </mxGeometry>
        </mxCell>
        <mxCell id="Yl3m7NVMGg6Dee1x0JeU-377" value="" style="group" parent="Yl3m7NVMGg6Dee1x0JeU-328" vertex="1" connectable="0">
          <mxGeometry x="580" y="575.62" width="180" height="180.0000000000001" as="geometry" />
        </mxCell>
        <mxCell id="Yl3m7NVMGg6Dee1x0JeU-378" style="rounded=0;orthogonalLoop=1;jettySize=auto;html=1;exitX=0.5;exitY=0;exitDx=0;exitDy=0;endArrow=none;endFill=0;strokeWidth=6;edgeStyle=orthogonalEdgeStyle;" parent="Yl3m7NVMGg6Dee1x0JeU-377" source="Yl3m7NVMGg6Dee1x0JeU-379" edge="1">
          <mxGeometry relative="1" as="geometry">
            <mxPoint x="310" y="-75.61999999999989" as="targetPoint" />
            <Array as="points">
              <mxPoint x="90" y="-36" />
              <mxPoint x="310" y="-36" />
            </Array>
          </mxGeometry>
        </mxCell>
        <mxCell id="Yl3m7NVMGg6Dee1x0JeU-379" value="Implement Communication Channels" style="whiteSpace=wrap;rounded=1;fillColor=#ffcd28;strokeColor=#d79b00;shadow=1;fontStyle=0;gradientColor=#ffa500;verticalAlign=top;strokeWidth=4;" parent="Yl3m7NVMGg6Dee1x0JeU-377" vertex="1">
          <mxGeometry y="30.000000000000114" width="180" height="150" as="geometry" />
        </mxCell>
        <mxCell id="Yl3m7NVMGg6Dee1x0JeU-380" value="&lt;font style=&quot;font-size: 18px;&quot;&gt;2.2.1&lt;/font&gt;" style="text;html=1;strokeColor=none;fillColor=none;align=center;verticalAlign=top;whiteSpace=wrap;rounded=0;" parent="Yl3m7NVMGg6Dee1x0JeU-377" vertex="1">
          <mxGeometry x="135" width="45" height="30" as="geometry" />
        </mxCell>
        <mxCell id="Yl3m7NVMGg6Dee1x0JeU-381" value="" style="endArrow=none;html=1;rounded=0;verticalAlign=top;fontSize=30;strokeWidth=3;exitX=0;exitY=0.5;exitDx=0;exitDy=0;" parent="Yl3m7NVMGg6Dee1x0JeU-377" edge="1">
          <mxGeometry relative="1" as="geometry">
            <mxPoint y="130.0000000000001" as="sourcePoint" />
            <mxPoint x="180" y="130.0000000000001" as="targetPoint" />
          </mxGeometry>
        </mxCell>
        <mxCell id="Yl3m7NVMGg6Dee1x0JeU-382" value="Lennon&lt;span style=&quot;font-size: medium; text-align: start;&quot;&gt;&lt;/span&gt;" style="text;strokeColor=none;fillColor=none;spacingLeft=4;spacingRight=4;overflow=hidden;rotatable=0;points=[[0,0.5],[1,0.5]];portConstraint=eastwest;fontSize=16;whiteSpace=wrap;html=1;align=center;verticalAlign=middle;" parent="Yl3m7NVMGg6Dee1x0JeU-377" vertex="1">
          <mxGeometry x="30" y="130.0000000000001" width="120" height="50" as="geometry" />
        </mxCell>
        <mxCell id="Yl3m7NVMGg6Dee1x0JeU-383" value="R59 000" style="text;strokeColor=none;fillColor=none;spacingLeft=4;spacingRight=4;overflow=hidden;rotatable=0;points=[[0,0.5],[1,0.5]];portConstraint=eastwest;fontSize=16;whiteSpace=wrap;html=1;align=center;verticalAlign=middle;" parent="Yl3m7NVMGg6Dee1x0JeU-377" vertex="1">
          <mxGeometry x="30" y="80.00000000000011" width="120" height="50" as="geometry" />
        </mxCell>
        <mxCell id="Yl3m7NVMGg6Dee1x0JeU-384" value="" style="endArrow=none;html=1;rounded=0;verticalAlign=top;fontSize=30;strokeWidth=3;" parent="Yl3m7NVMGg6Dee1x0JeU-377" edge="1">
          <mxGeometry relative="1" as="geometry">
            <mxPoint y="80.00000000000011" as="sourcePoint" />
            <mxPoint x="180" y="80.00000000000011" as="targetPoint" />
          </mxGeometry>
        </mxCell>
        <mxCell id="Yl3m7NVMGg6Dee1x0JeU-385" value="" style="group" parent="Yl3m7NVMGg6Dee1x0JeU-328" vertex="1" connectable="0">
          <mxGeometry x="800" y="577.0000000000001" width="180" height="180.0000000000001" as="geometry" />
        </mxCell>
        <mxCell id="Yl3m7NVMGg6Dee1x0JeU-386" value="Ensure Ongoing Stakeholder&#xa;Engagement and Information " style="whiteSpace=wrap;rounded=1;fillColor=#ffcd28;strokeColor=#d79b00;shadow=1;fontStyle=0;gradientColor=#ffa500;verticalAlign=top;strokeWidth=4;" parent="Yl3m7NVMGg6Dee1x0JeU-385" vertex="1">
          <mxGeometry y="30.000000000000114" width="180" height="150" as="geometry" />
        </mxCell>
        <mxCell id="Yl3m7NVMGg6Dee1x0JeU-387" value="&lt;font style=&quot;font-size: 18px;&quot;&gt;2.2.2&lt;/font&gt;" style="text;html=1;strokeColor=none;fillColor=none;align=center;verticalAlign=top;whiteSpace=wrap;rounded=0;" parent="Yl3m7NVMGg6Dee1x0JeU-385" vertex="1">
          <mxGeometry x="135" width="45" height="30" as="geometry" />
        </mxCell>
        <mxCell id="Yl3m7NVMGg6Dee1x0JeU-388" value="" style="endArrow=none;html=1;rounded=0;verticalAlign=top;fontSize=30;strokeWidth=3;exitX=0;exitY=0.5;exitDx=0;exitDy=0;" parent="Yl3m7NVMGg6Dee1x0JeU-385" edge="1">
          <mxGeometry relative="1" as="geometry">
            <mxPoint y="130.0000000000001" as="sourcePoint" />
            <mxPoint x="180" y="130.0000000000001" as="targetPoint" />
          </mxGeometry>
        </mxCell>
        <mxCell id="Yl3m7NVMGg6Dee1x0JeU-389" value="Layla&lt;span style=&quot;font-size: medium; text-align: start;&quot;&gt;&lt;/span&gt;" style="text;strokeColor=none;fillColor=none;spacingLeft=4;spacingRight=4;overflow=hidden;rotatable=0;points=[[0,0.5],[1,0.5]];portConstraint=eastwest;fontSize=16;whiteSpace=wrap;html=1;align=center;verticalAlign=middle;" parent="Yl3m7NVMGg6Dee1x0JeU-385" vertex="1">
          <mxGeometry x="30" y="130.0000000000001" width="120" height="50" as="geometry" />
        </mxCell>
        <mxCell id="Yl3m7NVMGg6Dee1x0JeU-390" value="R58 000&lt;span style=&quot;font-size: medium; text-align: start;&quot;&gt;&lt;/span&gt;" style="text;strokeColor=none;fillColor=none;spacingLeft=4;spacingRight=4;overflow=hidden;rotatable=0;points=[[0,0.5],[1,0.5]];portConstraint=eastwest;fontSize=16;whiteSpace=wrap;html=1;align=center;verticalAlign=middle;" parent="Yl3m7NVMGg6Dee1x0JeU-385" vertex="1">
          <mxGeometry x="30" y="80.00000000000011" width="120" height="50" as="geometry" />
        </mxCell>
        <mxCell id="Yl3m7NVMGg6Dee1x0JeU-391" value="" style="endArrow=none;html=1;rounded=0;verticalAlign=top;fontSize=30;strokeWidth=3;" parent="Yl3m7NVMGg6Dee1x0JeU-385" edge="1">
          <mxGeometry relative="1" as="geometry">
            <mxPoint y="80.00000000000011" as="sourcePoint" />
            <mxPoint x="180" y="80.00000000000011" as="targetPoint" />
          </mxGeometry>
        </mxCell>
        <mxCell id="Yl3m7NVMGg6Dee1x0JeU-392" style="edgeStyle=orthogonalEdgeStyle;rounded=0;orthogonalLoop=1;jettySize=auto;html=1;exitX=0.5;exitY=0;exitDx=0;exitDy=0;entryX=0.5;entryY=1;entryDx=0;entryDy=0;strokeWidth=6;endArrow=none;endFill=0;" parent="Yl3m7NVMGg6Dee1x0JeU-328" source="Yl3m7NVMGg6Dee1x0JeU-386" edge="1">
          <mxGeometry relative="1" as="geometry">
            <Array as="points">
              <mxPoint x="890" y="510.0000000000001" />
              <mxPoint x="890" y="510.0000000000001" />
            </Array>
            <mxPoint x="890" y="500.0000000000001" as="targetPoint" />
          </mxGeometry>
        </mxCell>
        <mxCell id="Yl3m7NVMGg6Dee1x0JeU-393" value="" style="group" parent="Yl3m7NVMGg6Dee1x0JeU-328" vertex="1" connectable="0">
          <mxGeometry x="1020" y="577.0000000000001" width="180" height="180.0000000000001" as="geometry" />
        </mxCell>
        <mxCell id="Yl3m7NVMGg6Dee1x0JeU-394" value="Adjust Communication Tactics Based on Stakeholder Feedback " style="whiteSpace=wrap;rounded=1;fillColor=#ffcd28;strokeColor=#d79b00;shadow=1;fontStyle=0;gradientColor=#ffa500;verticalAlign=top;strokeWidth=4;fontSize=11;" parent="Yl3m7NVMGg6Dee1x0JeU-393" vertex="1">
          <mxGeometry y="30.000000000000114" width="180" height="150" as="geometry" />
        </mxCell>
        <mxCell id="Yl3m7NVMGg6Dee1x0JeU-395" value="&lt;font style=&quot;font-size: 18px;&quot;&gt;2.2.3&lt;/font&gt;" style="text;html=1;strokeColor=none;fillColor=none;align=center;verticalAlign=top;whiteSpace=wrap;rounded=0;" parent="Yl3m7NVMGg6Dee1x0JeU-393" vertex="1">
          <mxGeometry x="135" width="45" height="30" as="geometry" />
        </mxCell>
        <mxCell id="Yl3m7NVMGg6Dee1x0JeU-396" value="" style="endArrow=none;html=1;rounded=0;verticalAlign=top;fontSize=30;strokeWidth=3;exitX=0;exitY=0.5;exitDx=0;exitDy=0;" parent="Yl3m7NVMGg6Dee1x0JeU-393" edge="1">
          <mxGeometry relative="1" as="geometry">
            <mxPoint y="130.0000000000001" as="sourcePoint" />
            <mxPoint x="180" y="130.0000000000001" as="targetPoint" />
          </mxGeometry>
        </mxCell>
        <mxCell id="Yl3m7NVMGg6Dee1x0JeU-397" value="Leo" style="text;strokeColor=none;fillColor=none;spacingLeft=4;spacingRight=4;overflow=hidden;rotatable=0;points=[[0,0.5],[1,0.5]];portConstraint=eastwest;fontSize=16;whiteSpace=wrap;html=1;align=center;verticalAlign=middle;" parent="Yl3m7NVMGg6Dee1x0JeU-393" vertex="1">
          <mxGeometry x="30" y="130.0000000000001" width="120" height="50" as="geometry" />
        </mxCell>
        <mxCell id="Yl3m7NVMGg6Dee1x0JeU-398" value="R58 000&lt;span style=&quot;font-size: medium; text-align: start;&quot;&gt;&lt;/span&gt;" style="text;strokeColor=none;fillColor=none;spacingLeft=4;spacingRight=4;overflow=hidden;rotatable=0;points=[[0,0.5],[1,0.5]];portConstraint=eastwest;fontSize=16;whiteSpace=wrap;html=1;align=center;verticalAlign=middle;" parent="Yl3m7NVMGg6Dee1x0JeU-393" vertex="1">
          <mxGeometry x="30" y="80.00000000000011" width="120" height="50" as="geometry" />
        </mxCell>
        <mxCell id="Yl3m7NVMGg6Dee1x0JeU-399" value="" style="endArrow=none;html=1;rounded=0;verticalAlign=top;fontSize=30;strokeWidth=3;" parent="Yl3m7NVMGg6Dee1x0JeU-393" edge="1">
          <mxGeometry relative="1" as="geometry">
            <mxPoint y="80.00000000000011" as="sourcePoint" />
            <mxPoint x="180" y="80.00000000000011" as="targetPoint" />
          </mxGeometry>
        </mxCell>
        <mxCell id="Yl3m7NVMGg6Dee1x0JeU-401" style="edgeStyle=orthogonalEdgeStyle;rounded=0;orthogonalLoop=1;jettySize=auto;html=1;exitX=0.5;exitY=0;exitDx=0;exitDy=0;strokeWidth=6;endArrow=none;endFill=0;entryX=0.501;entryY=0.979;entryDx=0;entryDy=0;entryPerimeter=0;" parent="Yl3m7NVMGg6Dee1x0JeU-328" source="Yl3m7NVMGg6Dee1x0JeU-394" target="Yl3m7NVMGg6Dee1x0JeU-342" edge="1">
          <mxGeometry relative="1" as="geometry">
            <mxPoint x="890" y="500.0000000000001" as="targetPoint" />
            <Array as="points">
              <mxPoint x="1110" y="540.0000000000001" />
              <mxPoint x="890" y="540.0000000000001" />
            </Array>
          </mxGeometry>
        </mxCell>
        <mxCell id="Yl3m7NVMGg6Dee1x0JeU-406" value="" style="group" parent="Yl3m7NVMGg6Dee1x0JeU-328" vertex="1" connectable="0">
          <mxGeometry x="1280" width="1300" height="713.0000000000001" as="geometry" />
        </mxCell>
        <mxCell id="Yl3m7NVMGg6Dee1x0JeU-407" value="" style="group" parent="Yl3m7NVMGg6Dee1x0JeU-406" vertex="1" connectable="0">
          <mxGeometry y="276" width="620" height="437.0000000000001" as="geometry" />
        </mxCell>
        <mxCell id="Yl3m7NVMGg6Dee1x0JeU-408" value="" style="group" parent="Yl3m7NVMGg6Dee1x0JeU-407" vertex="1" connectable="0">
          <mxGeometry x="220" width="200" height="180.00000000000023" as="geometry" />
        </mxCell>
        <mxCell id="Yl3m7NVMGg6Dee1x0JeU-409" value="Resource Identification &amp; Procurement " style="whiteSpace=wrap;rounded=1;fillColor=#fff2cc;strokeColor=#d6b656;shadow=1;fontStyle=1;gradientColor=#ffd966;verticalAlign=top;strokeWidth=4;fontSize=15;" parent="Yl3m7NVMGg6Dee1x0JeU-408" vertex="1">
          <mxGeometry x="-10" y="30" width="200" height="150" as="geometry" />
        </mxCell>
        <mxCell id="Yl3m7NVMGg6Dee1x0JeU-410" value="&lt;font style=&quot;font-size: 18px;&quot;&gt;3.1&lt;/font&gt;" style="text;html=1;strokeColor=none;fillColor=none;align=center;verticalAlign=top;whiteSpace=wrap;rounded=0;" parent="Yl3m7NVMGg6Dee1x0JeU-408" vertex="1">
          <mxGeometry x="135" width="45" height="30" as="geometry" />
        </mxCell>
        <mxCell id="Yl3m7NVMGg6Dee1x0JeU-411" value="" style="endArrow=none;html=1;rounded=0;verticalAlign=top;fontSize=30;strokeWidth=3;exitX=0.009;exitY=0.667;exitDx=0;exitDy=0;exitPerimeter=0;entryX=0.997;entryY=0.669;entryDx=0;entryDy=0;entryPerimeter=0;" parent="Yl3m7NVMGg6Dee1x0JeU-408" source="Yl3m7NVMGg6Dee1x0JeU-409" target="Yl3m7NVMGg6Dee1x0JeU-409" edge="1">
          <mxGeometry relative="1" as="geometry">
            <mxPoint y="130.0000000000001" as="sourcePoint" />
            <mxPoint x="180" y="130.0000000000001" as="targetPoint" />
          </mxGeometry>
        </mxCell>
        <mxCell id="Yl3m7NVMGg6Dee1x0JeU-413" value="R125 000&lt;span style=&quot;font-size: medium; text-align: start;&quot;&gt;&lt;/span&gt;" style="text;strokeColor=none;fillColor=none;spacingLeft=4;spacingRight=4;overflow=hidden;rotatable=0;points=[[0,0.5],[1,0.5]];portConstraint=eastwest;fontSize=16;whiteSpace=wrap;html=1;align=center;verticalAlign=middle;" parent="Yl3m7NVMGg6Dee1x0JeU-408" vertex="1">
          <mxGeometry x="30" y="80.00000000000011" width="120" height="50" as="geometry" />
        </mxCell>
        <mxCell id="Yl3m7NVMGg6Dee1x0JeU-414" value="" style="endArrow=none;html=1;rounded=0;verticalAlign=top;fontSize=30;strokeWidth=3;exitX=0.004;exitY=0.325;exitDx=0;exitDy=0;exitPerimeter=0;" parent="Yl3m7NVMGg6Dee1x0JeU-408" source="Yl3m7NVMGg6Dee1x0JeU-409" edge="1">
          <mxGeometry relative="1" as="geometry">
            <mxPoint y="80.00000000000011" as="sourcePoint" />
            <mxPoint x="190" y="79.00000000000011" as="targetPoint" />
          </mxGeometry>
        </mxCell>
        <mxCell id="Yl3m7NVMGg6Dee1x0JeU-644" value="Madison&lt;span style=&quot;font-size: medium; text-align: start;&quot;&gt;&lt;/span&gt;" style="text;strokeColor=none;fillColor=none;spacingLeft=4;spacingRight=4;overflow=hidden;rotatable=0;points=[[0,0.5],[1,0.5]];portConstraint=eastwest;fontSize=16;whiteSpace=wrap;html=1;align=center;verticalAlign=middle;" parent="Yl3m7NVMGg6Dee1x0JeU-408" vertex="1">
          <mxGeometry x="30" y="130.00000000000023" width="120" height="50" as="geometry" />
        </mxCell>
        <mxCell id="Yl3m7NVMGg6Dee1x0JeU-415" value="" style="group" parent="Yl3m7NVMGg6Dee1x0JeU-406" vertex="1" connectable="0">
          <mxGeometry x="680" y="276" width="620" height="437.0000000000001" as="geometry" />
        </mxCell>
        <mxCell id="Yl3m7NVMGg6Dee1x0JeU-416" value="" style="group" parent="Yl3m7NVMGg6Dee1x0JeU-415" vertex="1" connectable="0">
          <mxGeometry x="220" width="180" height="180.0000000000001" as="geometry" />
        </mxCell>
        <mxCell id="Yl3m7NVMGg6Dee1x0JeU-417" value="Resource Allocation and Management" style="whiteSpace=wrap;rounded=1;fillColor=#fff2cc;strokeColor=#d6b656;shadow=1;fontStyle=1;gradientColor=#ffd966;verticalAlign=top;strokeWidth=4;fontSize=16;" parent="Yl3m7NVMGg6Dee1x0JeU-416" vertex="1">
          <mxGeometry y="30.000000000000114" width="180" height="150" as="geometry" />
        </mxCell>
        <mxCell id="Yl3m7NVMGg6Dee1x0JeU-418" value="&lt;font style=&quot;font-size: 18px;&quot;&gt;3.2&lt;/font&gt;" style="text;html=1;strokeColor=none;fillColor=none;align=center;verticalAlign=top;whiteSpace=wrap;rounded=0;" parent="Yl3m7NVMGg6Dee1x0JeU-416" vertex="1">
          <mxGeometry x="135" width="45" height="30" as="geometry" />
        </mxCell>
        <mxCell id="Yl3m7NVMGg6Dee1x0JeU-419" value="" style="endArrow=none;html=1;rounded=0;verticalAlign=top;fontSize=30;strokeWidth=3;exitX=0;exitY=0.5;exitDx=0;exitDy=0;" parent="Yl3m7NVMGg6Dee1x0JeU-416" edge="1">
          <mxGeometry relative="1" as="geometry">
            <mxPoint y="130.0000000000001" as="sourcePoint" />
            <mxPoint x="180" y="130.0000000000001" as="targetPoint" />
          </mxGeometry>
        </mxCell>
        <mxCell id="Yl3m7NVMGg6Dee1x0JeU-420" value="Max&lt;span style=&quot;font-size: medium; text-align: start;&quot;&gt;&lt;/span&gt;" style="text;strokeColor=none;fillColor=none;spacingLeft=4;spacingRight=4;overflow=hidden;rotatable=0;points=[[0,0.5],[1,0.5]];portConstraint=eastwest;fontSize=16;whiteSpace=wrap;html=1;align=center;verticalAlign=middle;" parent="Yl3m7NVMGg6Dee1x0JeU-416" vertex="1">
          <mxGeometry x="30" y="130.0000000000001" width="120" height="50" as="geometry" />
        </mxCell>
        <mxCell id="Yl3m7NVMGg6Dee1x0JeU-421" value="R125 000&lt;span style=&quot;font-size: medium; text-align: start;&quot;&gt;&lt;/span&gt;" style="text;strokeColor=none;fillColor=none;spacingLeft=4;spacingRight=4;overflow=hidden;rotatable=0;points=[[0,0.5],[1,0.5]];portConstraint=eastwest;fontSize=16;whiteSpace=wrap;html=1;align=center;verticalAlign=middle;" parent="Yl3m7NVMGg6Dee1x0JeU-416" vertex="1">
          <mxGeometry x="30" y="80.00000000000011" width="120" height="50" as="geometry" />
        </mxCell>
        <mxCell id="Yl3m7NVMGg6Dee1x0JeU-422" value="" style="endArrow=none;html=1;rounded=0;verticalAlign=top;fontSize=30;strokeWidth=3;" parent="Yl3m7NVMGg6Dee1x0JeU-416" edge="1">
          <mxGeometry relative="1" as="geometry">
            <mxPoint y="80.00000000000011" as="sourcePoint" />
            <mxPoint x="180" y="80.00000000000011" as="targetPoint" />
          </mxGeometry>
        </mxCell>
        <mxCell id="Yl3m7NVMGg6Dee1x0JeU-423" value="" style="group" parent="Yl3m7NVMGg6Dee1x0JeU-406" vertex="1" connectable="0">
          <mxGeometry x="570" y="-10" width="180" height="180.0000000000001" as="geometry" />
        </mxCell>
        <mxCell id="Yl3m7NVMGg6Dee1x0JeU-424" value="Resource Plan" style="whiteSpace=wrap;rounded=1;fillColor=#d5e8d4;strokeColor=#82b366;shadow=1;fontStyle=1;gradientColor=#97d077;verticalAlign=top;strokeWidth=4;fontSize=16;" parent="Yl3m7NVMGg6Dee1x0JeU-423" vertex="1">
          <mxGeometry y="30.000000000000114" width="180" height="150" as="geometry" />
        </mxCell>
        <mxCell id="Yl3m7NVMGg6Dee1x0JeU-425" value="&lt;font style=&quot;font-size: 18px;&quot;&gt;3&lt;/font&gt;" style="text;html=1;strokeColor=none;fillColor=none;align=center;verticalAlign=top;whiteSpace=wrap;rounded=0;" parent="Yl3m7NVMGg6Dee1x0JeU-423" vertex="1">
          <mxGeometry x="135" width="45" height="30" as="geometry" />
        </mxCell>
        <mxCell id="Yl3m7NVMGg6Dee1x0JeU-426" value="" style="endArrow=none;html=1;rounded=0;verticalAlign=top;fontSize=30;strokeWidth=3;exitX=0;exitY=0.5;exitDx=0;exitDy=0;" parent="Yl3m7NVMGg6Dee1x0JeU-423" edge="1">
          <mxGeometry relative="1" as="geometry">
            <mxPoint y="130.0000000000001" as="sourcePoint" />
            <mxPoint x="180" y="130.0000000000001" as="targetPoint" />
          </mxGeometry>
        </mxCell>
        <mxCell id="Yl3m7NVMGg6Dee1x0JeU-427" value="Makabongwe&lt;span style=&quot;font-size: medium; text-align: start;&quot;&gt;&lt;/span&gt;" style="text;strokeColor=none;fillColor=none;spacingLeft=4;spacingRight=4;overflow=hidden;rotatable=0;points=[[0,0.5],[1,0.5]];portConstraint=eastwest;fontSize=16;whiteSpace=wrap;html=1;align=center;verticalAlign=middle;" parent="Yl3m7NVMGg6Dee1x0JeU-423" vertex="1">
          <mxGeometry x="30" y="130.0000000000001" width="120" height="50" as="geometry" />
        </mxCell>
        <mxCell id="Yl3m7NVMGg6Dee1x0JeU-428" value="R250 000&lt;span style=&quot;font-size: medium; text-align: start;&quot;&gt;&lt;/span&gt;" style="text;strokeColor=none;fillColor=none;spacingLeft=4;spacingRight=4;overflow=hidden;rotatable=0;points=[[0,0.5],[1,0.5]];portConstraint=eastwest;fontSize=16;whiteSpace=wrap;html=1;align=center;verticalAlign=middle;" parent="Yl3m7NVMGg6Dee1x0JeU-423" vertex="1">
          <mxGeometry x="30" y="80.00000000000011" width="120" height="50" as="geometry" />
        </mxCell>
        <mxCell id="Yl3m7NVMGg6Dee1x0JeU-429" value="" style="endArrow=none;html=1;rounded=0;verticalAlign=top;fontSize=30;strokeWidth=3;" parent="Yl3m7NVMGg6Dee1x0JeU-423" edge="1">
          <mxGeometry relative="1" as="geometry">
            <mxPoint y="80.00000000000011" as="sourcePoint" />
            <mxPoint x="180" y="80.00000000000011" as="targetPoint" />
          </mxGeometry>
        </mxCell>
        <mxCell id="Yl3m7NVMGg6Dee1x0JeU-430" style="edgeStyle=orthogonalEdgeStyle;rounded=0;orthogonalLoop=1;jettySize=auto;html=1;exitX=0.5;exitY=0;exitDx=0;exitDy=0;entryX=0.495;entryY=1.018;entryDx=0;entryDy=0;entryPerimeter=0;strokeWidth=6;endArrow=none;endFill=0;" parent="Yl3m7NVMGg6Dee1x0JeU-406" source="Yl3m7NVMGg6Dee1x0JeU-409" target="Yl3m7NVMGg6Dee1x0JeU-427" edge="1">
          <mxGeometry relative="1" as="geometry">
            <mxPoint x="650" y="190.0000000000001" as="targetPoint" />
            <Array as="points">
              <mxPoint x="310" y="250" />
              <mxPoint x="659" y="250" />
            </Array>
          </mxGeometry>
        </mxCell>
        <mxCell id="Yl3m7NVMGg6Dee1x0JeU-431" style="edgeStyle=orthogonalEdgeStyle;rounded=0;orthogonalLoop=1;jettySize=auto;html=1;exitX=0.5;exitY=0;exitDx=0;exitDy=0;entryX=0.485;entryY=1.016;entryDx=0;entryDy=0;entryPerimeter=0;strokeWidth=6;endArrow=none;endFill=0;" parent="Yl3m7NVMGg6Dee1x0JeU-406" source="Yl3m7NVMGg6Dee1x0JeU-417" target="Yl3m7NVMGg6Dee1x0JeU-427" edge="1">
          <mxGeometry relative="1" as="geometry">
            <mxPoint x="650" y="180.0000000000001" as="targetPoint" />
            <Array as="points">
              <mxPoint x="990" y="250" />
              <mxPoint x="658" y="250" />
            </Array>
          </mxGeometry>
        </mxCell>
        <mxCell id="Yl3m7NVMGg6Dee1x0JeU-432" value="" style="group;strokeWidth=0;" parent="Yl3m7NVMGg6Dee1x0JeU-328" vertex="1" connectable="0">
          <mxGeometry x="1280" y="577" width="180" height="180.0000000000001" as="geometry" />
        </mxCell>
        <mxCell id="Yl3m7NVMGg6Dee1x0JeU-433" style="rounded=0;orthogonalLoop=1;jettySize=auto;html=1;exitX=0.5;exitY=0;exitDx=0;exitDy=0;endArrow=none;endFill=0;strokeWidth=6;edgeStyle=orthogonalEdgeStyle;" parent="Yl3m7NVMGg6Dee1x0JeU-432" source="Yl3m7NVMGg6Dee1x0JeU-434" edge="1">
          <mxGeometry relative="1" as="geometry">
            <mxPoint x="310" y="-75.61999999999989" as="targetPoint" />
            <Array as="points">
              <mxPoint x="90" y="-36" />
              <mxPoint x="310" y="-36" />
            </Array>
          </mxGeometry>
        </mxCell>
        <mxCell id="Yl3m7NVMGg6Dee1x0JeU-434" value="Identify Human Resources Needed for PWA Development" style="whiteSpace=wrap;rounded=1;fillColor=#ffcd28;strokeColor=#d79b00;shadow=1;fontStyle=0;gradientColor=#ffa500;verticalAlign=top;strokeWidth=4;" parent="Yl3m7NVMGg6Dee1x0JeU-432" vertex="1">
          <mxGeometry y="30.000000000000114" width="180" height="150" as="geometry" />
        </mxCell>
        <mxCell id="Yl3m7NVMGg6Dee1x0JeU-435" value="&lt;font style=&quot;font-size: 18px;&quot;&gt;3.1.1&lt;/font&gt;" style="text;html=1;strokeColor=none;fillColor=none;align=center;verticalAlign=top;whiteSpace=wrap;rounded=0;" parent="Yl3m7NVMGg6Dee1x0JeU-432" vertex="1">
          <mxGeometry x="135" width="45" height="30" as="geometry" />
        </mxCell>
        <mxCell id="Yl3m7NVMGg6Dee1x0JeU-436" value="" style="endArrow=none;html=1;rounded=0;verticalAlign=top;fontSize=30;strokeWidth=3;exitX=0;exitY=0.5;exitDx=0;exitDy=0;" parent="Yl3m7NVMGg6Dee1x0JeU-432" edge="1">
          <mxGeometry relative="1" as="geometry">
            <mxPoint y="130.0000000000001" as="sourcePoint" />
            <mxPoint x="180" y="130.0000000000001" as="targetPoint" />
          </mxGeometry>
        </mxCell>
        <mxCell id="Yl3m7NVMGg6Dee1x0JeU-437" value="Melanie&lt;span style=&quot;font-size: medium; text-align: start;&quot;&gt;&lt;/span&gt;" style="text;strokeColor=none;fillColor=none;spacingLeft=4;spacingRight=4;overflow=hidden;rotatable=0;points=[[0,0.5],[1,0.5]];portConstraint=eastwest;fontSize=16;whiteSpace=wrap;html=1;align=center;verticalAlign=middle;" parent="Yl3m7NVMGg6Dee1x0JeU-432" vertex="1">
          <mxGeometry x="30" y="130.0000000000001" width="120" height="50" as="geometry" />
        </mxCell>
        <mxCell id="Yl3m7NVMGg6Dee1x0JeU-438" value="R50 000&lt;span style=&quot;font-size: medium; text-align: start;&quot;&gt;&lt;/span&gt;" style="text;strokeColor=none;fillColor=none;spacingLeft=4;spacingRight=4;overflow=hidden;rotatable=0;points=[[0,0.5],[1,0.5]];portConstraint=eastwest;fontSize=16;whiteSpace=wrap;html=1;align=center;verticalAlign=middle;" parent="Yl3m7NVMGg6Dee1x0JeU-432" vertex="1">
          <mxGeometry x="30" y="80.00000000000011" width="120" height="50" as="geometry" />
        </mxCell>
        <mxCell id="Yl3m7NVMGg6Dee1x0JeU-439" value="" style="endArrow=none;html=1;rounded=0;verticalAlign=top;fontSize=30;strokeWidth=3;" parent="Yl3m7NVMGg6Dee1x0JeU-432" edge="1">
          <mxGeometry relative="1" as="geometry">
            <mxPoint y="80.00000000000011" as="sourcePoint" />
            <mxPoint x="180" y="80.00000000000011" as="targetPoint" />
          </mxGeometry>
        </mxCell>
        <mxCell id="Yl3m7NVMGg6Dee1x0JeU-440" value="" style="group" parent="Yl3m7NVMGg6Dee1x0JeU-328" vertex="1" connectable="0">
          <mxGeometry x="1500" y="577.0000000000001" width="180" height="180.0000000000001" as="geometry" />
        </mxCell>
        <mxCell id="Yl3m7NVMGg6Dee1x0JeU-441" value="Identify &#xa;Technology Resources" style="whiteSpace=wrap;rounded=1;fillColor=#ffcd28;strokeColor=#d79b00;shadow=1;fontStyle=0;gradientColor=#ffa500;verticalAlign=top;strokeWidth=4;" parent="Yl3m7NVMGg6Dee1x0JeU-440" vertex="1">
          <mxGeometry y="30.000000000000114" width="180" height="150" as="geometry" />
        </mxCell>
        <mxCell id="Yl3m7NVMGg6Dee1x0JeU-442" value="&lt;font style=&quot;font-size: 18px;&quot;&gt;3.1.2&lt;/font&gt;" style="text;html=1;strokeColor=none;fillColor=none;align=center;verticalAlign=top;whiteSpace=wrap;rounded=0;" parent="Yl3m7NVMGg6Dee1x0JeU-440" vertex="1">
          <mxGeometry x="135" width="45" height="30" as="geometry" />
        </mxCell>
        <mxCell id="Yl3m7NVMGg6Dee1x0JeU-443" value="" style="endArrow=none;html=1;rounded=0;verticalAlign=top;fontSize=30;strokeWidth=3;exitX=0;exitY=0.5;exitDx=0;exitDy=0;" parent="Yl3m7NVMGg6Dee1x0JeU-440" edge="1">
          <mxGeometry relative="1" as="geometry">
            <mxPoint y="130.0000000000001" as="sourcePoint" />
            <mxPoint x="180" y="130.0000000000001" as="targetPoint" />
          </mxGeometry>
        </mxCell>
        <mxCell id="Yl3m7NVMGg6Dee1x0JeU-444" value="Maeve&lt;span style=&quot;font-size: medium; text-align: start;&quot;&gt;&lt;/span&gt;" style="text;strokeColor=none;fillColor=none;spacingLeft=4;spacingRight=4;overflow=hidden;rotatable=0;points=[[0,0.5],[1,0.5]];portConstraint=eastwest;fontSize=16;whiteSpace=wrap;html=1;align=center;verticalAlign=middle;" parent="Yl3m7NVMGg6Dee1x0JeU-440" vertex="1">
          <mxGeometry x="30" y="130.0000000000001" width="120" height="50" as="geometry" />
        </mxCell>
        <mxCell id="Yl3m7NVMGg6Dee1x0JeU-445" value="R50 000" style="text;strokeColor=none;fillColor=none;spacingLeft=4;spacingRight=4;overflow=hidden;rotatable=0;points=[[0,0.5],[1,0.5]];portConstraint=eastwest;fontSize=16;whiteSpace=wrap;html=1;align=center;verticalAlign=middle;" parent="Yl3m7NVMGg6Dee1x0JeU-440" vertex="1">
          <mxGeometry x="30" y="80.00000000000011" width="120" height="50" as="geometry" />
        </mxCell>
        <mxCell id="Yl3m7NVMGg6Dee1x0JeU-446" value="" style="endArrow=none;html=1;rounded=0;verticalAlign=top;fontSize=30;strokeWidth=3;" parent="Yl3m7NVMGg6Dee1x0JeU-440" edge="1">
          <mxGeometry relative="1" as="geometry">
            <mxPoint y="80.00000000000011" as="sourcePoint" />
            <mxPoint x="180" y="80.00000000000011" as="targetPoint" />
          </mxGeometry>
        </mxCell>
        <mxCell id="Yl3m7NVMGg6Dee1x0JeU-447" value="" style="group" parent="Yl3m7NVMGg6Dee1x0JeU-328" vertex="1" connectable="0">
          <mxGeometry x="1720" y="577.0000000000001" width="180" height="180.0000000000001" as="geometry" />
        </mxCell>
        <mxCell id="Yl3m7NVMGg6Dee1x0JeU-448" style="edgeStyle=orthogonalEdgeStyle;rounded=0;orthogonalLoop=1;jettySize=auto;html=1;exitX=0.5;exitY=0;exitDx=0;exitDy=0;strokeWidth=6;endArrow=none;endFill=0;" parent="Yl3m7NVMGg6Dee1x0JeU-447" source="Yl3m7NVMGg6Dee1x0JeU-449" edge="1">
          <mxGeometry relative="1" as="geometry">
            <mxPoint x="-130" y="-77" as="targetPoint" />
            <Array as="points">
              <mxPoint x="90" y="-37" />
              <mxPoint x="-130" y="-37" />
            </Array>
          </mxGeometry>
        </mxCell>
        <mxCell id="Yl3m7NVMGg6Dee1x0JeU-449" value="Secure Financial Resources&#xa;and Budget Allocation" style="whiteSpace=wrap;rounded=1;fillColor=#ffcd28;strokeColor=#d79b00;shadow=1;fontStyle=0;gradientColor=#ffa500;verticalAlign=top;strokeWidth=4;" parent="Yl3m7NVMGg6Dee1x0JeU-447" vertex="1">
          <mxGeometry y="30.000000000000114" width="180" height="150" as="geometry" />
        </mxCell>
        <mxCell id="Yl3m7NVMGg6Dee1x0JeU-450" value="&lt;font style=&quot;font-size: 18px;&quot;&gt;3.1.3&lt;/font&gt;" style="text;html=1;strokeColor=none;fillColor=none;align=center;verticalAlign=top;whiteSpace=wrap;rounded=0;" parent="Yl3m7NVMGg6Dee1x0JeU-447" vertex="1">
          <mxGeometry x="135" width="45" height="30" as="geometry" />
        </mxCell>
        <mxCell id="Yl3m7NVMGg6Dee1x0JeU-451" value="" style="endArrow=none;html=1;rounded=0;verticalAlign=top;fontSize=30;strokeWidth=3;exitX=0;exitY=0.5;exitDx=0;exitDy=0;" parent="Yl3m7NVMGg6Dee1x0JeU-447" edge="1">
          <mxGeometry relative="1" as="geometry">
            <mxPoint y="130.0000000000001" as="sourcePoint" />
            <mxPoint x="180" y="130.0000000000001" as="targetPoint" />
          </mxGeometry>
        </mxCell>
        <mxCell id="Yl3m7NVMGg6Dee1x0JeU-452" value="Maxwell&lt;span style=&quot;font-size: medium; text-align: start;&quot;&gt;&lt;/span&gt;" style="text;strokeColor=none;fillColor=none;spacingLeft=4;spacingRight=4;overflow=hidden;rotatable=0;points=[[0,0.5],[1,0.5]];portConstraint=eastwest;fontSize=16;whiteSpace=wrap;html=1;align=center;verticalAlign=middle;" parent="Yl3m7NVMGg6Dee1x0JeU-447" vertex="1">
          <mxGeometry x="30" y="130.0000000000001" width="120" height="50" as="geometry" />
        </mxCell>
        <mxCell id="Yl3m7NVMGg6Dee1x0JeU-453" value="R25 000&lt;span style=&quot;font-size: medium; text-align: start;&quot;&gt;&lt;/span&gt;" style="text;strokeColor=none;fillColor=none;spacingLeft=4;spacingRight=4;overflow=hidden;rotatable=0;points=[[0,0.5],[1,0.5]];portConstraint=eastwest;fontSize=16;whiteSpace=wrap;html=1;align=center;verticalAlign=middle;" parent="Yl3m7NVMGg6Dee1x0JeU-447" vertex="1">
          <mxGeometry x="30" y="80.00000000000011" width="120" height="50" as="geometry" />
        </mxCell>
        <mxCell id="Yl3m7NVMGg6Dee1x0JeU-454" value="" style="endArrow=none;html=1;rounded=0;verticalAlign=top;fontSize=30;strokeWidth=3;" parent="Yl3m7NVMGg6Dee1x0JeU-447" edge="1">
          <mxGeometry relative="1" as="geometry">
            <mxPoint y="80.00000000000011" as="sourcePoint" />
            <mxPoint x="180" y="80.00000000000011" as="targetPoint" />
          </mxGeometry>
        </mxCell>
        <mxCell id="Yl3m7NVMGg6Dee1x0JeU-455" value="" style="group" parent="Yl3m7NVMGg6Dee1x0JeU-328" vertex="1" connectable="0">
          <mxGeometry x="1960" y="575.62" width="180" height="180.0000000000001" as="geometry" />
        </mxCell>
        <mxCell id="Yl3m7NVMGg6Dee1x0JeU-456" style="rounded=0;orthogonalLoop=1;jettySize=auto;html=1;exitX=0.5;exitY=0;exitDx=0;exitDy=0;endArrow=none;endFill=0;strokeWidth=6;edgeStyle=orthogonalEdgeStyle;" parent="Yl3m7NVMGg6Dee1x0JeU-455" source="Yl3m7NVMGg6Dee1x0JeU-457" edge="1">
          <mxGeometry relative="1" as="geometry">
            <mxPoint x="310" y="-75.61999999999989" as="targetPoint" />
            <Array as="points">
              <mxPoint x="90" y="-36" />
              <mxPoint x="310" y="-36" />
            </Array>
          </mxGeometry>
        </mxCell>
        <mxCell id="Yl3m7NVMGg6Dee1x0JeU-457" value="Assign Human Resources&#xa; to Project Tasks" style="whiteSpace=wrap;rounded=1;fillColor=#ffcd28;strokeColor=#d79b00;shadow=1;fontStyle=0;gradientColor=#ffa500;verticalAlign=top;strokeWidth=4;" parent="Yl3m7NVMGg6Dee1x0JeU-455" vertex="1">
          <mxGeometry y="30.000000000000114" width="180" height="150" as="geometry" />
        </mxCell>
        <mxCell id="Yl3m7NVMGg6Dee1x0JeU-458" value="&lt;font style=&quot;font-size: 18px;&quot;&gt;3.2.1&lt;/font&gt;" style="text;html=1;strokeColor=none;fillColor=none;align=center;verticalAlign=top;whiteSpace=wrap;rounded=0;" parent="Yl3m7NVMGg6Dee1x0JeU-455" vertex="1">
          <mxGeometry x="135" width="45" height="30" as="geometry" />
        </mxCell>
        <mxCell id="Yl3m7NVMGg6Dee1x0JeU-459" value="" style="endArrow=none;html=1;rounded=0;verticalAlign=top;fontSize=30;strokeWidth=3;exitX=0;exitY=0.5;exitDx=0;exitDy=0;" parent="Yl3m7NVMGg6Dee1x0JeU-455" edge="1">
          <mxGeometry relative="1" as="geometry">
            <mxPoint y="130.0000000000001" as="sourcePoint" />
            <mxPoint x="180" y="130.0000000000001" as="targetPoint" />
          </mxGeometry>
        </mxCell>
        <mxCell id="Yl3m7NVMGg6Dee1x0JeU-460" value="Miles&lt;span style=&quot;font-size: medium; text-align: start;&quot;&gt;&lt;/span&gt;" style="text;strokeColor=none;fillColor=none;spacingLeft=4;spacingRight=4;overflow=hidden;rotatable=0;points=[[0,0.5],[1,0.5]];portConstraint=eastwest;fontSize=16;whiteSpace=wrap;html=1;align=center;verticalAlign=middle;" parent="Yl3m7NVMGg6Dee1x0JeU-455" vertex="1">
          <mxGeometry x="30" y="130.0000000000001" width="120" height="50" as="geometry" />
        </mxCell>
        <mxCell id="Yl3m7NVMGg6Dee1x0JeU-461" value="R50 000&lt;span style=&quot;font-size: medium; text-align: start;&quot;&gt;&lt;/span&gt;" style="text;strokeColor=none;fillColor=none;spacingLeft=4;spacingRight=4;overflow=hidden;rotatable=0;points=[[0,0.5],[1,0.5]];portConstraint=eastwest;fontSize=16;whiteSpace=wrap;html=1;align=center;verticalAlign=middle;" parent="Yl3m7NVMGg6Dee1x0JeU-455" vertex="1">
          <mxGeometry x="30" y="80.00000000000011" width="120" height="50" as="geometry" />
        </mxCell>
        <mxCell id="Yl3m7NVMGg6Dee1x0JeU-462" value="" style="endArrow=none;html=1;rounded=0;verticalAlign=top;fontSize=30;strokeWidth=3;" parent="Yl3m7NVMGg6Dee1x0JeU-455" edge="1">
          <mxGeometry relative="1" as="geometry">
            <mxPoint y="80.00000000000011" as="sourcePoint" />
            <mxPoint x="180" y="80.00000000000011" as="targetPoint" />
          </mxGeometry>
        </mxCell>
        <mxCell id="Yl3m7NVMGg6Dee1x0JeU-463" value="" style="group" parent="Yl3m7NVMGg6Dee1x0JeU-328" vertex="1" connectable="0">
          <mxGeometry x="2180" y="577.0000000000001" width="180" height="180.0000000000001" as="geometry" />
        </mxCell>
        <mxCell id="Yl3m7NVMGg6Dee1x0JeU-464" value="Allocate Technological Resources Across Teams" style="whiteSpace=wrap;rounded=1;fillColor=#ffcd28;strokeColor=#d79b00;shadow=1;fontStyle=0;gradientColor=#ffa500;verticalAlign=top;strokeWidth=4;" parent="Yl3m7NVMGg6Dee1x0JeU-463" vertex="1">
          <mxGeometry y="30.000000000000114" width="180" height="150" as="geometry" />
        </mxCell>
        <mxCell id="Yl3m7NVMGg6Dee1x0JeU-465" value="&lt;font style=&quot;font-size: 18px;&quot;&gt;3.2.2&lt;/font&gt;" style="text;html=1;strokeColor=none;fillColor=none;align=center;verticalAlign=top;whiteSpace=wrap;rounded=0;" parent="Yl3m7NVMGg6Dee1x0JeU-463" vertex="1">
          <mxGeometry x="135" width="45" height="30" as="geometry" />
        </mxCell>
        <mxCell id="Yl3m7NVMGg6Dee1x0JeU-466" value="" style="endArrow=none;html=1;rounded=0;verticalAlign=top;fontSize=30;strokeWidth=3;exitX=0;exitY=0.5;exitDx=0;exitDy=0;" parent="Yl3m7NVMGg6Dee1x0JeU-463" edge="1">
          <mxGeometry relative="1" as="geometry">
            <mxPoint y="130.0000000000001" as="sourcePoint" />
            <mxPoint x="180" y="130.0000000000001" as="targetPoint" />
          </mxGeometry>
        </mxCell>
        <mxCell id="Yl3m7NVMGg6Dee1x0JeU-467" value="Mason&lt;span style=&quot;font-size: medium; text-align: start;&quot;&gt;&lt;/span&gt;" style="text;strokeColor=none;fillColor=none;spacingLeft=4;spacingRight=4;overflow=hidden;rotatable=0;points=[[0,0.5],[1,0.5]];portConstraint=eastwest;fontSize=16;whiteSpace=wrap;html=1;align=center;verticalAlign=middle;" parent="Yl3m7NVMGg6Dee1x0JeU-463" vertex="1">
          <mxGeometry x="30" y="130.0000000000001" width="120" height="50" as="geometry" />
        </mxCell>
        <mxCell id="Yl3m7NVMGg6Dee1x0JeU-468" value="R50 000&lt;span style=&quot;font-size: medium; text-align: start;&quot;&gt;&lt;/span&gt;" style="text;strokeColor=none;fillColor=none;spacingLeft=4;spacingRight=4;overflow=hidden;rotatable=0;points=[[0,0.5],[1,0.5]];portConstraint=eastwest;fontSize=16;whiteSpace=wrap;html=1;align=center;verticalAlign=middle;" parent="Yl3m7NVMGg6Dee1x0JeU-463" vertex="1">
          <mxGeometry x="30" y="80.00000000000011" width="120" height="50" as="geometry" />
        </mxCell>
        <mxCell id="Yl3m7NVMGg6Dee1x0JeU-469" value="" style="endArrow=none;html=1;rounded=0;verticalAlign=top;fontSize=30;strokeWidth=3;" parent="Yl3m7NVMGg6Dee1x0JeU-463" edge="1">
          <mxGeometry relative="1" as="geometry">
            <mxPoint y="80.00000000000011" as="sourcePoint" />
            <mxPoint x="180" y="80.00000000000011" as="targetPoint" />
          </mxGeometry>
        </mxCell>
        <mxCell id="Yl3m7NVMGg6Dee1x0JeU-470" style="edgeStyle=orthogonalEdgeStyle;rounded=0;orthogonalLoop=1;jettySize=auto;html=1;exitX=0.5;exitY=0;exitDx=0;exitDy=0;entryX=0.5;entryY=1;entryDx=0;entryDy=0;strokeWidth=6;endArrow=none;endFill=0;" parent="Yl3m7NVMGg6Dee1x0JeU-328" source="Yl3m7NVMGg6Dee1x0JeU-464" edge="1">
          <mxGeometry relative="1" as="geometry">
            <Array as="points">
              <mxPoint x="2270" y="510.0000000000001" />
              <mxPoint x="2270" y="510.0000000000001" />
            </Array>
            <mxPoint x="2270" y="500.0000000000001" as="targetPoint" />
          </mxGeometry>
        </mxCell>
        <mxCell id="Yl3m7NVMGg6Dee1x0JeU-471" value="" style="group" parent="Yl3m7NVMGg6Dee1x0JeU-328" vertex="1" connectable="0">
          <mxGeometry x="2400" y="577.0000000000001" width="180" height="180.0000000000001" as="geometry" />
        </mxCell>
        <mxCell id="Yl3m7NVMGg6Dee1x0JeU-472" value="Monitor and Adjust Resource Allocation" style="whiteSpace=wrap;rounded=1;fillColor=#ffcd28;strokeColor=#d79b00;shadow=1;fontStyle=0;gradientColor=#ffa500;verticalAlign=top;strokeWidth=4;" parent="Yl3m7NVMGg6Dee1x0JeU-471" vertex="1">
          <mxGeometry y="30.000000000000114" width="180" height="150" as="geometry" />
        </mxCell>
        <mxCell id="Yl3m7NVMGg6Dee1x0JeU-473" value="&lt;font style=&quot;font-size: 18px;&quot;&gt;3.2.3&lt;/font&gt;" style="text;html=1;strokeColor=none;fillColor=none;align=center;verticalAlign=top;whiteSpace=wrap;rounded=0;" parent="Yl3m7NVMGg6Dee1x0JeU-471" vertex="1">
          <mxGeometry x="135" width="45" height="30" as="geometry" />
        </mxCell>
        <mxCell id="Yl3m7NVMGg6Dee1x0JeU-474" value="" style="endArrow=none;html=1;rounded=0;verticalAlign=top;fontSize=30;strokeWidth=3;exitX=0;exitY=0.5;exitDx=0;exitDy=0;" parent="Yl3m7NVMGg6Dee1x0JeU-471" edge="1">
          <mxGeometry relative="1" as="geometry">
            <mxPoint y="130.0000000000001" as="sourcePoint" />
            <mxPoint x="180" y="130.0000000000001" as="targetPoint" />
          </mxGeometry>
        </mxCell>
        <mxCell id="Yl3m7NVMGg6Dee1x0JeU-475" value="Madeline&lt;span style=&quot;font-size: medium; text-align: start;&quot;&gt;&lt;/span&gt;" style="text;strokeColor=none;fillColor=none;spacingLeft=4;spacingRight=4;overflow=hidden;rotatable=0;points=[[0,0.5],[1,0.5]];portConstraint=eastwest;fontSize=16;whiteSpace=wrap;html=1;align=center;verticalAlign=middle;" parent="Yl3m7NVMGg6Dee1x0JeU-471" vertex="1">
          <mxGeometry x="30" y="130.0000000000001" width="120" height="50" as="geometry" />
        </mxCell>
        <mxCell id="Yl3m7NVMGg6Dee1x0JeU-476" value="R25 000&lt;span style=&quot;font-size: medium; text-align: start;&quot;&gt;&lt;/span&gt;" style="text;strokeColor=none;fillColor=none;spacingLeft=4;spacingRight=4;overflow=hidden;rotatable=0;points=[[0,0.5],[1,0.5]];portConstraint=eastwest;fontSize=16;whiteSpace=wrap;html=1;align=center;verticalAlign=middle;" parent="Yl3m7NVMGg6Dee1x0JeU-471" vertex="1">
          <mxGeometry x="30" y="80.00000000000011" width="120" height="50" as="geometry" />
        </mxCell>
        <mxCell id="Yl3m7NVMGg6Dee1x0JeU-477" value="" style="endArrow=none;html=1;rounded=0;verticalAlign=top;fontSize=30;strokeWidth=3;" parent="Yl3m7NVMGg6Dee1x0JeU-471" edge="1">
          <mxGeometry relative="1" as="geometry">
            <mxPoint y="80.00000000000011" as="sourcePoint" />
            <mxPoint x="180" y="80.00000000000011" as="targetPoint" />
          </mxGeometry>
        </mxCell>
        <mxCell id="Yl3m7NVMGg6Dee1x0JeU-478" style="edgeStyle=orthogonalEdgeStyle;rounded=0;orthogonalLoop=1;jettySize=auto;html=1;exitX=0.5;exitY=0;exitDx=0;exitDy=0;entryX=0.5;entryY=1;entryDx=0;entryDy=0;strokeWidth=6;endArrow=none;endFill=0;" parent="Yl3m7NVMGg6Dee1x0JeU-328" source="Yl3m7NVMGg6Dee1x0JeU-441" target="Yl3m7NVMGg6Dee1x0JeU-409" edge="1">
          <mxGeometry relative="1" as="geometry">
            <Array as="points">
              <mxPoint x="1590" y="466.0000000000001" />
              <mxPoint x="1590" y="466.0000000000001" />
            </Array>
          </mxGeometry>
        </mxCell>
        <mxCell id="Yl3m7NVMGg6Dee1x0JeU-479" style="edgeStyle=orthogonalEdgeStyle;rounded=0;orthogonalLoop=1;jettySize=auto;html=1;exitX=0.5;exitY=0;exitDx=0;exitDy=0;strokeWidth=6;endArrow=none;endFill=0;entryX=0.501;entryY=0.979;entryDx=0;entryDy=0;entryPerimeter=0;" parent="Yl3m7NVMGg6Dee1x0JeU-328" source="Yl3m7NVMGg6Dee1x0JeU-472" target="Yl3m7NVMGg6Dee1x0JeU-420" edge="1">
          <mxGeometry relative="1" as="geometry">
            <mxPoint x="2270" y="500.0000000000001" as="targetPoint" />
            <Array as="points">
              <mxPoint x="2490" y="540.0000000000001" />
              <mxPoint x="2270" y="540.0000000000001" />
            </Array>
          </mxGeometry>
        </mxCell>
        <mxCell id="Yl3m7NVMGg6Dee1x0JeU-354" value="" style="group;strokeWidth=0;" parent="1" vertex="1" connectable="0">
          <mxGeometry x="1370" y="785.6199999999999" width="180" height="180.0000000000001" as="geometry" />
        </mxCell>
        <mxCell id="Yl3m7NVMGg6Dee1x0JeU-355" style="rounded=0;orthogonalLoop=1;jettySize=auto;html=1;exitX=0.5;exitY=0;exitDx=0;exitDy=0;endArrow=none;endFill=0;strokeWidth=6;edgeStyle=orthogonalEdgeStyle;" parent="Yl3m7NVMGg6Dee1x0JeU-354" source="Yl3m7NVMGg6Dee1x0JeU-356" edge="1">
          <mxGeometry relative="1" as="geometry">
            <mxPoint x="310" y="-75.61999999999989" as="targetPoint" />
            <Array as="points">
              <mxPoint x="90" y="-36" />
              <mxPoint x="310" y="-36" />
            </Array>
          </mxGeometry>
        </mxCell>
        <mxCell id="Yl3m7NVMGg6Dee1x0JeU-356" value="Identify Stakeholder Communication needs" style="whiteSpace=wrap;rounded=1;fillColor=#ffcd28;strokeColor=#d79b00;shadow=1;fontStyle=0;gradientColor=#ffa500;verticalAlign=top;strokeWidth=4;" parent="Yl3m7NVMGg6Dee1x0JeU-354" vertex="1">
          <mxGeometry y="30.000000000000114" width="180" height="150" as="geometry" />
        </mxCell>
        <mxCell id="Yl3m7NVMGg6Dee1x0JeU-357" value="&lt;font style=&quot;font-size: 18px;&quot;&gt;2.1.1&lt;/font&gt;" style="text;html=1;strokeColor=none;fillColor=none;align=center;verticalAlign=top;whiteSpace=wrap;rounded=0;" parent="Yl3m7NVMGg6Dee1x0JeU-354" vertex="1">
          <mxGeometry x="135" width="45" height="30" as="geometry" />
        </mxCell>
        <mxCell id="Yl3m7NVMGg6Dee1x0JeU-358" value="" style="endArrow=none;html=1;rounded=0;verticalAlign=top;fontSize=30;strokeWidth=3;exitX=0;exitY=0.5;exitDx=0;exitDy=0;" parent="Yl3m7NVMGg6Dee1x0JeU-354" edge="1">
          <mxGeometry relative="1" as="geometry">
            <mxPoint y="130.0000000000001" as="sourcePoint" />
            <mxPoint x="180" y="130.0000000000001" as="targetPoint" />
          </mxGeometry>
        </mxCell>
        <mxCell id="Yl3m7NVMGg6Dee1x0JeU-359" value="Lucy" style="text;strokeColor=none;fillColor=none;spacingLeft=4;spacingRight=4;overflow=hidden;rotatable=0;points=[[0,0.5],[1,0.5]];portConstraint=eastwest;fontSize=16;whiteSpace=wrap;html=1;align=center;verticalAlign=middle;" parent="Yl3m7NVMGg6Dee1x0JeU-354" vertex="1">
          <mxGeometry x="30" y="130.0000000000001" width="120" height="50" as="geometry" />
        </mxCell>
        <mxCell id="Yl3m7NVMGg6Dee1x0JeU-360" value="R58 000&lt;span style=&quot;font-size: medium; text-align: start;&quot;&gt;&lt;/span&gt;" style="text;strokeColor=none;fillColor=none;spacingLeft=4;spacingRight=4;overflow=hidden;rotatable=0;points=[[0,0.5],[1,0.5]];portConstraint=eastwest;fontSize=16;whiteSpace=wrap;html=1;align=center;verticalAlign=middle;" parent="Yl3m7NVMGg6Dee1x0JeU-354" vertex="1">
          <mxGeometry x="30" y="80.00000000000011" width="120" height="50" as="geometry" />
        </mxCell>
        <mxCell id="Yl3m7NVMGg6Dee1x0JeU-361" value="" style="endArrow=none;html=1;rounded=0;verticalAlign=top;fontSize=30;strokeWidth=3;" parent="Yl3m7NVMGg6Dee1x0JeU-354" edge="1">
          <mxGeometry relative="1" as="geometry">
            <mxPoint y="80.00000000000011" as="sourcePoint" />
            <mxPoint x="180" y="80.00000000000011" as="targetPoint" />
          </mxGeometry>
        </mxCell>
        <mxCell id="Yl3m7NVMGg6Dee1x0JeU-362" value="" style="group" parent="1" vertex="1" connectable="0">
          <mxGeometry x="1590" y="787" width="180" height="180.0000000000001" as="geometry" />
        </mxCell>
        <mxCell id="Yl3m7NVMGg6Dee1x0JeU-363" value="Develop Communication &#xa;Strategy with Feedback loops" style="whiteSpace=wrap;rounded=1;fillColor=#ffcd28;strokeColor=#d79b00;shadow=1;fontStyle=0;gradientColor=#ffa500;verticalAlign=top;strokeWidth=4;" parent="Yl3m7NVMGg6Dee1x0JeU-362" vertex="1">
          <mxGeometry y="30.000000000000114" width="180" height="150" as="geometry" />
        </mxCell>
        <mxCell id="Yl3m7NVMGg6Dee1x0JeU-364" value="&lt;font style=&quot;font-size: 18px;&quot;&gt;2.1.2&lt;/font&gt;" style="text;html=1;strokeColor=none;fillColor=none;align=center;verticalAlign=top;whiteSpace=wrap;rounded=0;" parent="Yl3m7NVMGg6Dee1x0JeU-362" vertex="1">
          <mxGeometry x="135" width="45" height="30" as="geometry" />
        </mxCell>
        <mxCell id="Yl3m7NVMGg6Dee1x0JeU-365" value="" style="endArrow=none;html=1;rounded=0;verticalAlign=top;fontSize=30;strokeWidth=3;exitX=0;exitY=0.5;exitDx=0;exitDy=0;" parent="Yl3m7NVMGg6Dee1x0JeU-362" edge="1">
          <mxGeometry relative="1" as="geometry">
            <mxPoint y="130.0000000000001" as="sourcePoint" />
            <mxPoint x="180" y="130.0000000000001" as="targetPoint" />
          </mxGeometry>
        </mxCell>
        <mxCell id="Yl3m7NVMGg6Dee1x0JeU-366" value="Leilani&lt;span style=&quot;font-size: medium; text-align: start;&quot;&gt;&lt;/span&gt;" style="text;strokeColor=none;fillColor=none;spacingLeft=4;spacingRight=4;overflow=hidden;rotatable=0;points=[[0,0.5],[1,0.5]];portConstraint=eastwest;fontSize=16;whiteSpace=wrap;html=1;align=center;verticalAlign=middle;" parent="Yl3m7NVMGg6Dee1x0JeU-362" vertex="1">
          <mxGeometry x="30" y="130.0000000000001" width="120" height="50" as="geometry" />
        </mxCell>
        <mxCell id="Yl3m7NVMGg6Dee1x0JeU-367" value="R59 000&lt;span style=&quot;font-size: medium; text-align: start;&quot;&gt;&lt;/span&gt;" style="text;strokeColor=none;fillColor=none;spacingLeft=4;spacingRight=4;overflow=hidden;rotatable=0;points=[[0,0.5],[1,0.5]];portConstraint=eastwest;fontSize=16;whiteSpace=wrap;html=1;align=center;verticalAlign=middle;" parent="Yl3m7NVMGg6Dee1x0JeU-362" vertex="1">
          <mxGeometry x="30" y="80.00000000000011" width="120" height="50" as="geometry" />
        </mxCell>
        <mxCell id="Yl3m7NVMGg6Dee1x0JeU-368" value="" style="endArrow=none;html=1;rounded=0;verticalAlign=top;fontSize=30;strokeWidth=3;" parent="Yl3m7NVMGg6Dee1x0JeU-362" edge="1">
          <mxGeometry relative="1" as="geometry">
            <mxPoint y="80.00000000000011" as="sourcePoint" />
            <mxPoint x="180" y="80.00000000000011" as="targetPoint" />
          </mxGeometry>
        </mxCell>
        <mxCell id="Yl3m7NVMGg6Dee1x0JeU-369" value="" style="group" parent="1" vertex="1" connectable="0">
          <mxGeometry x="1810" y="787" width="180" height="180.0000000000001" as="geometry" />
        </mxCell>
        <mxCell id="Yl3m7NVMGg6Dee1x0JeU-370" style="edgeStyle=orthogonalEdgeStyle;rounded=0;orthogonalLoop=1;jettySize=auto;html=1;exitX=0.5;exitY=0;exitDx=0;exitDy=0;strokeWidth=6;endArrow=none;endFill=0;" parent="Yl3m7NVMGg6Dee1x0JeU-369" source="Yl3m7NVMGg6Dee1x0JeU-371" edge="1">
          <mxGeometry relative="1" as="geometry">
            <mxPoint x="-130" y="-77" as="targetPoint" />
            <Array as="points">
              <mxPoint x="90" y="-37" />
              <mxPoint x="-130" y="-37" />
            </Array>
          </mxGeometry>
        </mxCell>
        <mxCell id="Yl3m7NVMGg6Dee1x0JeU-371" value="Approve Communication&#xa; Plan" style="whiteSpace=wrap;rounded=1;fillColor=#ffcd28;strokeColor=#d79b00;shadow=1;fontStyle=0;gradientColor=#ffa500;verticalAlign=top;strokeWidth=4;" parent="Yl3m7NVMGg6Dee1x0JeU-369" vertex="1">
          <mxGeometry y="30.000000000000114" width="180" height="150" as="geometry" />
        </mxCell>
        <mxCell id="Yl3m7NVMGg6Dee1x0JeU-372" value="&lt;font style=&quot;font-size: 18px;&quot;&gt;2.1.3&lt;/font&gt;" style="text;html=1;strokeColor=none;fillColor=none;align=center;verticalAlign=top;whiteSpace=wrap;rounded=0;" parent="Yl3m7NVMGg6Dee1x0JeU-369" vertex="1">
          <mxGeometry x="135" width="45" height="30" as="geometry" />
        </mxCell>
        <mxCell id="Yl3m7NVMGg6Dee1x0JeU-373" value="" style="endArrow=none;html=1;rounded=0;verticalAlign=top;fontSize=30;strokeWidth=3;exitX=0;exitY=0.5;exitDx=0;exitDy=0;" parent="Yl3m7NVMGg6Dee1x0JeU-369" edge="1">
          <mxGeometry relative="1" as="geometry">
            <mxPoint y="130.0000000000001" as="sourcePoint" />
            <mxPoint x="180" y="130.0000000000001" as="targetPoint" />
          </mxGeometry>
        </mxCell>
        <mxCell id="Yl3m7NVMGg6Dee1x0JeU-374" value="Lily&lt;span style=&quot;font-size: medium; text-align: start;&quot;&gt;&lt;/span&gt;" style="text;strokeColor=none;fillColor=none;spacingLeft=4;spacingRight=4;overflow=hidden;rotatable=0;points=[[0,0.5],[1,0.5]];portConstraint=eastwest;fontSize=16;whiteSpace=wrap;html=1;align=center;verticalAlign=middle;" parent="Yl3m7NVMGg6Dee1x0JeU-369" vertex="1">
          <mxGeometry x="30" y="130.0000000000001" width="120" height="50" as="geometry" />
        </mxCell>
        <mxCell id="Yl3m7NVMGg6Dee1x0JeU-375" value="R58 000&lt;span style=&quot;font-size: medium; text-align: start;&quot;&gt;&lt;/span&gt;" style="text;strokeColor=none;fillColor=none;spacingLeft=4;spacingRight=4;overflow=hidden;rotatable=0;points=[[0,0.5],[1,0.5]];portConstraint=eastwest;fontSize=16;whiteSpace=wrap;html=1;align=center;verticalAlign=middle;" parent="Yl3m7NVMGg6Dee1x0JeU-369" vertex="1">
          <mxGeometry x="30" y="80.00000000000011" width="120" height="50" as="geometry" />
        </mxCell>
        <mxCell id="Yl3m7NVMGg6Dee1x0JeU-376" value="" style="endArrow=none;html=1;rounded=0;verticalAlign=top;fontSize=30;strokeWidth=3;" parent="Yl3m7NVMGg6Dee1x0JeU-369" edge="1">
          <mxGeometry relative="1" as="geometry">
            <mxPoint y="80.00000000000011" as="sourcePoint" />
            <mxPoint x="180" y="80.00000000000011" as="targetPoint" />
          </mxGeometry>
        </mxCell>
        <mxCell id="Yl3m7NVMGg6Dee1x0JeU-400" style="edgeStyle=orthogonalEdgeStyle;rounded=0;orthogonalLoop=1;jettySize=auto;html=1;exitX=0.5;exitY=0;exitDx=0;exitDy=0;entryX=0.5;entryY=1;entryDx=0;entryDy=0;strokeWidth=6;endArrow=none;endFill=0;" parent="1" source="Yl3m7NVMGg6Dee1x0JeU-363" target="Yl3m7NVMGg6Dee1x0JeU-331" edge="1">
          <mxGeometry relative="1" as="geometry">
            <Array as="points">
              <mxPoint x="1680" y="676" />
              <mxPoint x="1680" y="676" />
            </Array>
          </mxGeometry>
        </mxCell>
        <mxCell id="Yl3m7NVMGg6Dee1x0JeU-482" value="" style="group" parent="1" vertex="1" connectable="0">
          <mxGeometry x="4092" y="209.9999999999999" width="1300" height="713.0000000000001" as="geometry" />
        </mxCell>
        <mxCell id="Yl3m7NVMGg6Dee1x0JeU-483" value="" style="group" parent="Yl3m7NVMGg6Dee1x0JeU-482" vertex="1" connectable="0">
          <mxGeometry y="276" width="620" height="437.0000000000001" as="geometry" />
        </mxCell>
        <mxCell id="Yl3m7NVMGg6Dee1x0JeU-484" value="" style="group" parent="Yl3m7NVMGg6Dee1x0JeU-483" vertex="1" connectable="0">
          <mxGeometry x="220" width="180" height="180.0000000000001" as="geometry" />
        </mxCell>
        <mxCell id="Yl3m7NVMGg6Dee1x0JeU-485" value="Agile Development Schedule " style="whiteSpace=wrap;rounded=1;fillColor=#fff2cc;strokeColor=#d6b656;shadow=1;fontStyle=1;gradientColor=#ffd966;verticalAlign=top;strokeWidth=4;fontSize=16;" parent="Yl3m7NVMGg6Dee1x0JeU-484" vertex="1">
          <mxGeometry y="30.000000000000114" width="180" height="150" as="geometry" />
        </mxCell>
        <mxCell id="Yl3m7NVMGg6Dee1x0JeU-486" value="&lt;font style=&quot;font-size: 18px;&quot;&gt;4.1&lt;/font&gt;" style="text;html=1;strokeColor=none;fillColor=none;align=center;verticalAlign=top;whiteSpace=wrap;rounded=0;" parent="Yl3m7NVMGg6Dee1x0JeU-484" vertex="1">
          <mxGeometry x="135" width="45" height="30" as="geometry" />
        </mxCell>
        <mxCell id="Yl3m7NVMGg6Dee1x0JeU-487" value="" style="endArrow=none;html=1;rounded=0;verticalAlign=top;fontSize=30;strokeWidth=3;exitX=0;exitY=0.5;exitDx=0;exitDy=0;" parent="Yl3m7NVMGg6Dee1x0JeU-484" edge="1">
          <mxGeometry relative="1" as="geometry">
            <mxPoint y="130.0000000000001" as="sourcePoint" />
            <mxPoint x="180" y="130.0000000000001" as="targetPoint" />
          </mxGeometry>
        </mxCell>
        <mxCell id="Yl3m7NVMGg6Dee1x0JeU-488" value="Oliver&lt;span style=&quot;font-size: medium; text-align: start;&quot;&gt;&lt;/span&gt;" style="text;strokeColor=none;fillColor=none;spacingLeft=4;spacingRight=4;overflow=hidden;rotatable=0;points=[[0,0.5],[1,0.5]];portConstraint=eastwest;fontSize=16;whiteSpace=wrap;html=1;align=center;verticalAlign=middle;" parent="Yl3m7NVMGg6Dee1x0JeU-484" vertex="1">
          <mxGeometry x="30" y="130.0000000000001" width="120" height="50" as="geometry" />
        </mxCell>
        <mxCell id="Yl3m7NVMGg6Dee1x0JeU-489" value="R125 000&lt;span style=&quot;font-size: medium; text-align: start;&quot;&gt;&lt;/span&gt;" style="text;strokeColor=none;fillColor=none;spacingLeft=4;spacingRight=4;overflow=hidden;rotatable=0;points=[[0,0.5],[1,0.5]];portConstraint=eastwest;fontSize=16;whiteSpace=wrap;html=1;align=center;verticalAlign=middle;" parent="Yl3m7NVMGg6Dee1x0JeU-484" vertex="1">
          <mxGeometry x="30" y="80.00000000000011" width="120" height="50" as="geometry" />
        </mxCell>
        <mxCell id="Yl3m7NVMGg6Dee1x0JeU-490" value="" style="endArrow=none;html=1;rounded=0;verticalAlign=top;fontSize=30;strokeWidth=3;" parent="Yl3m7NVMGg6Dee1x0JeU-484" edge="1">
          <mxGeometry relative="1" as="geometry">
            <mxPoint y="80.00000000000011" as="sourcePoint" />
            <mxPoint x="180" y="80.00000000000011" as="targetPoint" />
          </mxGeometry>
        </mxCell>
        <mxCell id="Yl3m7NVMGg6Dee1x0JeU-491" value="" style="group" parent="Yl3m7NVMGg6Dee1x0JeU-482" vertex="1" connectable="0">
          <mxGeometry x="680" y="276" width="620" height="437.0000000000001" as="geometry" />
        </mxCell>
        <mxCell id="Yl3m7NVMGg6Dee1x0JeU-492" value="" style="group" parent="Yl3m7NVMGg6Dee1x0JeU-491" vertex="1" connectable="0">
          <mxGeometry x="220" width="180" height="180.0000000000001" as="geometry" />
        </mxCell>
        <mxCell id="Yl3m7NVMGg6Dee1x0JeU-493" value="Timeline.   Management" style="whiteSpace=wrap;rounded=1;fillColor=#fff2cc;strokeColor=#d6b656;shadow=1;fontStyle=1;gradientColor=#ffd966;verticalAlign=top;strokeWidth=4;fontSize=16;" parent="Yl3m7NVMGg6Dee1x0JeU-492" vertex="1">
          <mxGeometry y="30.000000000000114" width="180" height="150" as="geometry" />
        </mxCell>
        <mxCell id="Yl3m7NVMGg6Dee1x0JeU-494" value="&lt;font style=&quot;font-size: 18px;&quot;&gt;4.2&lt;/font&gt;" style="text;html=1;strokeColor=none;fillColor=none;align=center;verticalAlign=top;whiteSpace=wrap;rounded=0;" parent="Yl3m7NVMGg6Dee1x0JeU-492" vertex="1">
          <mxGeometry x="135" width="45" height="30" as="geometry" />
        </mxCell>
        <mxCell id="Yl3m7NVMGg6Dee1x0JeU-495" value="" style="endArrow=none;html=1;rounded=0;verticalAlign=top;fontSize=30;strokeWidth=3;exitX=0;exitY=0.5;exitDx=0;exitDy=0;" parent="Yl3m7NVMGg6Dee1x0JeU-492" edge="1">
          <mxGeometry relative="1" as="geometry">
            <mxPoint y="130.0000000000001" as="sourcePoint" />
            <mxPoint x="180" y="130.0000000000001" as="targetPoint" />
          </mxGeometry>
        </mxCell>
        <mxCell id="Yl3m7NVMGg6Dee1x0JeU-496" value="Oscar&lt;span style=&quot;font-size: medium; text-align: start;&quot;&gt;&lt;/span&gt;" style="text;strokeColor=none;fillColor=none;spacingLeft=4;spacingRight=4;overflow=hidden;rotatable=0;points=[[0,0.5],[1,0.5]];portConstraint=eastwest;fontSize=16;whiteSpace=wrap;html=1;align=center;verticalAlign=middle;" parent="Yl3m7NVMGg6Dee1x0JeU-492" vertex="1">
          <mxGeometry x="30" y="130.0000000000001" width="120" height="50" as="geometry" />
        </mxCell>
        <mxCell id="Yl3m7NVMGg6Dee1x0JeU-497" value="R125 000&lt;span style=&quot;font-size: medium; text-align: start;&quot;&gt;&lt;/span&gt;" style="text;strokeColor=none;fillColor=none;spacingLeft=4;spacingRight=4;overflow=hidden;rotatable=0;points=[[0,0.5],[1,0.5]];portConstraint=eastwest;fontSize=16;whiteSpace=wrap;html=1;align=center;verticalAlign=middle;" parent="Yl3m7NVMGg6Dee1x0JeU-492" vertex="1">
          <mxGeometry x="30" y="80.00000000000011" width="120" height="50" as="geometry" />
        </mxCell>
        <mxCell id="Yl3m7NVMGg6Dee1x0JeU-498" value="" style="endArrow=none;html=1;rounded=0;verticalAlign=top;fontSize=30;strokeWidth=3;" parent="Yl3m7NVMGg6Dee1x0JeU-492" edge="1">
          <mxGeometry relative="1" as="geometry">
            <mxPoint y="80.00000000000011" as="sourcePoint" />
            <mxPoint x="180" y="80.00000000000011" as="targetPoint" />
          </mxGeometry>
        </mxCell>
        <mxCell id="Yl3m7NVMGg6Dee1x0JeU-499" value="" style="group" parent="Yl3m7NVMGg6Dee1x0JeU-482" vertex="1" connectable="0">
          <mxGeometry x="570" y="-10" width="180" height="180.0000000000001" as="geometry" />
        </mxCell>
        <mxCell id="Yl3m7NVMGg6Dee1x0JeU-641" style="edgeStyle=orthogonalEdgeStyle;rounded=0;orthogonalLoop=1;jettySize=auto;html=1;exitX=0.5;exitY=0;exitDx=0;exitDy=0;endArrow=none;endFill=0;strokeWidth=6;" parent="Yl3m7NVMGg6Dee1x0JeU-499" source="Yl3m7NVMGg6Dee1x0JeU-500" edge="1">
          <mxGeometry relative="1" as="geometry">
            <mxPoint x="90" y="-79.99999999999989" as="targetPoint" />
          </mxGeometry>
        </mxCell>
        <mxCell id="Yl3m7NVMGg6Dee1x0JeU-500" value="Timeline and Milestones" style="whiteSpace=wrap;rounded=1;fillColor=#d5e8d4;strokeColor=#82b366;shadow=1;fontStyle=1;gradientColor=#97d077;verticalAlign=top;strokeWidth=4;fontSize=16;" parent="Yl3m7NVMGg6Dee1x0JeU-499" vertex="1">
          <mxGeometry y="30.000000000000114" width="180" height="150" as="geometry" />
        </mxCell>
        <mxCell id="Yl3m7NVMGg6Dee1x0JeU-501" value="&lt;font style=&quot;font-size: 18px;&quot;&gt;4&lt;/font&gt;" style="text;html=1;strokeColor=none;fillColor=none;align=center;verticalAlign=top;whiteSpace=wrap;rounded=0;" parent="Yl3m7NVMGg6Dee1x0JeU-499" vertex="1">
          <mxGeometry x="135" width="45" height="30" as="geometry" />
        </mxCell>
        <mxCell id="Yl3m7NVMGg6Dee1x0JeU-502" value="" style="endArrow=none;html=1;rounded=0;verticalAlign=top;fontSize=30;strokeWidth=3;exitX=0;exitY=0.5;exitDx=0;exitDy=0;" parent="Yl3m7NVMGg6Dee1x0JeU-499" edge="1">
          <mxGeometry relative="1" as="geometry">
            <mxPoint y="130.0000000000001" as="sourcePoint" />
            <mxPoint x="180" y="130.0000000000001" as="targetPoint" />
          </mxGeometry>
        </mxCell>
        <mxCell id="Yl3m7NVMGg6Dee1x0JeU-503" value="Owami&lt;span style=&quot;font-size: medium; text-align: start;&quot;&gt;&lt;/span&gt;" style="text;strokeColor=none;fillColor=none;spacingLeft=4;spacingRight=4;overflow=hidden;rotatable=0;points=[[0,0.5],[1,0.5]];portConstraint=eastwest;fontSize=16;whiteSpace=wrap;html=1;align=center;verticalAlign=middle;" parent="Yl3m7NVMGg6Dee1x0JeU-499" vertex="1">
          <mxGeometry x="30" y="130.0000000000001" width="120" height="50" as="geometry" />
        </mxCell>
        <mxCell id="Yl3m7NVMGg6Dee1x0JeU-504" value="R250 000&lt;span style=&quot;font-size: medium; text-align: start;&quot;&gt;&lt;/span&gt;" style="text;strokeColor=none;fillColor=none;spacingLeft=4;spacingRight=4;overflow=hidden;rotatable=0;points=[[0,0.5],[1,0.5]];portConstraint=eastwest;fontSize=16;whiteSpace=wrap;html=1;align=center;verticalAlign=middle;" parent="Yl3m7NVMGg6Dee1x0JeU-499" vertex="1">
          <mxGeometry x="30" y="80.00000000000011" width="120" height="50" as="geometry" />
        </mxCell>
        <mxCell id="Yl3m7NVMGg6Dee1x0JeU-505" value="" style="endArrow=none;html=1;rounded=0;verticalAlign=top;fontSize=30;strokeWidth=3;" parent="Yl3m7NVMGg6Dee1x0JeU-499" edge="1">
          <mxGeometry relative="1" as="geometry">
            <mxPoint y="80.00000000000011" as="sourcePoint" />
            <mxPoint x="180" y="80.00000000000011" as="targetPoint" />
          </mxGeometry>
        </mxCell>
        <mxCell id="Yl3m7NVMGg6Dee1x0JeU-506" style="edgeStyle=orthogonalEdgeStyle;rounded=0;orthogonalLoop=1;jettySize=auto;html=1;exitX=0.5;exitY=0;exitDx=0;exitDy=0;entryX=0.495;entryY=1.018;entryDx=0;entryDy=0;entryPerimeter=0;strokeWidth=6;endArrow=none;endFill=0;" parent="Yl3m7NVMGg6Dee1x0JeU-482" source="Yl3m7NVMGg6Dee1x0JeU-485" target="Yl3m7NVMGg6Dee1x0JeU-503" edge="1">
          <mxGeometry relative="1" as="geometry">
            <mxPoint x="650" y="190.0000000000001" as="targetPoint" />
            <Array as="points">
              <mxPoint x="310" y="250" />
              <mxPoint x="659" y="250" />
            </Array>
          </mxGeometry>
        </mxCell>
        <mxCell id="Yl3m7NVMGg6Dee1x0JeU-507" style="edgeStyle=orthogonalEdgeStyle;rounded=0;orthogonalLoop=1;jettySize=auto;html=1;exitX=0.5;exitY=0;exitDx=0;exitDy=0;entryX=0.485;entryY=1.016;entryDx=0;entryDy=0;entryPerimeter=0;strokeWidth=6;endArrow=none;endFill=0;" parent="Yl3m7NVMGg6Dee1x0JeU-482" source="Yl3m7NVMGg6Dee1x0JeU-493" target="Yl3m7NVMGg6Dee1x0JeU-503" edge="1">
          <mxGeometry relative="1" as="geometry">
            <mxPoint x="650" y="180.0000000000001" as="targetPoint" />
            <Array as="points">
              <mxPoint x="990" y="250" />
              <mxPoint x="658" y="250" />
            </Array>
          </mxGeometry>
        </mxCell>
        <mxCell id="Yl3m7NVMGg6Dee1x0JeU-508" value="" style="group;strokeWidth=0;" parent="1" vertex="1" connectable="0">
          <mxGeometry x="4092" y="785.6199999999999" width="180" height="180.0000000000001" as="geometry" />
        </mxCell>
        <mxCell id="Yl3m7NVMGg6Dee1x0JeU-509" style="rounded=0;orthogonalLoop=1;jettySize=auto;html=1;exitX=0.5;exitY=0;exitDx=0;exitDy=0;endArrow=none;endFill=0;strokeWidth=6;edgeStyle=orthogonalEdgeStyle;" parent="Yl3m7NVMGg6Dee1x0JeU-508" source="Yl3m7NVMGg6Dee1x0JeU-510" edge="1">
          <mxGeometry relative="1" as="geometry">
            <mxPoint x="310" y="-75.61999999999989" as="targetPoint" />
            <Array as="points">
              <mxPoint x="90" y="-36" />
              <mxPoint x="310" y="-36" />
            </Array>
          </mxGeometry>
        </mxCell>
        <mxCell id="Yl3m7NVMGg6Dee1x0JeU-510" value="Sprint Planning and &#xa;Backlog Refinement" style="whiteSpace=wrap;rounded=1;fillColor=#ffcd28;strokeColor=#d79b00;shadow=1;fontStyle=0;gradientColor=#ffa500;verticalAlign=top;strokeWidth=4;" parent="Yl3m7NVMGg6Dee1x0JeU-508" vertex="1">
          <mxGeometry y="30.000000000000114" width="180" height="150" as="geometry" />
        </mxCell>
        <mxCell id="Yl3m7NVMGg6Dee1x0JeU-511" value="&lt;font style=&quot;font-size: 18px;&quot;&gt;4.1.1&lt;/font&gt;" style="text;html=1;strokeColor=none;fillColor=none;align=center;verticalAlign=top;whiteSpace=wrap;rounded=0;" parent="Yl3m7NVMGg6Dee1x0JeU-508" vertex="1">
          <mxGeometry x="135" width="45" height="30" as="geometry" />
        </mxCell>
        <mxCell id="Yl3m7NVMGg6Dee1x0JeU-512" value="" style="endArrow=none;html=1;rounded=0;verticalAlign=top;fontSize=30;strokeWidth=3;exitX=0;exitY=0.5;exitDx=0;exitDy=0;" parent="Yl3m7NVMGg6Dee1x0JeU-508" edge="1">
          <mxGeometry relative="1" as="geometry">
            <mxPoint y="130.0000000000001" as="sourcePoint" />
            <mxPoint x="180" y="130.0000000000001" as="targetPoint" />
          </mxGeometry>
        </mxCell>
        <mxCell id="Yl3m7NVMGg6Dee1x0JeU-513" value="Odin&lt;span style=&quot;font-size: medium; text-align: start;&quot;&gt;&lt;/span&gt;" style="text;strokeColor=none;fillColor=none;spacingLeft=4;spacingRight=4;overflow=hidden;rotatable=0;points=[[0,0.5],[1,0.5]];portConstraint=eastwest;fontSize=16;whiteSpace=wrap;html=1;align=center;verticalAlign=middle;" parent="Yl3m7NVMGg6Dee1x0JeU-508" vertex="1">
          <mxGeometry x="30" y="130.0000000000001" width="120" height="50" as="geometry" />
        </mxCell>
        <mxCell id="Yl3m7NVMGg6Dee1x0JeU-514" value="R50 000&lt;span style=&quot;font-size: medium; text-align: start;&quot;&gt;&lt;/span&gt;" style="text;strokeColor=none;fillColor=none;spacingLeft=4;spacingRight=4;overflow=hidden;rotatable=0;points=[[0,0.5],[1,0.5]];portConstraint=eastwest;fontSize=16;whiteSpace=wrap;html=1;align=center;verticalAlign=middle;" parent="Yl3m7NVMGg6Dee1x0JeU-508" vertex="1">
          <mxGeometry x="30" y="80.00000000000011" width="120" height="50" as="geometry" />
        </mxCell>
        <mxCell id="Yl3m7NVMGg6Dee1x0JeU-515" value="" style="endArrow=none;html=1;rounded=0;verticalAlign=top;fontSize=30;strokeWidth=3;" parent="Yl3m7NVMGg6Dee1x0JeU-508" edge="1">
          <mxGeometry relative="1" as="geometry">
            <mxPoint y="80.00000000000011" as="sourcePoint" />
            <mxPoint x="180" y="80.00000000000011" as="targetPoint" />
          </mxGeometry>
        </mxCell>
        <mxCell id="Yl3m7NVMGg6Dee1x0JeU-516" value="" style="group" parent="1" vertex="1" connectable="0">
          <mxGeometry x="4312" y="787" width="180" height="180.0000000000001" as="geometry" />
        </mxCell>
        <mxCell id="Yl3m7NVMGg6Dee1x0JeU-517" value="Define Sprint Milestones " style="whiteSpace=wrap;rounded=1;fillColor=#ffcd28;strokeColor=#d79b00;shadow=1;fontStyle=0;gradientColor=#ffa500;verticalAlign=top;strokeWidth=4;fontSize=14;" parent="Yl3m7NVMGg6Dee1x0JeU-516" vertex="1">
          <mxGeometry y="30.000000000000114" width="180" height="150" as="geometry" />
        </mxCell>
        <mxCell id="Yl3m7NVMGg6Dee1x0JeU-518" value="&lt;font style=&quot;font-size: 18px;&quot;&gt;4.1.2&lt;/font&gt;" style="text;html=1;strokeColor=none;fillColor=none;align=center;verticalAlign=top;whiteSpace=wrap;rounded=0;" parent="Yl3m7NVMGg6Dee1x0JeU-516" vertex="1">
          <mxGeometry x="135" width="45" height="30" as="geometry" />
        </mxCell>
        <mxCell id="Yl3m7NVMGg6Dee1x0JeU-519" value="" style="endArrow=none;html=1;rounded=0;verticalAlign=top;fontSize=30;strokeWidth=3;exitX=0;exitY=0.5;exitDx=0;exitDy=0;" parent="Yl3m7NVMGg6Dee1x0JeU-516" edge="1">
          <mxGeometry relative="1" as="geometry">
            <mxPoint y="130.0000000000001" as="sourcePoint" />
            <mxPoint x="180" y="130.0000000000001" as="targetPoint" />
          </mxGeometry>
        </mxCell>
        <mxCell id="Yl3m7NVMGg6Dee1x0JeU-520" value="Orion&lt;span style=&quot;font-size: medium; text-align: start;&quot;&gt;&lt;/span&gt;" style="text;strokeColor=none;fillColor=none;spacingLeft=4;spacingRight=4;overflow=hidden;rotatable=0;points=[[0,0.5],[1,0.5]];portConstraint=eastwest;fontSize=16;whiteSpace=wrap;html=1;align=center;verticalAlign=middle;" parent="Yl3m7NVMGg6Dee1x0JeU-516" vertex="1">
          <mxGeometry x="30" y="130.0000000000001" width="120" height="50" as="geometry" />
        </mxCell>
        <mxCell id="Yl3m7NVMGg6Dee1x0JeU-521" value="R50 000&lt;span style=&quot;font-size: medium; text-align: start;&quot;&gt;&lt;/span&gt;" style="text;strokeColor=none;fillColor=none;spacingLeft=4;spacingRight=4;overflow=hidden;rotatable=0;points=[[0,0.5],[1,0.5]];portConstraint=eastwest;fontSize=16;whiteSpace=wrap;html=1;align=center;verticalAlign=middle;" parent="Yl3m7NVMGg6Dee1x0JeU-516" vertex="1">
          <mxGeometry x="30" y="80.00000000000011" width="120" height="50" as="geometry" />
        </mxCell>
        <mxCell id="Yl3m7NVMGg6Dee1x0JeU-522" value="" style="endArrow=none;html=1;rounded=0;verticalAlign=top;fontSize=30;strokeWidth=3;" parent="Yl3m7NVMGg6Dee1x0JeU-516" edge="1">
          <mxGeometry relative="1" as="geometry">
            <mxPoint y="80.00000000000011" as="sourcePoint" />
            <mxPoint x="180" y="80.00000000000011" as="targetPoint" />
          </mxGeometry>
        </mxCell>
        <mxCell id="Yl3m7NVMGg6Dee1x0JeU-523" value="" style="group" parent="1" vertex="1" connectable="0">
          <mxGeometry x="4532" y="787" width="180" height="180.0000000000001" as="geometry" />
        </mxCell>
        <mxCell id="Yl3m7NVMGg6Dee1x0JeU-524" style="edgeStyle=orthogonalEdgeStyle;rounded=0;orthogonalLoop=1;jettySize=auto;html=1;exitX=0.5;exitY=0;exitDx=0;exitDy=0;strokeWidth=6;endArrow=none;endFill=0;" parent="Yl3m7NVMGg6Dee1x0JeU-523" source="Yl3m7NVMGg6Dee1x0JeU-525" edge="1">
          <mxGeometry relative="1" as="geometry">
            <mxPoint x="-130" y="-77" as="targetPoint" />
            <Array as="points">
              <mxPoint x="90" y="-37" />
              <mxPoint x="-130" y="-37" />
            </Array>
          </mxGeometry>
        </mxCell>
        <mxCell id="Yl3m7NVMGg6Dee1x0JeU-525" value="Approval of Sprint Breakdown" style="whiteSpace=wrap;rounded=1;fillColor=#ffcd28;strokeColor=#d79b00;shadow=1;fontStyle=0;gradientColor=#ffa500;verticalAlign=top;strokeWidth=4;fontSize=15;" parent="Yl3m7NVMGg6Dee1x0JeU-523" vertex="1">
          <mxGeometry y="30.000000000000114" width="180" height="150" as="geometry" />
        </mxCell>
        <mxCell id="Yl3m7NVMGg6Dee1x0JeU-526" value="&lt;font style=&quot;font-size: 18px;&quot;&gt;4.1.3&lt;/font&gt;" style="text;html=1;strokeColor=none;fillColor=none;align=center;verticalAlign=top;whiteSpace=wrap;rounded=0;" parent="Yl3m7NVMGg6Dee1x0JeU-523" vertex="1">
          <mxGeometry x="135" width="45" height="30" as="geometry" />
        </mxCell>
        <mxCell id="Yl3m7NVMGg6Dee1x0JeU-527" value="" style="endArrow=none;html=1;rounded=0;verticalAlign=top;fontSize=30;strokeWidth=3;exitX=0;exitY=0.5;exitDx=0;exitDy=0;" parent="Yl3m7NVMGg6Dee1x0JeU-523" edge="1">
          <mxGeometry relative="1" as="geometry">
            <mxPoint y="130.0000000000001" as="sourcePoint" />
            <mxPoint x="180" y="130.0000000000001" as="targetPoint" />
          </mxGeometry>
        </mxCell>
        <mxCell id="Yl3m7NVMGg6Dee1x0JeU-528" value="Owen&lt;span style=&quot;font-size: medium; text-align: start;&quot;&gt;&lt;/span&gt;" style="text;strokeColor=none;fillColor=none;spacingLeft=4;spacingRight=4;overflow=hidden;rotatable=0;points=[[0,0.5],[1,0.5]];portConstraint=eastwest;fontSize=16;whiteSpace=wrap;html=1;align=center;verticalAlign=middle;" parent="Yl3m7NVMGg6Dee1x0JeU-523" vertex="1">
          <mxGeometry x="30" y="130.0000000000001" width="120" height="50" as="geometry" />
        </mxCell>
        <mxCell id="Yl3m7NVMGg6Dee1x0JeU-529" value="R25 000&lt;span style=&quot;font-size: medium; text-align: start;&quot;&gt;&lt;/span&gt;" style="text;strokeColor=none;fillColor=none;spacingLeft=4;spacingRight=4;overflow=hidden;rotatable=0;points=[[0,0.5],[1,0.5]];portConstraint=eastwest;fontSize=16;whiteSpace=wrap;html=1;align=center;verticalAlign=middle;" parent="Yl3m7NVMGg6Dee1x0JeU-523" vertex="1">
          <mxGeometry x="30" y="80.00000000000011" width="120" height="50" as="geometry" />
        </mxCell>
        <mxCell id="Yl3m7NVMGg6Dee1x0JeU-530" value="" style="endArrow=none;html=1;rounded=0;verticalAlign=top;fontSize=30;strokeWidth=3;" parent="Yl3m7NVMGg6Dee1x0JeU-523" edge="1">
          <mxGeometry relative="1" as="geometry">
            <mxPoint y="80.00000000000011" as="sourcePoint" />
            <mxPoint x="180" y="80.00000000000011" as="targetPoint" />
          </mxGeometry>
        </mxCell>
        <mxCell id="Yl3m7NVMGg6Dee1x0JeU-531" value="" style="group" parent="1" vertex="1" connectable="0">
          <mxGeometry x="4772" y="785.6199999999999" width="180" height="180.0000000000001" as="geometry" />
        </mxCell>
        <mxCell id="Yl3m7NVMGg6Dee1x0JeU-532" style="rounded=0;orthogonalLoop=1;jettySize=auto;html=1;exitX=0.5;exitY=0;exitDx=0;exitDy=0;endArrow=none;endFill=0;strokeWidth=6;edgeStyle=orthogonalEdgeStyle;" parent="Yl3m7NVMGg6Dee1x0JeU-531" source="Yl3m7NVMGg6Dee1x0JeU-533" edge="1">
          <mxGeometry relative="1" as="geometry">
            <mxPoint x="310" y="-75.61999999999989" as="targetPoint" />
            <Array as="points">
              <mxPoint x="90" y="-36" />
              <mxPoint x="310" y="-36" />
            </Array>
          </mxGeometry>
        </mxCell>
        <mxCell id="Yl3m7NVMGg6Dee1x0JeU-533" value="Itrative Planning&#xa; and Adaptation" style="whiteSpace=wrap;rounded=1;fillColor=#ffcd28;strokeColor=#d79b00;shadow=1;fontStyle=0;gradientColor=#ffa500;verticalAlign=top;strokeWidth=4;" parent="Yl3m7NVMGg6Dee1x0JeU-531" vertex="1">
          <mxGeometry y="30.000000000000114" width="180" height="150" as="geometry" />
        </mxCell>
        <mxCell id="Yl3m7NVMGg6Dee1x0JeU-534" value="&lt;font style=&quot;font-size: 18px;&quot;&gt;4.2.1&lt;/font&gt;" style="text;html=1;strokeColor=none;fillColor=none;align=center;verticalAlign=top;whiteSpace=wrap;rounded=0;" parent="Yl3m7NVMGg6Dee1x0JeU-531" vertex="1">
          <mxGeometry x="135" width="45" height="30" as="geometry" />
        </mxCell>
        <mxCell id="Yl3m7NVMGg6Dee1x0JeU-535" value="" style="endArrow=none;html=1;rounded=0;verticalAlign=top;fontSize=30;strokeWidth=3;exitX=0;exitY=0.5;exitDx=0;exitDy=0;" parent="Yl3m7NVMGg6Dee1x0JeU-531" edge="1">
          <mxGeometry relative="1" as="geometry">
            <mxPoint y="130.0000000000001" as="sourcePoint" />
            <mxPoint x="180" y="130.0000000000001" as="targetPoint" />
          </mxGeometry>
        </mxCell>
        <mxCell id="Yl3m7NVMGg6Dee1x0JeU-536" value="Onyx&lt;span style=&quot;font-size: medium; text-align: start;&quot;&gt;&lt;/span&gt;" style="text;strokeColor=none;fillColor=none;spacingLeft=4;spacingRight=4;overflow=hidden;rotatable=0;points=[[0,0.5],[1,0.5]];portConstraint=eastwest;fontSize=16;whiteSpace=wrap;html=1;align=center;verticalAlign=middle;" parent="Yl3m7NVMGg6Dee1x0JeU-531" vertex="1">
          <mxGeometry x="30" y="130.0000000000001" width="120" height="50" as="geometry" />
        </mxCell>
        <mxCell id="Yl3m7NVMGg6Dee1x0JeU-537" value="R50 000&lt;span style=&quot;font-size: medium; text-align: start;&quot;&gt;&lt;/span&gt;" style="text;strokeColor=none;fillColor=none;spacingLeft=4;spacingRight=4;overflow=hidden;rotatable=0;points=[[0,0.5],[1,0.5]];portConstraint=eastwest;fontSize=16;whiteSpace=wrap;html=1;align=center;verticalAlign=middle;" parent="Yl3m7NVMGg6Dee1x0JeU-531" vertex="1">
          <mxGeometry x="30" y="80.00000000000011" width="120" height="50" as="geometry" />
        </mxCell>
        <mxCell id="Yl3m7NVMGg6Dee1x0JeU-538" value="" style="endArrow=none;html=1;rounded=0;verticalAlign=top;fontSize=30;strokeWidth=3;" parent="Yl3m7NVMGg6Dee1x0JeU-531" edge="1">
          <mxGeometry relative="1" as="geometry">
            <mxPoint y="80.00000000000011" as="sourcePoint" />
            <mxPoint x="180" y="80.00000000000011" as="targetPoint" />
          </mxGeometry>
        </mxCell>
        <mxCell id="Yl3m7NVMGg6Dee1x0JeU-539" value="" style="group" parent="1" vertex="1" connectable="0">
          <mxGeometry x="4992" y="787" width="180" height="180.0000000000001" as="geometry" />
        </mxCell>
        <mxCell id="Yl3m7NVMGg6Dee1x0JeU-540" value="Daily Stand-up Meetings and &#xa;Progress Tracking" style="whiteSpace=wrap;rounded=1;fillColor=#ffcd28;strokeColor=#d79b00;shadow=1;fontStyle=0;gradientColor=#ffa500;verticalAlign=top;strokeWidth=4;" parent="Yl3m7NVMGg6Dee1x0JeU-539" vertex="1">
          <mxGeometry y="30.000000000000114" width="180" height="150" as="geometry" />
        </mxCell>
        <mxCell id="Yl3m7NVMGg6Dee1x0JeU-541" value="&lt;font style=&quot;font-size: 18px;&quot;&gt;4.2.2&lt;/font&gt;" style="text;html=1;strokeColor=none;fillColor=none;align=center;verticalAlign=top;whiteSpace=wrap;rounded=0;" parent="Yl3m7NVMGg6Dee1x0JeU-539" vertex="1">
          <mxGeometry x="135" width="45" height="30" as="geometry" />
        </mxCell>
        <mxCell id="Yl3m7NVMGg6Dee1x0JeU-542" value="" style="endArrow=none;html=1;rounded=0;verticalAlign=top;fontSize=30;strokeWidth=3;exitX=0;exitY=0.5;exitDx=0;exitDy=0;" parent="Yl3m7NVMGg6Dee1x0JeU-539" edge="1">
          <mxGeometry relative="1" as="geometry">
            <mxPoint y="130.0000000000001" as="sourcePoint" />
            <mxPoint x="180" y="130.0000000000001" as="targetPoint" />
          </mxGeometry>
        </mxCell>
        <mxCell id="Yl3m7NVMGg6Dee1x0JeU-543" value="Otis&lt;span style=&quot;font-size: medium; text-align: start;&quot;&gt;&lt;/span&gt;" style="text;strokeColor=none;fillColor=none;spacingLeft=4;spacingRight=4;overflow=hidden;rotatable=0;points=[[0,0.5],[1,0.5]];portConstraint=eastwest;fontSize=16;whiteSpace=wrap;html=1;align=center;verticalAlign=middle;" parent="Yl3m7NVMGg6Dee1x0JeU-539" vertex="1">
          <mxGeometry x="30" y="130.0000000000001" width="120" height="50" as="geometry" />
        </mxCell>
        <mxCell id="Yl3m7NVMGg6Dee1x0JeU-544" value="R50 000&lt;span style=&quot;font-size: medium; text-align: start;&quot;&gt;&lt;/span&gt;" style="text;strokeColor=none;fillColor=none;spacingLeft=4;spacingRight=4;overflow=hidden;rotatable=0;points=[[0,0.5],[1,0.5]];portConstraint=eastwest;fontSize=16;whiteSpace=wrap;html=1;align=center;verticalAlign=middle;" parent="Yl3m7NVMGg6Dee1x0JeU-539" vertex="1">
          <mxGeometry x="30" y="80.00000000000011" width="120" height="50" as="geometry" />
        </mxCell>
        <mxCell id="Yl3m7NVMGg6Dee1x0JeU-545" value="" style="endArrow=none;html=1;rounded=0;verticalAlign=top;fontSize=30;strokeWidth=3;" parent="Yl3m7NVMGg6Dee1x0JeU-539" edge="1">
          <mxGeometry relative="1" as="geometry">
            <mxPoint y="80.00000000000011" as="sourcePoint" />
            <mxPoint x="180" y="80.00000000000011" as="targetPoint" />
          </mxGeometry>
        </mxCell>
        <mxCell id="Yl3m7NVMGg6Dee1x0JeU-546" style="edgeStyle=orthogonalEdgeStyle;rounded=0;orthogonalLoop=1;jettySize=auto;html=1;exitX=0.5;exitY=0;exitDx=0;exitDy=0;entryX=0.5;entryY=1;entryDx=0;entryDy=0;strokeWidth=6;endArrow=none;endFill=0;" parent="1" source="Yl3m7NVMGg6Dee1x0JeU-540" edge="1">
          <mxGeometry relative="1" as="geometry">
            <Array as="points">
              <mxPoint x="5082" y="720" />
              <mxPoint x="5082" y="720" />
            </Array>
            <mxPoint x="5082" y="710" as="targetPoint" />
          </mxGeometry>
        </mxCell>
        <mxCell id="Yl3m7NVMGg6Dee1x0JeU-547" value="" style="group" parent="1" vertex="1" connectable="0">
          <mxGeometry x="5212" y="787" width="180" height="180.0000000000001" as="geometry" />
        </mxCell>
        <mxCell id="Yl3m7NVMGg6Dee1x0JeU-548" value="Present Sprint outcomes to &#xa;Stakeholders" style="whiteSpace=wrap;rounded=1;fillColor=#ffcd28;strokeColor=#d79b00;shadow=1;fontStyle=0;gradientColor=#ffa500;verticalAlign=top;strokeWidth=4;" parent="Yl3m7NVMGg6Dee1x0JeU-547" vertex="1">
          <mxGeometry y="30.000000000000114" width="180" height="150" as="geometry" />
        </mxCell>
        <mxCell id="Yl3m7NVMGg6Dee1x0JeU-549" value="&lt;font style=&quot;font-size: 18px;&quot;&gt;4.2.3&lt;/font&gt;" style="text;html=1;strokeColor=none;fillColor=none;align=center;verticalAlign=top;whiteSpace=wrap;rounded=0;" parent="Yl3m7NVMGg6Dee1x0JeU-547" vertex="1">
          <mxGeometry x="135" width="45" height="30" as="geometry" />
        </mxCell>
        <mxCell id="Yl3m7NVMGg6Dee1x0JeU-550" value="" style="endArrow=none;html=1;rounded=0;verticalAlign=top;fontSize=30;strokeWidth=3;exitX=0;exitY=0.5;exitDx=0;exitDy=0;" parent="Yl3m7NVMGg6Dee1x0JeU-547" edge="1">
          <mxGeometry relative="1" as="geometry">
            <mxPoint y="130.0000000000001" as="sourcePoint" />
            <mxPoint x="180" y="130.0000000000001" as="targetPoint" />
          </mxGeometry>
        </mxCell>
        <mxCell id="Yl3m7NVMGg6Dee1x0JeU-551" value="Ozzy&lt;span style=&quot;font-size: medium; text-align: start;&quot;&gt;&lt;/span&gt;" style="text;strokeColor=none;fillColor=none;spacingLeft=4;spacingRight=4;overflow=hidden;rotatable=0;points=[[0,0.5],[1,0.5]];portConstraint=eastwest;fontSize=16;whiteSpace=wrap;html=1;align=center;verticalAlign=middle;" parent="Yl3m7NVMGg6Dee1x0JeU-547" vertex="1">
          <mxGeometry x="30" y="130.0000000000001" width="120" height="50" as="geometry" />
        </mxCell>
        <mxCell id="Yl3m7NVMGg6Dee1x0JeU-552" value="R25 000&lt;span style=&quot;font-size: medium; text-align: start;&quot;&gt;&lt;/span&gt;" style="text;strokeColor=none;fillColor=none;spacingLeft=4;spacingRight=4;overflow=hidden;rotatable=0;points=[[0,0.5],[1,0.5]];portConstraint=eastwest;fontSize=16;whiteSpace=wrap;html=1;align=center;verticalAlign=middle;" parent="Yl3m7NVMGg6Dee1x0JeU-547" vertex="1">
          <mxGeometry x="30" y="80.00000000000011" width="120" height="50" as="geometry" />
        </mxCell>
        <mxCell id="Yl3m7NVMGg6Dee1x0JeU-553" value="" style="endArrow=none;html=1;rounded=0;verticalAlign=top;fontSize=30;strokeWidth=3;" parent="Yl3m7NVMGg6Dee1x0JeU-547" edge="1">
          <mxGeometry relative="1" as="geometry">
            <mxPoint y="80.00000000000011" as="sourcePoint" />
            <mxPoint x="180" y="80.00000000000011" as="targetPoint" />
          </mxGeometry>
        </mxCell>
        <mxCell id="Yl3m7NVMGg6Dee1x0JeU-554" style="edgeStyle=orthogonalEdgeStyle;rounded=0;orthogonalLoop=1;jettySize=auto;html=1;exitX=0.5;exitY=0;exitDx=0;exitDy=0;entryX=0.5;entryY=1;entryDx=0;entryDy=0;strokeWidth=6;endArrow=none;endFill=0;" parent="1" source="Yl3m7NVMGg6Dee1x0JeU-517" target="Yl3m7NVMGg6Dee1x0JeU-485" edge="1">
          <mxGeometry relative="1" as="geometry">
            <Array as="points">
              <mxPoint x="4402" y="676" />
              <mxPoint x="4402" y="676" />
            </Array>
          </mxGeometry>
        </mxCell>
        <mxCell id="Yl3m7NVMGg6Dee1x0JeU-555" style="edgeStyle=orthogonalEdgeStyle;rounded=0;orthogonalLoop=1;jettySize=auto;html=1;exitX=0.5;exitY=0;exitDx=0;exitDy=0;strokeWidth=6;endArrow=none;endFill=0;entryX=0.501;entryY=0.979;entryDx=0;entryDy=0;entryPerimeter=0;" parent="1" source="Yl3m7NVMGg6Dee1x0JeU-548" target="Yl3m7NVMGg6Dee1x0JeU-496" edge="1">
          <mxGeometry relative="1" as="geometry">
            <mxPoint x="5082" y="710" as="targetPoint" />
            <Array as="points">
              <mxPoint x="5302" y="750" />
              <mxPoint x="5082" y="750" />
            </Array>
          </mxGeometry>
        </mxCell>
        <mxCell id="Yl3m7NVMGg6Dee1x0JeU-556" value="" style="group" parent="1" vertex="1" connectable="0">
          <mxGeometry x="5440" y="209.9999999999999" width="1300" height="713.0000000000001" as="geometry" />
        </mxCell>
        <mxCell id="Yl3m7NVMGg6Dee1x0JeU-557" value="" style="group" parent="Yl3m7NVMGg6Dee1x0JeU-556" vertex="1" connectable="0">
          <mxGeometry y="276" width="620" height="437.0000000000001" as="geometry" />
        </mxCell>
        <mxCell id="Yl3m7NVMGg6Dee1x0JeU-558" value="" style="group" parent="Yl3m7NVMGg6Dee1x0JeU-557" vertex="1" connectable="0">
          <mxGeometry x="220" width="180" height="180.0000000000001" as="geometry" />
        </mxCell>
        <mxCell id="Yl3m7NVMGg6Dee1x0JeU-559" value="Risk Assessment" style="whiteSpace=wrap;rounded=1;fillColor=#fff2cc;strokeColor=#d6b656;shadow=1;fontStyle=1;gradientColor=#ffd966;verticalAlign=top;strokeWidth=4;fontSize=16;" parent="Yl3m7NVMGg6Dee1x0JeU-558" vertex="1">
          <mxGeometry y="30.000000000000114" width="180" height="150" as="geometry" />
        </mxCell>
        <mxCell id="Yl3m7NVMGg6Dee1x0JeU-560" value="&lt;font style=&quot;font-size: 18px;&quot;&gt;5.1&lt;/font&gt;" style="text;html=1;strokeColor=none;fillColor=none;align=center;verticalAlign=top;whiteSpace=wrap;rounded=0;" parent="Yl3m7NVMGg6Dee1x0JeU-558" vertex="1">
          <mxGeometry x="135" width="45" height="30" as="geometry" />
        </mxCell>
        <mxCell id="Yl3m7NVMGg6Dee1x0JeU-561" value="" style="endArrow=none;html=1;rounded=0;verticalAlign=top;fontSize=30;strokeWidth=3;exitX=0;exitY=0.5;exitDx=0;exitDy=0;" parent="Yl3m7NVMGg6Dee1x0JeU-558" edge="1">
          <mxGeometry relative="1" as="geometry">
            <mxPoint y="130.0000000000001" as="sourcePoint" />
            <mxPoint x="180" y="130.0000000000001" as="targetPoint" />
          </mxGeometry>
        </mxCell>
        <mxCell id="Yl3m7NVMGg6Dee1x0JeU-562" value="Landon&lt;span style=&quot;font-size: medium; text-align: start;&quot;&gt;&lt;/span&gt;" style="text;strokeColor=none;fillColor=none;spacingLeft=4;spacingRight=4;overflow=hidden;rotatable=0;points=[[0,0.5],[1,0.5]];portConstraint=eastwest;fontSize=16;whiteSpace=wrap;html=1;align=center;verticalAlign=middle;" parent="Yl3m7NVMGg6Dee1x0JeU-558" vertex="1">
          <mxGeometry x="30" y="130.0000000000001" width="120" height="50" as="geometry" />
        </mxCell>
        <mxCell id="Yl3m7NVMGg6Dee1x0JeU-563" value="R150 000&lt;span style=&quot;font-size: medium; text-align: start;&quot;&gt;&lt;/span&gt;" style="text;strokeColor=none;fillColor=none;spacingLeft=4;spacingRight=4;overflow=hidden;rotatable=0;points=[[0,0.5],[1,0.5]];portConstraint=eastwest;fontSize=16;whiteSpace=wrap;html=1;align=center;verticalAlign=middle;" parent="Yl3m7NVMGg6Dee1x0JeU-558" vertex="1">
          <mxGeometry x="30" y="80.00000000000011" width="120" height="50" as="geometry" />
        </mxCell>
        <mxCell id="Yl3m7NVMGg6Dee1x0JeU-565" value="" style="group" parent="Yl3m7NVMGg6Dee1x0JeU-556" vertex="1" connectable="0">
          <mxGeometry x="680" y="276" width="620" height="437.0000000000001" as="geometry" />
        </mxCell>
        <mxCell id="Yl3m7NVMGg6Dee1x0JeU-566" value="" style="group" parent="Yl3m7NVMGg6Dee1x0JeU-565" vertex="1" connectable="0">
          <mxGeometry x="220" width="180" height="180.0000000000001" as="geometry" />
        </mxCell>
        <mxCell id="Yl3m7NVMGg6Dee1x0JeU-567" value="Risk Mitigation &#xa;Strategies" style="whiteSpace=wrap;rounded=1;fillColor=#fff2cc;strokeColor=#d6b656;shadow=1;fontStyle=1;gradientColor=#ffd966;verticalAlign=top;strokeWidth=4;fontSize=16;" parent="Yl3m7NVMGg6Dee1x0JeU-566" vertex="1">
          <mxGeometry y="30.000000000000114" width="180" height="150" as="geometry" />
        </mxCell>
        <mxCell id="Yl3m7NVMGg6Dee1x0JeU-568" value="&lt;font style=&quot;font-size: 18px;&quot;&gt;5.2&lt;/font&gt;" style="text;html=1;strokeColor=none;fillColor=none;align=center;verticalAlign=top;whiteSpace=wrap;rounded=0;" parent="Yl3m7NVMGg6Dee1x0JeU-566" vertex="1">
          <mxGeometry x="135" width="45" height="30" as="geometry" />
        </mxCell>
        <mxCell id="Yl3m7NVMGg6Dee1x0JeU-569" value="" style="endArrow=none;html=1;rounded=0;verticalAlign=top;fontSize=30;strokeWidth=3;exitX=0;exitY=0.5;exitDx=0;exitDy=0;" parent="Yl3m7NVMGg6Dee1x0JeU-566" edge="1">
          <mxGeometry relative="1" as="geometry">
            <mxPoint y="130.0000000000001" as="sourcePoint" />
            <mxPoint x="180" y="130.0000000000001" as="targetPoint" />
          </mxGeometry>
        </mxCell>
        <mxCell id="Yl3m7NVMGg6Dee1x0JeU-570" value="Levi&lt;span style=&quot;font-size: medium; text-align: start;&quot;&gt;&lt;/span&gt;" style="text;strokeColor=none;fillColor=none;spacingLeft=4;spacingRight=4;overflow=hidden;rotatable=0;points=[[0,0.5],[1,0.5]];portConstraint=eastwest;fontSize=16;whiteSpace=wrap;html=1;align=center;verticalAlign=middle;" parent="Yl3m7NVMGg6Dee1x0JeU-566" vertex="1">
          <mxGeometry x="30" y="130.0000000000001" width="120" height="50" as="geometry" />
        </mxCell>
        <mxCell id="Yl3m7NVMGg6Dee1x0JeU-571" value="R150 000&lt;span style=&quot;font-size: medium; text-align: start;&quot;&gt;&lt;/span&gt;" style="text;strokeColor=none;fillColor=none;spacingLeft=4;spacingRight=4;overflow=hidden;rotatable=0;points=[[0,0.5],[1,0.5]];portConstraint=eastwest;fontSize=16;whiteSpace=wrap;html=1;align=center;verticalAlign=middle;" parent="Yl3m7NVMGg6Dee1x0JeU-566" vertex="1">
          <mxGeometry x="30" y="80.00000000000011" width="120" height="50" as="geometry" />
        </mxCell>
        <mxCell id="Yl3m7NVMGg6Dee1x0JeU-572" value="" style="endArrow=none;html=1;rounded=0;verticalAlign=top;fontSize=30;strokeWidth=3;" parent="Yl3m7NVMGg6Dee1x0JeU-566" edge="1">
          <mxGeometry relative="1" as="geometry">
            <mxPoint y="80.00000000000011" as="sourcePoint" />
            <mxPoint x="180" y="80.00000000000011" as="targetPoint" />
          </mxGeometry>
        </mxCell>
        <mxCell id="Yl3m7NVMGg6Dee1x0JeU-573" value="" style="group" parent="Yl3m7NVMGg6Dee1x0JeU-556" vertex="1" connectable="0">
          <mxGeometry x="570" y="-10" width="180" height="180.0000000000001" as="geometry" />
        </mxCell>
        <mxCell id="Yl3m7NVMGg6Dee1x0JeU-574" value="Risk Management &#xa;Plan" style="whiteSpace=wrap;rounded=1;fillColor=#d5e8d4;strokeColor=#82b366;shadow=1;fontStyle=1;gradientColor=#97d077;verticalAlign=top;strokeWidth=4;fontSize=16;" parent="Yl3m7NVMGg6Dee1x0JeU-573" vertex="1">
          <mxGeometry y="30.000000000000114" width="180" height="150" as="geometry" />
        </mxCell>
        <mxCell id="Yl3m7NVMGg6Dee1x0JeU-575" value="&lt;font style=&quot;font-size: 18px;&quot;&gt;5&lt;/font&gt;" style="text;html=1;strokeColor=none;fillColor=none;align=center;verticalAlign=top;whiteSpace=wrap;rounded=0;" parent="Yl3m7NVMGg6Dee1x0JeU-573" vertex="1">
          <mxGeometry x="135" width="45" height="30" as="geometry" />
        </mxCell>
        <mxCell id="Yl3m7NVMGg6Dee1x0JeU-576" value="" style="endArrow=none;html=1;rounded=0;verticalAlign=top;fontSize=30;strokeWidth=3;exitX=0;exitY=0.5;exitDx=0;exitDy=0;" parent="Yl3m7NVMGg6Dee1x0JeU-573" edge="1">
          <mxGeometry relative="1" as="geometry">
            <mxPoint y="130.0000000000001" as="sourcePoint" />
            <mxPoint x="180" y="130.0000000000001" as="targetPoint" />
          </mxGeometry>
        </mxCell>
        <mxCell id="Yl3m7NVMGg6Dee1x0JeU-577" value="Lwethu&lt;span style=&quot;font-size: medium; text-align: start;&quot;&gt;&lt;/span&gt;" style="text;strokeColor=none;fillColor=none;spacingLeft=4;spacingRight=4;overflow=hidden;rotatable=0;points=[[0,0.5],[1,0.5]];portConstraint=eastwest;fontSize=16;whiteSpace=wrap;html=1;align=center;verticalAlign=middle;" parent="Yl3m7NVMGg6Dee1x0JeU-573" vertex="1">
          <mxGeometry x="30" y="130.0000000000001" width="120" height="50" as="geometry" />
        </mxCell>
        <mxCell id="Yl3m7NVMGg6Dee1x0JeU-578" value="R300 000&lt;span style=&quot;font-size: medium; text-align: start;&quot;&gt;&lt;/span&gt;" style="text;strokeColor=none;fillColor=none;spacingLeft=4;spacingRight=4;overflow=hidden;rotatable=0;points=[[0,0.5],[1,0.5]];portConstraint=eastwest;fontSize=16;whiteSpace=wrap;html=1;align=center;verticalAlign=middle;" parent="Yl3m7NVMGg6Dee1x0JeU-573" vertex="1">
          <mxGeometry x="30" y="80.00000000000011" width="120" height="50" as="geometry" />
        </mxCell>
        <mxCell id="Yl3m7NVMGg6Dee1x0JeU-579" value="" style="endArrow=none;html=1;rounded=0;verticalAlign=top;fontSize=30;strokeWidth=3;" parent="Yl3m7NVMGg6Dee1x0JeU-573" edge="1">
          <mxGeometry relative="1" as="geometry">
            <mxPoint y="80.00000000000011" as="sourcePoint" />
            <mxPoint x="180" y="80.00000000000011" as="targetPoint" />
          </mxGeometry>
        </mxCell>
        <mxCell id="Yl3m7NVMGg6Dee1x0JeU-580" style="edgeStyle=orthogonalEdgeStyle;rounded=0;orthogonalLoop=1;jettySize=auto;html=1;exitX=0.5;exitY=0;exitDx=0;exitDy=0;entryX=0.495;entryY=1.018;entryDx=0;entryDy=0;entryPerimeter=0;strokeWidth=6;endArrow=none;endFill=0;" parent="Yl3m7NVMGg6Dee1x0JeU-556" source="Yl3m7NVMGg6Dee1x0JeU-559" target="Yl3m7NVMGg6Dee1x0JeU-577" edge="1">
          <mxGeometry relative="1" as="geometry">
            <mxPoint x="650" y="190.0000000000001" as="targetPoint" />
            <Array as="points">
              <mxPoint x="310" y="250" />
              <mxPoint x="659" y="250" />
            </Array>
          </mxGeometry>
        </mxCell>
        <mxCell id="Yl3m7NVMGg6Dee1x0JeU-581" style="edgeStyle=orthogonalEdgeStyle;rounded=0;orthogonalLoop=1;jettySize=auto;html=1;exitX=0.5;exitY=0;exitDx=0;exitDy=0;entryX=0.485;entryY=1.016;entryDx=0;entryDy=0;entryPerimeter=0;strokeWidth=6;endArrow=none;endFill=0;" parent="Yl3m7NVMGg6Dee1x0JeU-556" source="Yl3m7NVMGg6Dee1x0JeU-567" target="Yl3m7NVMGg6Dee1x0JeU-577" edge="1">
          <mxGeometry relative="1" as="geometry">
            <mxPoint x="650" y="180.0000000000001" as="targetPoint" />
            <Array as="points">
              <mxPoint x="990" y="250" />
              <mxPoint x="658" y="250" />
            </Array>
          </mxGeometry>
        </mxCell>
        <mxCell id="Yl3m7NVMGg6Dee1x0JeU-582" value="" style="group;strokeWidth=0;" parent="1" vertex="1" connectable="0">
          <mxGeometry x="5440" y="785.6199999999999" width="180" height="180.0000000000001" as="geometry" />
        </mxCell>
        <mxCell id="Yl3m7NVMGg6Dee1x0JeU-583" style="rounded=0;orthogonalLoop=1;jettySize=auto;html=1;exitX=0.5;exitY=0;exitDx=0;exitDy=0;endArrow=none;endFill=0;strokeWidth=6;edgeStyle=orthogonalEdgeStyle;" parent="Yl3m7NVMGg6Dee1x0JeU-582" source="Yl3m7NVMGg6Dee1x0JeU-584" edge="1">
          <mxGeometry relative="1" as="geometry">
            <mxPoint x="310" y="-75.61999999999989" as="targetPoint" />
            <Array as="points">
              <mxPoint x="90" y="-36" />
              <mxPoint x="310" y="-36" />
            </Array>
          </mxGeometry>
        </mxCell>
        <mxCell id="Yl3m7NVMGg6Dee1x0JeU-584" value="Identify Risks specific to PWA &#xa;Development and Safety Features" style="whiteSpace=wrap;rounded=1;fillColor=#ffcd28;strokeColor=#d79b00;shadow=1;fontStyle=0;gradientColor=#ffa500;verticalAlign=top;strokeWidth=4;" parent="Yl3m7NVMGg6Dee1x0JeU-582" vertex="1">
          <mxGeometry y="30.000000000000114" width="180" height="150" as="geometry" />
        </mxCell>
        <mxCell id="Yl3m7NVMGg6Dee1x0JeU-585" value="&lt;font style=&quot;font-size: 18px;&quot;&gt;5.1.1&lt;/font&gt;" style="text;html=1;strokeColor=none;fillColor=none;align=center;verticalAlign=top;whiteSpace=wrap;rounded=0;" parent="Yl3m7NVMGg6Dee1x0JeU-582" vertex="1">
          <mxGeometry x="135" width="45" height="30" as="geometry" />
        </mxCell>
        <mxCell id="Yl3m7NVMGg6Dee1x0JeU-586" value="" style="endArrow=none;html=1;rounded=0;verticalAlign=top;fontSize=30;strokeWidth=3;exitX=0;exitY=0.5;exitDx=0;exitDy=0;" parent="Yl3m7NVMGg6Dee1x0JeU-582" edge="1">
          <mxGeometry relative="1" as="geometry">
            <mxPoint y="130.0000000000001" as="sourcePoint" />
            <mxPoint x="180" y="130.0000000000001" as="targetPoint" />
          </mxGeometry>
        </mxCell>
        <mxCell id="Yl3m7NVMGg6Dee1x0JeU-587" value="Luca&lt;span style=&quot;font-size: medium; text-align: start;&quot;&gt;&lt;/span&gt;" style="text;strokeColor=none;fillColor=none;spacingLeft=4;spacingRight=4;overflow=hidden;rotatable=0;points=[[0,0.5],[1,0.5]];portConstraint=eastwest;fontSize=16;whiteSpace=wrap;html=1;align=center;verticalAlign=middle;" parent="Yl3m7NVMGg6Dee1x0JeU-582" vertex="1">
          <mxGeometry x="30" y="130.0000000000001" width="120" height="50" as="geometry" />
        </mxCell>
        <mxCell id="Yl3m7NVMGg6Dee1x0JeU-588" value="R50 000" style="text;strokeColor=none;fillColor=none;spacingLeft=4;spacingRight=4;overflow=hidden;rotatable=0;points=[[0,0.5],[1,0.5]];portConstraint=eastwest;fontSize=16;whiteSpace=wrap;html=1;align=center;verticalAlign=middle;" parent="Yl3m7NVMGg6Dee1x0JeU-582" vertex="1">
          <mxGeometry x="30" y="80.00000000000011" width="120" height="50" as="geometry" />
        </mxCell>
        <mxCell id="Yl3m7NVMGg6Dee1x0JeU-589" value="" style="endArrow=none;html=1;rounded=0;verticalAlign=top;fontSize=30;strokeWidth=3;" parent="Yl3m7NVMGg6Dee1x0JeU-582" edge="1">
          <mxGeometry relative="1" as="geometry">
            <mxPoint y="89.80000000000011" as="sourcePoint" />
            <mxPoint x="180" y="89.80000000000011" as="targetPoint" />
          </mxGeometry>
        </mxCell>
        <mxCell id="Yl3m7NVMGg6Dee1x0JeU-590" value="" style="group" parent="1" vertex="1" connectable="0">
          <mxGeometry x="5660" y="787" width="180" height="180.0000000000001" as="geometry" />
        </mxCell>
        <mxCell id="Yl3m7NVMGg6Dee1x0JeU-591" value="Perform Risk Analysis and &#xa;Prioritisation " style="whiteSpace=wrap;rounded=1;fillColor=#ffcd28;strokeColor=#d79b00;shadow=1;fontStyle=0;gradientColor=#ffa500;verticalAlign=top;strokeWidth=4;" parent="Yl3m7NVMGg6Dee1x0JeU-590" vertex="1">
          <mxGeometry y="30.000000000000114" width="180" height="150" as="geometry" />
        </mxCell>
        <mxCell id="Yl3m7NVMGg6Dee1x0JeU-592" value="&lt;font style=&quot;font-size: 18px;&quot;&gt;5.1.2&lt;/font&gt;" style="text;html=1;strokeColor=none;fillColor=none;align=center;verticalAlign=top;whiteSpace=wrap;rounded=0;" parent="Yl3m7NVMGg6Dee1x0JeU-590" vertex="1">
          <mxGeometry x="135" width="45" height="30" as="geometry" />
        </mxCell>
        <mxCell id="Yl3m7NVMGg6Dee1x0JeU-593" value="" style="endArrow=none;html=1;rounded=0;verticalAlign=top;fontSize=30;strokeWidth=3;exitX=0;exitY=0.5;exitDx=0;exitDy=0;" parent="Yl3m7NVMGg6Dee1x0JeU-590" edge="1">
          <mxGeometry relative="1" as="geometry">
            <mxPoint y="130.0000000000001" as="sourcePoint" />
            <mxPoint x="180" y="130.0000000000001" as="targetPoint" />
          </mxGeometry>
        </mxCell>
        <mxCell id="Yl3m7NVMGg6Dee1x0JeU-594" value="Lacey&lt;span style=&quot;font-size: medium; text-align: start;&quot;&gt;&lt;/span&gt;" style="text;strokeColor=none;fillColor=none;spacingLeft=4;spacingRight=4;overflow=hidden;rotatable=0;points=[[0,0.5],[1,0.5]];portConstraint=eastwest;fontSize=16;whiteSpace=wrap;html=1;align=center;verticalAlign=middle;" parent="Yl3m7NVMGg6Dee1x0JeU-590" vertex="1">
          <mxGeometry x="30" y="130.0000000000001" width="120" height="50" as="geometry" />
        </mxCell>
        <mxCell id="Yl3m7NVMGg6Dee1x0JeU-595" value="R50 000&lt;span style=&quot;font-size: medium; text-align: start;&quot;&gt;&lt;/span&gt;" style="text;strokeColor=none;fillColor=none;spacingLeft=4;spacingRight=4;overflow=hidden;rotatable=0;points=[[0,0.5],[1,0.5]];portConstraint=eastwest;fontSize=16;whiteSpace=wrap;html=1;align=center;verticalAlign=middle;" parent="Yl3m7NVMGg6Dee1x0JeU-590" vertex="1">
          <mxGeometry x="30" y="80.00000000000011" width="120" height="50" as="geometry" />
        </mxCell>
        <mxCell id="Yl3m7NVMGg6Dee1x0JeU-596" value="" style="endArrow=none;html=1;rounded=0;verticalAlign=top;fontSize=30;strokeWidth=3;" parent="Yl3m7NVMGg6Dee1x0JeU-590" edge="1">
          <mxGeometry relative="1" as="geometry">
            <mxPoint y="80.00000000000011" as="sourcePoint" />
            <mxPoint x="180" y="80.00000000000011" as="targetPoint" />
          </mxGeometry>
        </mxCell>
        <mxCell id="Yl3m7NVMGg6Dee1x0JeU-597" value="" style="group" parent="1" vertex="1" connectable="0">
          <mxGeometry x="5880" y="787" width="180" height="180.0000000000001" as="geometry" />
        </mxCell>
        <mxCell id="Yl3m7NVMGg6Dee1x0JeU-598" style="edgeStyle=orthogonalEdgeStyle;rounded=0;orthogonalLoop=1;jettySize=auto;html=1;exitX=0.5;exitY=0;exitDx=0;exitDy=0;strokeWidth=6;endArrow=none;endFill=0;" parent="Yl3m7NVMGg6Dee1x0JeU-597" source="Yl3m7NVMGg6Dee1x0JeU-599" edge="1">
          <mxGeometry relative="1" as="geometry">
            <mxPoint x="-130" y="-77" as="targetPoint" />
            <Array as="points">
              <mxPoint x="90" y="-37" />
              <mxPoint x="-130" y="-37" />
            </Array>
          </mxGeometry>
        </mxCell>
        <mxCell id="Yl3m7NVMGg6Dee1x0JeU-599" value="Document Risk Assessment&#xa;Results" style="whiteSpace=wrap;rounded=1;fillColor=#ffcd28;strokeColor=#d79b00;shadow=1;fontStyle=0;gradientColor=#ffa500;verticalAlign=top;strokeWidth=4;" parent="Yl3m7NVMGg6Dee1x0JeU-597" vertex="1">
          <mxGeometry y="30.000000000000114" width="180" height="150" as="geometry" />
        </mxCell>
        <mxCell id="Yl3m7NVMGg6Dee1x0JeU-600" value="&lt;font style=&quot;font-size: 18px;&quot;&gt;5.1.3&lt;/font&gt;" style="text;html=1;strokeColor=none;fillColor=none;align=center;verticalAlign=top;whiteSpace=wrap;rounded=0;" parent="Yl3m7NVMGg6Dee1x0JeU-597" vertex="1">
          <mxGeometry x="135" width="45" height="30" as="geometry" />
        </mxCell>
        <mxCell id="Yl3m7NVMGg6Dee1x0JeU-601" value="" style="endArrow=none;html=1;rounded=0;verticalAlign=top;fontSize=30;strokeWidth=3;exitX=0;exitY=0.5;exitDx=0;exitDy=0;" parent="Yl3m7NVMGg6Dee1x0JeU-597" edge="1">
          <mxGeometry relative="1" as="geometry">
            <mxPoint y="130.0000000000001" as="sourcePoint" />
            <mxPoint x="180" y="130.0000000000001" as="targetPoint" />
          </mxGeometry>
        </mxCell>
        <mxCell id="Yl3m7NVMGg6Dee1x0JeU-602" value="Leo&lt;span style=&quot;font-size: medium; text-align: start;&quot;&gt;&lt;/span&gt;" style="text;strokeColor=none;fillColor=none;spacingLeft=4;spacingRight=4;overflow=hidden;rotatable=0;points=[[0,0.5],[1,0.5]];portConstraint=eastwest;fontSize=16;whiteSpace=wrap;html=1;align=center;verticalAlign=middle;" parent="Yl3m7NVMGg6Dee1x0JeU-597" vertex="1">
          <mxGeometry x="30" y="130.0000000000001" width="120" height="50" as="geometry" />
        </mxCell>
        <mxCell id="Yl3m7NVMGg6Dee1x0JeU-603" value="R50 000&lt;span style=&quot;font-size: medium; text-align: start;&quot;&gt;&lt;/span&gt;" style="text;strokeColor=none;fillColor=none;spacingLeft=4;spacingRight=4;overflow=hidden;rotatable=0;points=[[0,0.5],[1,0.5]];portConstraint=eastwest;fontSize=16;whiteSpace=wrap;html=1;align=center;verticalAlign=middle;" parent="Yl3m7NVMGg6Dee1x0JeU-597" vertex="1">
          <mxGeometry x="30" y="80.00000000000011" width="120" height="50" as="geometry" />
        </mxCell>
        <mxCell id="Yl3m7NVMGg6Dee1x0JeU-604" value="" style="endArrow=none;html=1;rounded=0;verticalAlign=top;fontSize=30;strokeWidth=3;" parent="Yl3m7NVMGg6Dee1x0JeU-597" edge="1">
          <mxGeometry relative="1" as="geometry">
            <mxPoint y="80.00000000000011" as="sourcePoint" />
            <mxPoint x="180" y="80.00000000000011" as="targetPoint" />
          </mxGeometry>
        </mxCell>
        <mxCell id="Yl3m7NVMGg6Dee1x0JeU-605" value="" style="group" parent="1" vertex="1" connectable="0">
          <mxGeometry x="6120" y="785.6199999999999" width="180" height="180.0000000000001" as="geometry" />
        </mxCell>
        <mxCell id="Yl3m7NVMGg6Dee1x0JeU-606" style="rounded=0;orthogonalLoop=1;jettySize=auto;html=1;exitX=0.5;exitY=0;exitDx=0;exitDy=0;endArrow=none;endFill=0;strokeWidth=6;edgeStyle=orthogonalEdgeStyle;" parent="Yl3m7NVMGg6Dee1x0JeU-605" source="Yl3m7NVMGg6Dee1x0JeU-607" edge="1">
          <mxGeometry relative="1" as="geometry">
            <mxPoint x="310" y="-75.61999999999989" as="targetPoint" />
            <Array as="points">
              <mxPoint x="90" y="-36" />
              <mxPoint x="310" y="-36" />
            </Array>
          </mxGeometry>
        </mxCell>
        <mxCell id="Yl3m7NVMGg6Dee1x0JeU-607" value="Develop Mitigation Plans for &#xa;High-Priority Risks" style="whiteSpace=wrap;rounded=1;fillColor=#ffcd28;strokeColor=#d79b00;shadow=1;fontStyle=0;gradientColor=#ffa500;verticalAlign=top;strokeWidth=4;" parent="Yl3m7NVMGg6Dee1x0JeU-605" vertex="1">
          <mxGeometry y="30.000000000000114" width="180" height="150" as="geometry" />
        </mxCell>
        <mxCell id="Yl3m7NVMGg6Dee1x0JeU-608" value="&lt;font style=&quot;font-size: 18px;&quot;&gt;5.2.1&lt;/font&gt;" style="text;html=1;strokeColor=none;fillColor=none;align=center;verticalAlign=top;whiteSpace=wrap;rounded=0;" parent="Yl3m7NVMGg6Dee1x0JeU-605" vertex="1">
          <mxGeometry x="135" width="45" height="30" as="geometry" />
        </mxCell>
        <mxCell id="Yl3m7NVMGg6Dee1x0JeU-609" value="" style="endArrow=none;html=1;rounded=0;verticalAlign=top;fontSize=30;strokeWidth=3;exitX=0;exitY=0.5;exitDx=0;exitDy=0;" parent="Yl3m7NVMGg6Dee1x0JeU-605" edge="1">
          <mxGeometry relative="1" as="geometry">
            <mxPoint y="130.0000000000001" as="sourcePoint" />
            <mxPoint x="180" y="130.0000000000001" as="targetPoint" />
          </mxGeometry>
        </mxCell>
        <mxCell id="Yl3m7NVMGg6Dee1x0JeU-610" value="Lane&lt;span style=&quot;font-size: medium; text-align: start;&quot;&gt;&lt;/span&gt;" style="text;strokeColor=none;fillColor=none;spacingLeft=4;spacingRight=4;overflow=hidden;rotatable=0;points=[[0,0.5],[1,0.5]];portConstraint=eastwest;fontSize=16;whiteSpace=wrap;html=1;align=center;verticalAlign=middle;" parent="Yl3m7NVMGg6Dee1x0JeU-605" vertex="1">
          <mxGeometry x="30" y="130.0000000000001" width="120" height="50" as="geometry" />
        </mxCell>
        <mxCell id="Yl3m7NVMGg6Dee1x0JeU-611" value="R50 000&lt;span style=&quot;font-size: medium; text-align: start;&quot;&gt;&lt;/span&gt;" style="text;strokeColor=none;fillColor=none;spacingLeft=4;spacingRight=4;overflow=hidden;rotatable=0;points=[[0,0.5],[1,0.5]];portConstraint=eastwest;fontSize=16;whiteSpace=wrap;html=1;align=center;verticalAlign=middle;" parent="Yl3m7NVMGg6Dee1x0JeU-605" vertex="1">
          <mxGeometry x="30" y="80.00000000000011" width="120" height="50" as="geometry" />
        </mxCell>
        <mxCell id="Yl3m7NVMGg6Dee1x0JeU-612" value="" style="endArrow=none;html=1;rounded=0;verticalAlign=top;fontSize=30;strokeWidth=3;" parent="Yl3m7NVMGg6Dee1x0JeU-605" edge="1">
          <mxGeometry relative="1" as="geometry">
            <mxPoint y="80.00000000000011" as="sourcePoint" />
            <mxPoint x="180" y="80.00000000000011" as="targetPoint" />
          </mxGeometry>
        </mxCell>
        <mxCell id="Yl3m7NVMGg6Dee1x0JeU-613" value="" style="group" parent="1" vertex="1" connectable="0">
          <mxGeometry x="6340" y="787" width="180" height="180.0000000000001" as="geometry" />
        </mxCell>
        <mxCell id="Yl3m7NVMGg6Dee1x0JeU-614" value="Implement Risk Response &#xa;Actions" style="whiteSpace=wrap;rounded=1;fillColor=#ffcd28;strokeColor=#d79b00;shadow=1;fontStyle=0;gradientColor=#ffa500;verticalAlign=top;strokeWidth=4;" parent="Yl3m7NVMGg6Dee1x0JeU-613" vertex="1">
          <mxGeometry y="30.000000000000114" width="180" height="150" as="geometry" />
        </mxCell>
        <mxCell id="Yl3m7NVMGg6Dee1x0JeU-615" value="&lt;font style=&quot;font-size: 18px;&quot;&gt;5.2.2&lt;/font&gt;" style="text;html=1;strokeColor=none;fillColor=none;align=center;verticalAlign=top;whiteSpace=wrap;rounded=0;" parent="Yl3m7NVMGg6Dee1x0JeU-613" vertex="1">
          <mxGeometry x="135" width="45" height="30" as="geometry" />
        </mxCell>
        <mxCell id="Yl3m7NVMGg6Dee1x0JeU-616" value="" style="endArrow=none;html=1;rounded=0;verticalAlign=top;fontSize=30;strokeWidth=3;exitX=0;exitY=0.5;exitDx=0;exitDy=0;" parent="Yl3m7NVMGg6Dee1x0JeU-613" edge="1">
          <mxGeometry relative="1" as="geometry">
            <mxPoint y="130.0000000000001" as="sourcePoint" />
            <mxPoint x="180" y="130.0000000000001" as="targetPoint" />
          </mxGeometry>
        </mxCell>
        <mxCell id="Yl3m7NVMGg6Dee1x0JeU-617" value="Liam&lt;span style=&quot;font-size: medium; text-align: start;&quot;&gt;&lt;/span&gt;" style="text;strokeColor=none;fillColor=none;spacingLeft=4;spacingRight=4;overflow=hidden;rotatable=0;points=[[0,0.5],[1,0.5]];portConstraint=eastwest;fontSize=16;whiteSpace=wrap;html=1;align=center;verticalAlign=middle;" parent="Yl3m7NVMGg6Dee1x0JeU-613" vertex="1">
          <mxGeometry x="30" y="130.0000000000001" width="120" height="50" as="geometry" />
        </mxCell>
        <mxCell id="Yl3m7NVMGg6Dee1x0JeU-618" value="R50 000&lt;span style=&quot;font-size: medium; text-align: start;&quot;&gt;&lt;/span&gt;" style="text;strokeColor=none;fillColor=none;spacingLeft=4;spacingRight=4;overflow=hidden;rotatable=0;points=[[0,0.5],[1,0.5]];portConstraint=eastwest;fontSize=16;whiteSpace=wrap;html=1;align=center;verticalAlign=middle;" parent="Yl3m7NVMGg6Dee1x0JeU-613" vertex="1">
          <mxGeometry x="30" y="80.00000000000011" width="120" height="50" as="geometry" />
        </mxCell>
        <mxCell id="Yl3m7NVMGg6Dee1x0JeU-619" value="" style="endArrow=none;html=1;rounded=0;verticalAlign=top;fontSize=30;strokeWidth=3;" parent="Yl3m7NVMGg6Dee1x0JeU-613" edge="1">
          <mxGeometry relative="1" as="geometry">
            <mxPoint y="80.00000000000011" as="sourcePoint" />
            <mxPoint x="180" y="80.00000000000011" as="targetPoint" />
          </mxGeometry>
        </mxCell>
        <mxCell id="Yl3m7NVMGg6Dee1x0JeU-620" style="edgeStyle=orthogonalEdgeStyle;rounded=0;orthogonalLoop=1;jettySize=auto;html=1;exitX=0.5;exitY=0;exitDx=0;exitDy=0;entryX=0.5;entryY=1;entryDx=0;entryDy=0;strokeWidth=6;endArrow=none;endFill=0;" parent="1" source="Yl3m7NVMGg6Dee1x0JeU-614" edge="1">
          <mxGeometry relative="1" as="geometry">
            <Array as="points">
              <mxPoint x="6430" y="720" />
              <mxPoint x="6430" y="720" />
            </Array>
            <mxPoint x="6430" y="710" as="targetPoint" />
          </mxGeometry>
        </mxCell>
        <mxCell id="Yl3m7NVMGg6Dee1x0JeU-621" value="" style="group" parent="1" vertex="1" connectable="0">
          <mxGeometry x="6560" y="787" width="180" height="180.0000000000001" as="geometry" />
        </mxCell>
        <mxCell id="Yl3m7NVMGg6Dee1x0JeU-622" value="Monitor Risks and Adapt &#xa;Strategies" style="whiteSpace=wrap;rounded=1;fillColor=#ffcd28;strokeColor=#d79b00;shadow=1;fontStyle=0;gradientColor=#ffa500;verticalAlign=top;strokeWidth=4;" parent="Yl3m7NVMGg6Dee1x0JeU-621" vertex="1">
          <mxGeometry y="30.000000000000114" width="180" height="150" as="geometry" />
        </mxCell>
        <mxCell id="Yl3m7NVMGg6Dee1x0JeU-623" value="&lt;font style=&quot;font-size: 18px;&quot;&gt;5.2.3&lt;/font&gt;" style="text;html=1;strokeColor=none;fillColor=none;align=center;verticalAlign=top;whiteSpace=wrap;rounded=0;" parent="Yl3m7NVMGg6Dee1x0JeU-621" vertex="1">
          <mxGeometry x="135" width="45" height="30" as="geometry" />
        </mxCell>
        <mxCell id="Yl3m7NVMGg6Dee1x0JeU-624" value="" style="endArrow=none;html=1;rounded=0;verticalAlign=top;fontSize=30;strokeWidth=3;exitX=0;exitY=0.5;exitDx=0;exitDy=0;" parent="Yl3m7NVMGg6Dee1x0JeU-621" edge="1">
          <mxGeometry relative="1" as="geometry">
            <mxPoint y="130.0000000000001" as="sourcePoint" />
            <mxPoint x="180" y="130.0000000000001" as="targetPoint" />
          </mxGeometry>
        </mxCell>
        <mxCell id="Yl3m7NVMGg6Dee1x0JeU-625" value="Laken&lt;span style=&quot;font-size: medium; text-align: start;&quot;&gt;&lt;/span&gt;" style="text;strokeColor=none;fillColor=none;spacingLeft=4;spacingRight=4;overflow=hidden;rotatable=0;points=[[0,0.5],[1,0.5]];portConstraint=eastwest;fontSize=16;whiteSpace=wrap;html=1;align=center;verticalAlign=middle;" parent="Yl3m7NVMGg6Dee1x0JeU-621" vertex="1">
          <mxGeometry x="30" y="130.0000000000001" width="120" height="50" as="geometry" />
        </mxCell>
        <mxCell id="Yl3m7NVMGg6Dee1x0JeU-626" value="R50 000&lt;span style=&quot;font-size: medium; text-align: start;&quot;&gt;&lt;/span&gt;" style="text;strokeColor=none;fillColor=none;spacingLeft=4;spacingRight=4;overflow=hidden;rotatable=0;points=[[0,0.5],[1,0.5]];portConstraint=eastwest;fontSize=16;whiteSpace=wrap;html=1;align=center;verticalAlign=middle;" parent="Yl3m7NVMGg6Dee1x0JeU-621" vertex="1">
          <mxGeometry x="30" y="80.00000000000011" width="120" height="50" as="geometry" />
        </mxCell>
        <mxCell id="Yl3m7NVMGg6Dee1x0JeU-627" value="" style="endArrow=none;html=1;rounded=0;verticalAlign=top;fontSize=30;strokeWidth=3;" parent="Yl3m7NVMGg6Dee1x0JeU-621" edge="1">
          <mxGeometry relative="1" as="geometry">
            <mxPoint y="80.00000000000011" as="sourcePoint" />
            <mxPoint x="180" y="80.00000000000011" as="targetPoint" />
          </mxGeometry>
        </mxCell>
        <mxCell id="Yl3m7NVMGg6Dee1x0JeU-628" style="edgeStyle=orthogonalEdgeStyle;rounded=0;orthogonalLoop=1;jettySize=auto;html=1;exitX=0.5;exitY=0;exitDx=0;exitDy=0;entryX=0.5;entryY=1;entryDx=0;entryDy=0;strokeWidth=6;endArrow=none;endFill=0;" parent="1" source="Yl3m7NVMGg6Dee1x0JeU-591" target="Yl3m7NVMGg6Dee1x0JeU-559" edge="1">
          <mxGeometry relative="1" as="geometry">
            <Array as="points">
              <mxPoint x="5750" y="676" />
              <mxPoint x="5750" y="676" />
            </Array>
          </mxGeometry>
        </mxCell>
        <mxCell id="Yl3m7NVMGg6Dee1x0JeU-629" style="edgeStyle=orthogonalEdgeStyle;rounded=0;orthogonalLoop=1;jettySize=auto;html=1;exitX=0.5;exitY=0;exitDx=0;exitDy=0;strokeWidth=6;endArrow=none;endFill=0;entryX=0.501;entryY=0.979;entryDx=0;entryDy=0;entryPerimeter=0;" parent="1" source="Yl3m7NVMGg6Dee1x0JeU-622" target="Yl3m7NVMGg6Dee1x0JeU-570" edge="1">
          <mxGeometry relative="1" as="geometry">
            <mxPoint x="6430" y="710" as="targetPoint" />
            <Array as="points">
              <mxPoint x="6650" y="750" />
              <mxPoint x="6430" y="750" />
            </Array>
          </mxGeometry>
        </mxCell>
        <mxCell id="Yl3m7NVMGg6Dee1x0JeU-631" value="  SafeComm" style="whiteSpace=wrap;rounded=1;fillColor=#dae8fc;strokeColor=#6c8ebf;shadow=1;fontStyle=1;gradientColor=#7ea6e0;verticalAlign=top;strokeWidth=4;fontSize=22;align=center;" parent="1" vertex="1">
          <mxGeometry x="3300" y="-80" width="180" height="150" as="geometry" />
        </mxCell>
        <mxCell id="Yl3m7NVMGg6Dee1x0JeU-633" value="" style="endArrow=none;html=1;rounded=0;verticalAlign=top;fontSize=30;strokeWidth=3;exitX=0;exitY=0.5;exitDx=0;exitDy=0;" parent="1" edge="1">
          <mxGeometry relative="1" as="geometry">
            <mxPoint x="3300" y="20" as="sourcePoint" />
            <mxPoint x="3480" y="20" as="targetPoint" />
          </mxGeometry>
        </mxCell>
        <mxCell id="Yl3m7NVMGg6Dee1x0JeU-634" value="Khulekani" style="text;strokeColor=none;fillColor=none;spacingLeft=4;spacingRight=4;overflow=hidden;rotatable=0;points=[[0,0.5],[1,0.5]];portConstraint=eastwest;fontSize=16;whiteSpace=wrap;html=1;align=center;verticalAlign=middle;" parent="1" vertex="1">
          <mxGeometry x="3330" y="20" width="120" height="50" as="geometry" />
        </mxCell>
        <mxCell id="Yl3m7NVMGg6Dee1x0JeU-635" value="R1 500 000&lt;span style=&quot;font-size: medium; text-align: start;&quot;&gt;&lt;/span&gt;" style="text;strokeColor=none;fillColor=none;spacingLeft=4;spacingRight=4;overflow=hidden;rotatable=0;points=[[0,0.5],[1,0.5]];portConstraint=eastwest;fontSize=16;whiteSpace=wrap;html=1;align=center;verticalAlign=middle;" parent="1" vertex="1">
          <mxGeometry x="3330" y="-30" width="120" height="50" as="geometry" />
        </mxCell>
        <mxCell id="Yl3m7NVMGg6Dee1x0JeU-636" value="" style="endArrow=none;html=1;rounded=0;verticalAlign=top;fontSize=30;strokeWidth=3;" parent="1" edge="1">
          <mxGeometry relative="1" as="geometry">
            <mxPoint x="3300" y="-30" as="sourcePoint" />
            <mxPoint x="3480" y="-30" as="targetPoint" />
          </mxGeometry>
        </mxCell>
        <mxCell id="Yl3m7NVMGg6Dee1x0JeU-637" style="edgeStyle=orthogonalEdgeStyle;rounded=0;orthogonalLoop=1;jettySize=auto;html=1;exitX=0.5;exitY=0;exitDx=0;exitDy=0;entryX=0.5;entryY=1;entryDx=0;entryDy=0;strokeWidth=6;endArrow=none;endFill=0;" parent="1" source="Yl3m7NVMGg6Dee1x0JeU-424" target="Yl3m7NVMGg6Dee1x0JeU-631" edge="1">
          <mxGeometry relative="1" as="geometry" />
        </mxCell>
        <mxCell id="Yl3m7NVMGg6Dee1x0JeU-640" style="edgeStyle=orthogonalEdgeStyle;rounded=0;orthogonalLoop=1;jettySize=auto;html=1;exitX=0.5;exitY=0;exitDx=0;exitDy=0;entryX=0.5;entryY=0;entryDx=0;entryDy=0;endArrow=none;endFill=0;strokeWidth=6;" parent="1" source="Yl3m7NVMGg6Dee1x0JeU-234" target="Yl3m7NVMGg6Dee1x0JeU-574" edge="1">
          <mxGeometry relative="1" as="geometry">
            <Array as="points">
              <mxPoint x="680" y="120" />
              <mxPoint x="6100" y="120" />
            </Array>
          </mxGeometry>
        </mxCell>
        <mxCell id="Yl3m7NVMGg6Dee1x0JeU-643" value="" style="group;movable=1;resizable=1;rotatable=1;deletable=1;editable=1;locked=0;connectable=1;" parent="1" vertex="1" connectable="0">
          <mxGeometry x="20" y="749.6199999999999" width="310" height="216.0000000000001" as="geometry" />
        </mxCell>
        <mxCell id="BGO1QoiUC6lwQhX8ezDE-364" style="rounded=0;orthogonalLoop=1;jettySize=auto;html=1;exitX=0.5;exitY=0;exitDx=0;exitDy=0;endArrow=none;endFill=0;strokeWidth=6;edgeStyle=orthogonalEdgeStyle;movable=1;resizable=1;rotatable=1;deletable=1;editable=1;locked=0;connectable=1;" parent="Yl3m7NVMGg6Dee1x0JeU-643" source="BGO1QoiUC6lwQhX8ezDE-336" edge="1">
          <mxGeometry relative="1" as="geometry">
            <mxPoint x="310" y="-39.61999999999989" as="targetPoint" />
            <Array as="points">
              <mxPoint x="90" />
              <mxPoint x="310" />
            </Array>
          </mxGeometry>
        </mxCell>
        <mxCell id="BGO1QoiUC6lwQhX8ezDE-336" value="Gather Detailed Requirements &#xa;from Stakeholders" style="whiteSpace=wrap;rounded=1;fillColor=#ffcd28;strokeColor=#d79b00;shadow=1;fontStyle=0;gradientColor=#ffa500;verticalAlign=top;strokeWidth=4;movable=1;resizable=1;rotatable=1;deletable=1;editable=1;locked=0;connectable=1;container=0;" parent="Yl3m7NVMGg6Dee1x0JeU-643" vertex="1">
          <mxGeometry y="66.00000000000011" width="180" height="150" as="geometry" />
        </mxCell>
        <mxCell id="BGO1QoiUC6lwQhX8ezDE-337" value="&lt;font style=&quot;font-size: 18px;&quot;&gt;1.1.1&lt;/font&gt;" style="text;html=1;strokeColor=none;fillColor=none;align=center;verticalAlign=top;whiteSpace=wrap;rounded=0;movable=1;resizable=1;rotatable=1;deletable=1;editable=1;locked=0;connectable=1;container=0;" parent="Yl3m7NVMGg6Dee1x0JeU-643" vertex="1">
          <mxGeometry x="135" y="36" width="45" height="30" as="geometry" />
        </mxCell>
        <mxCell id="BGO1QoiUC6lwQhX8ezDE-338" value="" style="endArrow=none;html=1;rounded=0;verticalAlign=top;fontSize=30;strokeWidth=3;exitX=0;exitY=0.5;exitDx=0;exitDy=0;movable=1;resizable=1;rotatable=1;deletable=1;editable=1;locked=0;connectable=1;" parent="Yl3m7NVMGg6Dee1x0JeU-643" edge="1">
          <mxGeometry relative="1" as="geometry">
            <mxPoint y="166.0000000000001" as="sourcePoint" />
            <mxPoint x="180" y="166.0000000000001" as="targetPoint" />
          </mxGeometry>
        </mxCell>
        <mxCell id="BGO1QoiUC6lwQhX8ezDE-339" value="Avery&lt;span style=&quot;font-size: medium; text-align: start;&quot;&gt;&lt;/span&gt;" style="text;strokeColor=none;fillColor=none;spacingLeft=4;spacingRight=4;overflow=hidden;rotatable=1;points=[[0,0.5],[1,0.5]];portConstraint=eastwest;fontSize=16;whiteSpace=wrap;html=1;align=center;verticalAlign=middle;movable=1;resizable=1;deletable=1;editable=1;locked=0;connectable=1;container=0;" parent="Yl3m7NVMGg6Dee1x0JeU-643" vertex="1">
          <mxGeometry x="30" y="166.0000000000001" width="120" height="50" as="geometry" />
        </mxCell>
        <mxCell id="BGO1QoiUC6lwQhX8ezDE-340" value="R59 000" style="text;strokeColor=none;fillColor=none;spacingLeft=4;spacingRight=4;overflow=hidden;rotatable=1;points=[[0,0.5],[1,0.5]];portConstraint=eastwest;fontSize=16;whiteSpace=wrap;html=1;align=center;verticalAlign=middle;movable=1;resizable=1;deletable=1;editable=1;locked=0;connectable=1;container=0;" parent="Yl3m7NVMGg6Dee1x0JeU-643" vertex="1">
          <mxGeometry x="30" y="116.00000000000011" width="120" height="50" as="geometry" />
        </mxCell>
        <mxCell id="BGO1QoiUC6lwQhX8ezDE-341" value="" style="endArrow=none;html=1;rounded=0;verticalAlign=top;fontSize=30;strokeWidth=3;movable=1;resizable=1;rotatable=1;deletable=1;editable=1;locked=0;connectable=1;" parent="Yl3m7NVMGg6Dee1x0JeU-643" edge="1">
          <mxGeometry relative="1" as="geometry">
            <mxPoint y="116.00000000000011" as="sourcePoint" />
            <mxPoint x="180" y="116.00000000000011" as="targetPoint" />
          </mxGeometry>
        </mxCell>
        <mxCell id="Yl3m7NVMGg6Dee1x0JeU-564" value="" style="endArrow=none;html=1;rounded=0;verticalAlign=top;fontSize=30;strokeWidth=3;" parent="1" edge="1">
          <mxGeometry relative="1" as="geometry">
            <mxPoint x="5659" y="566" as="sourcePoint" />
            <mxPoint x="5839" y="566" as="targetPoint" />
          </mxGeometry>
        </mxCell>
        <mxCell id="Yl3m7NVMGg6Dee1x0JeU-648" value="&lt;span style=&quot;color: rgb(0, 0, 0); font-family: Helvetica; font-size: 80px; font-style: normal; font-variant-ligatures: normal; font-variant-caps: normal; font-weight: 700; letter-spacing: normal; orphans: 2; text-align: center; text-indent: 0px; text-transform: none; widows: 2; word-spacing: 0px; -webkit-text-stroke-width: 0px; background-color: rgb(251, 251, 251); text-decoration-thickness: initial; text-decoration-style: initial; text-decoration-color: initial; float: none; display: inline !important;&quot;&gt;WBS depicting SafeComm&#39;s project requirements&amp;nbsp;&lt;/span&gt;" style="text;whiteSpace=wrap;html=1;fontSize=80;" parent="1" vertex="1">
          <mxGeometry x="2422.75" y="-200" width="1934.5" height="50" as="geometry" />
        </mxCell>
      </root>
    </mxGraphModel>
  </diagram>
</mxfile>
